<svg width="73" height="73" viewBox="0 0 73 73" fill="none" xmlns="http://www.w3.org/2000/svg">
<rect width="73" height="73" rx="5" fill="#F7A336"/>
<path d="M0 4.99999C0 2.23857 2.23858 0 5 0H68C70.7614 0 73 2.23858 73 5V21.15H0V4.99999Z" fill="black"/>
<path d="M28.8129 54.2386C27.4833 54.2386 26.3043 54.0114 25.2759 53.5568C24.2532 53.0966 23.4464 52.4631 22.8555 51.6562C22.2646 50.8494 21.9634 49.9205 21.9521 48.8693H26.1964C26.2134 49.25 26.3356 49.5881 26.5629 49.8835C26.7901 50.1733 27.0998 50.4006 27.4918 50.5653C27.8839 50.7301 28.3299 50.8125 28.8299 50.8125C29.3299 50.8125 29.7702 50.7244 30.1509 50.5483C30.5373 50.3665 30.8384 50.1193 31.0543 49.8068C31.2702 49.4886 31.3754 49.125 31.3697 48.7159C31.3754 48.3068 31.2589 47.9432 31.0202 47.625C30.7816 47.3068 30.4435 47.0597 30.006 46.8835C29.5742 46.7074 29.0629 46.6193 28.4719 46.6193H26.7759V43.6193H28.4719C28.989 43.6193 29.4435 43.5341 29.8356 43.3636C30.2333 43.1932 30.543 42.9545 30.7646 42.6477C30.9862 42.3352 31.0941 41.9773 31.0884 41.5739C31.0941 41.1818 31.0004 40.8381 30.8072 40.5426C30.6197 40.2415 30.3555 40.0085 30.0146 39.8438C29.6793 39.679 29.2901 39.5966 28.8469 39.5966C28.381 39.5966 27.9577 39.679 27.5771 39.8438C27.2021 40.0085 26.9038 40.2415 26.6822 40.5426C26.4606 40.8437 26.3441 41.1932 26.3327 41.5909H22.3015C22.3129 40.5511 22.6026 39.6364 23.1708 38.8466C23.739 38.0511 24.5117 37.429 25.489 36.9801C26.4719 36.5312 27.5913 36.3068 28.8469 36.3068C30.0969 36.3068 31.1964 36.5256 32.1452 36.9631C33.0941 37.4006 33.8327 37.9972 34.3612 38.7528C34.8896 39.5028 35.1538 40.3523 35.1538 41.3011C35.1594 42.2841 34.8384 43.0937 34.1907 43.7301C33.5487 44.3665 32.7219 44.7585 31.7106 44.9062V45.0426C33.0629 45.2017 34.0827 45.6392 34.7702 46.3551C35.4634 47.071 35.8072 47.9659 35.8015 49.0398C35.8015 50.0511 35.5032 50.9489 34.9066 51.733C34.3157 52.5114 33.4918 53.125 32.435 53.5739C31.3839 54.017 30.1765 54.2386 28.8129 54.2386ZM44.9996 54.2386C43.6417 54.2386 42.4286 54.0227 41.3604 53.5909C40.2979 53.1534 39.4627 52.5625 38.8548 51.8182C38.2525 51.0682 37.9513 50.2216 37.9513 49.2784C37.9513 48.5568 38.1246 47.8949 38.4712 47.2926C38.8178 46.6903 39.2866 46.1903 39.8775 45.7926C40.4741 45.3892 41.1388 45.1307 41.8718 45.017V44.8807C40.9116 44.7045 40.1246 44.2585 39.511 43.5426C38.9031 42.8267 38.5991 41.9886 38.5991 41.0284C38.5991 40.1193 38.8746 39.3097 39.4258 38.5994C39.9826 37.8892 40.7411 37.3295 41.7013 36.9205C42.6673 36.5114 43.7667 36.3068 44.9996 36.3068C46.2326 36.3068 47.3292 36.5114 48.2894 36.9205C49.2553 37.3295 50.0138 37.8892 50.565 38.5994C51.1218 39.3097 51.4002 40.1193 51.4002 41.0284C51.4002 41.9943 51.0906 42.8352 50.4712 43.5511C49.8576 44.2614 49.0763 44.7045 48.1275 44.8807V45.017C48.8548 45.1307 49.5138 45.3892 50.1048 45.7926C50.7013 46.1903 51.1729 46.6903 51.5195 47.2926C51.8718 47.8949 52.0479 48.5568 52.0479 49.2784C52.0479 50.2216 51.744 51.0682 51.136 51.8182C50.5281 52.5625 49.6928 53.1534 48.6303 53.5909C47.5735 54.0227 46.3633 54.2386 44.9996 54.2386ZM44.9996 51.2472C45.5167 51.2472 45.9712 51.1506 46.3633 50.9574C46.7553 50.7585 47.0621 50.483 47.2837 50.1307C47.511 49.7784 47.6246 49.3807 47.6246 48.9375C47.6246 48.483 47.511 48.0795 47.2837 47.7273C47.0565 47.375 46.744 47.0994 46.3462 46.9006C45.9542 46.696 45.5053 46.5938 44.9996 46.5938C44.4996 46.5938 44.0508 46.696 43.6531 46.9006C43.2553 47.0994 42.9428 47.375 42.7156 47.7273C42.4883 48.0795 42.3746 48.483 42.3746 48.9375C42.3746 49.3807 42.4854 49.7784 42.707 50.1307C42.9343 50.4773 43.244 50.75 43.636 50.9489C44.0337 51.1477 44.4883 51.2472 44.9996 51.2472ZM44.9996 43.6193C45.4428 43.6193 45.8349 43.5284 46.1758 43.3466C46.5224 43.1648 46.7923 42.9119 46.9854 42.5881C47.1843 42.2642 47.2837 41.8977 47.2837 41.4886C47.2837 41.0795 47.1843 40.7188 46.9854 40.4062C46.7923 40.0938 46.5252 39.8494 46.1843 39.6733C45.8434 39.4915 45.4485 39.4006 44.9996 39.4006C44.5565 39.4006 44.1616 39.4915 43.815 39.6733C43.4684 39.8494 43.1985 40.0938 43.0053 40.4062C42.8121 40.7188 42.7156 41.0795 42.7156 41.4886C42.7156 41.8977 42.8121 42.2642 43.0053 42.5881C43.2042 42.9062 43.4769 43.1591 43.8235 43.3466C44.1701 43.5284 44.5621 43.6193 44.9996 43.6193Z" fill="white"/>
<path d="M14.5328 17V3.90909H19.9916C20.9717 3.90909 21.792 4.04758 22.4525 4.32457C23.1173 4.60156 23.6159 4.98935 23.9482 5.48793C24.2849 5.98651 24.4532 6.56392 24.4532 7.22017C24.4532 7.71875 24.3488 8.16406 24.14 8.55611C23.9312 8.94389 23.6436 9.26562 23.2771 9.52131C22.9106 9.77699 22.4866 9.95597 22.0051 10.0582V10.1861C22.5335 10.2116 23.0214 10.3544 23.4688 10.6143C23.9205 10.8743 24.2828 11.2365 24.5555 11.701C24.8282 12.1612 24.9646 12.7067 24.9646 13.3374C24.9646 14.0405 24.7856 14.669 24.4276 15.223C24.0697 15.7727 23.5519 16.2074 22.8744 16.527C22.1968 16.8423 21.3744 17 20.407 17H14.5328ZM17.6968 14.4496H19.6528C20.3389 14.4496 20.8438 14.3196 21.1677 14.0597C21.4958 13.7997 21.6599 13.4375 21.6599 12.973C21.6599 12.6364 21.5811 12.3466 21.4234 12.1037C21.2657 11.8565 21.042 11.6669 20.7522 11.5348C20.4624 11.3984 20.1151 11.3303 19.7103 11.3303H17.6968V14.4496ZM17.6968 9.29119H19.4482C19.7934 9.29119 20.1002 9.23366 20.3687 9.11861C20.6372 9.00355 20.846 8.83736 20.9951 8.62003C21.1485 8.4027 21.2252 8.14062 21.2252 7.83381C21.2252 7.39489 21.0697 7.04972 20.7586 6.7983C20.4475 6.54688 20.0278 6.42116 19.4994 6.42116H17.6968V9.29119ZM26.4859 17V3.90909H29.6499V9.4446H29.8225L34.1499 3.90909H37.8765L33.2359 9.75142L37.9596 17H34.1755L30.9156 11.8544L29.6499 13.4524V17H26.4859ZM39.6551 17L44.9349 6.54261V6.45952H38.7602V3.90909H48.2077V6.47869L42.9086 17H39.6551ZM49.9447 17V14.7244L54.7195 10.544C55.0775 10.2202 55.3822 9.92401 55.6336 9.65554C55.885 9.38281 56.0768 9.11009 56.2089 8.83736C56.341 8.56037 56.407 8.25994 56.407 7.93608C56.407 7.57386 56.3282 7.26491 56.1705 7.00923C56.0129 6.74929 55.7955 6.54901 55.5186 6.40838C55.2416 6.26776 54.9241 6.19744 54.5661 6.19744C54.2039 6.19744 53.8865 6.27202 53.6137 6.42116C53.341 6.56605 53.1279 6.77699 52.9745 7.05398C52.8254 7.33097 52.7508 7.66761 52.7508 8.06392H49.7529C49.7529 7.1733 49.9532 6.40412 50.3538 5.75639C50.7544 5.10866 51.3169 4.61008 52.0413 4.26065C52.77 3.90696 53.6159 3.73011 54.5789 3.73011C55.5718 3.73011 56.4347 3.89631 57.1677 4.22869C57.9007 4.56108 58.4674 5.02557 58.868 5.62216C59.2728 6.21449 59.4752 6.9027 59.4752 7.68679C59.4752 8.18537 59.3751 8.67969 59.1748 9.16974C58.9745 9.6598 58.6144 10.201 58.0945 10.7933C57.5789 11.3857 56.846 12.0952 55.8957 12.9219L54.3296 14.3665V14.4496H59.635V17H49.9447Z" fill="white"/>
</svg>
