<svg width="73" height="73" viewBox="0 0 73 73" fill="none" xmlns="http://www.w3.org/2000/svg">
<rect width="73" height="73" rx="5" fill="#F7A336"/>
<path d="M0 4.99999C0 2.23857 2.23858 0 5 0H68C70.7614 0 73 2.23858 73 5V21.15H0V4.99999Z" fill="black"/>
<path d="M11.8651 51V39.3636H19.8082V41.6477H14.6776V44.0341H19.3026V46.3239H14.6776V51H11.8651ZM23.544 51.1477C22.9872 51.1477 22.4929 51.0549 22.0611 50.8693C21.633 50.6799 21.294 50.3958 21.044 50.017C20.7978 49.6345 20.6747 49.1553 20.6747 48.5795C20.6747 48.0947 20.7599 47.6856 20.9304 47.3523C21.1009 47.0189 21.3357 46.7481 21.6349 46.5398C21.9342 46.3314 22.2789 46.1742 22.669 46.0682C23.0592 45.9583 23.4759 45.8845 23.919 45.8466C24.4152 45.8011 24.8149 45.7538 25.1179 45.7045C25.4209 45.6515 25.6406 45.5777 25.777 45.483C25.9171 45.3845 25.9872 45.2462 25.9872 45.0682V45.0398C25.9872 44.7481 25.8868 44.5227 25.6861 44.3636C25.4853 44.2045 25.2145 44.125 24.8736 44.125C24.5062 44.125 24.2107 44.2045 23.9872 44.3636C23.7637 44.5227 23.6217 44.7424 23.5611 45.0227L20.9986 44.9318C21.0743 44.4015 21.2694 43.928 21.5838 43.5114C21.902 43.0909 22.3376 42.7614 22.8906 42.5227C23.4474 42.2803 24.116 42.1591 24.8963 42.1591C25.4531 42.1591 25.9664 42.2254 26.4361 42.358C26.9058 42.4867 27.3149 42.6761 27.6634 42.9261C28.0118 43.1723 28.2808 43.4754 28.4702 43.8352C28.6634 44.1951 28.7599 44.6061 28.7599 45.0682V51H26.1463V49.7841H26.0781C25.9228 50.0795 25.724 50.3295 25.4815 50.5341C25.2429 50.7386 24.9607 50.892 24.6349 50.9943C24.313 51.0966 23.9493 51.1477 23.544 51.1477ZM24.402 49.3295C24.7012 49.3295 24.9702 49.2689 25.2088 49.1477C25.4512 49.0265 25.6444 48.8598 25.7884 48.6477C25.9323 48.4318 26.0043 48.1818 26.0043 47.8977V47.0682C25.9247 47.1098 25.8281 47.1477 25.7145 47.1818C25.6046 47.2159 25.4834 47.2481 25.3509 47.2784C25.2183 47.3087 25.0819 47.3352 24.9418 47.358C24.8016 47.3807 24.6671 47.4015 24.5384 47.4205C24.277 47.4621 24.0535 47.5265 23.8679 47.6136C23.6861 47.7008 23.5459 47.8144 23.4474 47.9545C23.3527 48.0909 23.3054 48.2538 23.3054 48.4432C23.3054 48.7311 23.4077 48.9508 23.6122 49.1023C23.8205 49.2538 24.0838 49.3295 24.402 49.3295ZM30.4588 51V42.2727H33.1009V43.875H33.1974C33.3793 43.3447 33.6861 42.9261 34.1179 42.6193C34.5497 42.3125 35.0649 42.1591 35.6634 42.1591C36.2694 42.1591 36.7884 42.3144 37.2202 42.625C37.652 42.9356 37.9266 43.3523 38.044 43.875H38.1349C38.2978 43.3561 38.616 42.9413 39.0895 42.6307C39.563 42.3163 40.1217 42.1591 40.7656 42.1591C41.5914 42.1591 42.2618 42.4242 42.777 42.9545C43.2921 43.4811 43.5497 44.2045 43.5497 45.125V51H40.7713V45.7614C40.7713 45.3258 40.6596 44.9943 40.4361 44.767C40.2126 44.536 39.9228 44.4205 39.5668 44.4205C39.1842 44.4205 38.883 44.5455 38.6634 44.7955C38.4474 45.0417 38.3395 45.3731 38.3395 45.7898V51H35.669V45.733C35.669 45.3277 35.5592 45.0076 35.3395 44.7727C35.1198 44.5379 34.83 44.4205 34.4702 44.4205C34.2277 44.4205 34.0137 44.4792 33.8281 44.5966C33.6425 44.7102 33.4967 44.8731 33.3906 45.0852C33.2884 45.2973 33.2372 45.5473 33.2372 45.8352V51H30.4588ZM45.2713 51V42.2727H48.0497V51H45.2713ZM46.6634 41.2557C46.2732 41.2557 45.938 41.1269 45.6577 40.8693C45.3774 40.608 45.2372 40.2936 45.2372 39.9261C45.2372 39.5625 45.3774 39.2519 45.6577 38.9943C45.938 38.733 46.2732 38.6023 46.6634 38.6023C47.0573 38.6023 47.3925 38.733 47.669 38.9943C47.9493 39.2519 48.0895 39.5625 48.0895 39.9261C48.0895 40.2936 47.9493 40.608 47.669 40.8693C47.3925 41.1269 47.0573 41.2557 46.6634 41.2557ZM52.5966 39.3636V51H49.8182V39.3636H52.5966ZM56.0639 54.2727C55.7306 54.2727 55.4162 54.2462 55.1207 54.1932C54.8253 54.1439 54.5715 54.0777 54.3594 53.9943L54.973 51.9773C55.2457 52.0682 55.492 52.1212 55.7116 52.1364C55.9351 52.1515 56.1264 52.1155 56.2855 52.0284C56.4484 51.9451 56.5734 51.7955 56.6605 51.5795L56.7685 51.3182L53.6662 42.2727H56.5753L58.1832 48.5H58.2741L59.9048 42.2727H62.831L59.5412 51.8352C59.3821 52.3125 59.1567 52.733 58.8651 53.0966C58.5772 53.464 58.2041 53.7519 57.7457 53.9602C57.2912 54.1686 56.7306 54.2727 56.0639 54.2727Z" fill="white"/>
<path d="M7.20308 16V5.09091H11.7521C12.5688 5.09091 13.2524 5.20632 13.8029 5.43714C14.3568 5.66797 14.7723 5.99112 15.0493 6.4066C15.3299 6.82209 15.4701 7.30327 15.4701 7.85014C15.4701 8.26562 15.3831 8.63672 15.2091 8.96342C15.0351 9.28658 14.7954 9.55469 14.49 9.76776C14.1846 9.98082 13.8313 10.13 13.43 10.2152V10.3217C13.8703 10.343 14.2769 10.462 14.6498 10.6786C15.0262 10.8952 15.3281 11.1971 15.5554 11.5842C15.7826 11.9677 15.8963 12.4222 15.8963 12.9478C15.8963 13.5337 15.7471 14.0575 15.4488 14.5192C15.1505 14.9773 14.7191 15.3395 14.1544 15.6058C13.5898 15.8686 12.9044 16 12.0983 16H7.20308ZM9.8398 13.8746H11.4698C12.0415 13.8746 12.4623 13.7663 12.7322 13.5497C13.0056 13.3331 13.1424 13.0312 13.1424 12.6442C13.1424 12.3636 13.0767 12.1222 12.9453 11.9197C12.8139 11.7138 12.6274 11.5558 12.386 11.4457C12.1445 11.332 11.8551 11.2752 11.5177 11.2752H9.8398V13.8746ZM9.8398 9.57599H11.2993C11.587 9.57599 11.8426 9.52805 12.0664 9.43217C12.2901 9.33629 12.4641 9.1978 12.5884 9.01669C12.7162 8.83558 12.7801 8.61719 12.7801 8.36151C12.7801 7.99574 12.6505 7.7081 12.3913 7.49858C12.1321 7.28906 11.7823 7.1843 11.3419 7.1843H9.8398V9.57599ZM17.164 16V5.09091H19.8007V9.70383H19.9446L23.5507 5.09091H26.6562L22.789 9.95952L26.7255 16H23.572L20.8554 11.712L19.8007 13.0437V16H17.164ZM28.1384 16L32.5382 7.28551V7.21626H27.3926V5.09091H35.2655V7.23224L30.8497 16H28.1384ZM36.713 16V14.1037L40.6921 10.62C40.9904 10.3501 41.2443 10.1033 41.4538 9.87962C41.6633 9.65234 41.8231 9.42507 41.9332 9.1978C42.0433 8.96697 42.0983 8.71662 42.0983 8.44673C42.0983 8.14489 42.0326 7.88743 41.9012 7.67436C41.7698 7.45774 41.5887 7.29084 41.3579 7.17365C41.1271 7.05646 40.8625 6.99787 40.5642 6.99787C40.2624 6.99787 39.9978 7.06001 39.7706 7.1843C39.5433 7.30504 39.3657 7.48082 39.2379 7.71165C39.1136 7.94247 39.0514 8.22301 39.0514 8.55327H36.5532C36.5532 7.81108 36.7201 7.1701 37.0539 6.63033C37.3877 6.09055 37.8565 5.67507 38.4602 5.38388C39.0674 5.08913 39.7723 4.94176 40.5749 4.94176C41.4023 4.94176 42.1214 5.08026 42.7322 5.35724C43.343 5.63423 43.8153 6.02131 44.1491 6.51847C44.4865 7.01207 44.6551 7.58558 44.6551 8.23899C44.6551 8.65447 44.5717 9.06641 44.4048 9.47479C44.2379 9.88317 43.9378 10.3342 43.5046 10.8278C43.0749 11.3214 42.4641 11.9126 41.6722 12.6016L40.3671 13.8054V13.8746H44.7883V16H36.713ZM48.9684 5.09091L50.9606 8.53729H51.0459L53.0593 5.09091H56.0103L52.7184 10.5455L56.1169 16H53.0913L51.0459 12.5163H50.9606L48.9152 16H45.9109L49.2934 10.5455L45.9961 5.09091H48.9684ZM60.0427 5.09091L62.0348 8.53729H62.1201L64.1336 5.09091H67.0846L63.7927 10.5455L67.1911 16H64.1655L62.1201 12.5163H62.0348L59.9894 16H56.9851L60.3676 10.5455L57.0704 5.09091H60.0427Z" fill="white"/>
</svg>
