<svg width="73" height="73" viewBox="0 0 73 73" fill="none" xmlns="http://www.w3.org/2000/svg">
<rect width="73" height="73" rx="5" fill="#F7A336"/>
<path d="M0 4.99999C0 2.23857 2.23858 0 5 0H68C70.7614 0 73 2.23858 73 5V21.15H0V4.99999Z" fill="black"/>
<path d="M22.8363 54.2386C21.5067 54.2386 20.3278 54.0114 19.2994 53.5568C18.2766 53.0966 17.4698 52.4631 16.8789 51.6562C16.288 50.8494 15.9869 49.9205 15.9755 48.8693H20.2198C20.2369 49.25 20.359 49.5881 20.5863 49.8835C20.8136 50.1733 21.1232 50.4006 21.5153 50.5653C21.9073 50.7301 22.3533 50.8125 22.8533 50.8125C23.3533 50.8125 23.7937 50.7244 24.1744 50.5483C24.5607 50.3665 24.8619 50.1193 25.0778 49.8068C25.2937 49.4886 25.3988 49.125 25.3931 48.7159C25.3988 48.3068 25.2823 47.9432 25.0437 47.625C24.805 47.3068 24.467 47.0597 24.0295 46.8835C23.5977 46.7074 23.0863 46.6193 22.4954 46.6193H20.7994V43.6193H22.4954C23.0124 43.6193 23.467 43.5341 23.859 43.3636C24.2567 43.1932 24.5664 42.9545 24.788 42.6477C25.0096 42.3352 25.1175 41.9773 25.1119 41.5739C25.1175 41.1818 25.0238 40.8381 24.8306 40.5426C24.6431 40.2415 24.3789 40.0085 24.038 39.8438C23.7028 39.679 23.3136 39.5966 22.8704 39.5966C22.4045 39.5966 21.9812 39.679 21.6005 39.8438C21.2255 40.0085 20.9272 40.2415 20.7056 40.5426C20.484 40.8437 20.3675 41.1932 20.3562 41.5909H16.3249C16.3363 40.5511 16.6261 39.6364 17.1942 38.8466C17.7624 38.0511 18.5352 37.429 19.5124 36.9801C20.4954 36.5312 21.6147 36.3068 22.8704 36.3068C24.1204 36.3068 25.2198 36.5256 26.1687 36.9631C27.1175 37.4006 27.8562 37.9972 28.3846 38.7528C28.913 39.5028 29.1772 40.3523 29.1772 41.3011C29.1829 42.2841 28.8619 43.0937 28.2141 43.7301C27.5721 44.3665 26.7454 44.7585 25.734 44.9062V45.0426C27.0863 45.2017 28.1062 45.6392 28.7937 46.3551C29.4869 47.071 29.8306 47.9659 29.8249 49.0398C29.8249 50.0511 29.5266 50.9489 28.93 51.733C28.3391 52.5114 27.5153 53.125 26.4585 53.5739C25.4073 54.017 24.1999 54.2386 22.8363 54.2386ZM40.2759 36.5455V54H36.0657V40.483H35.9634L32.06 42.8693V39.2216L36.364 36.5455H40.2759ZM43.5977 39.9716V36.5455H58.3505V39.9716H53.0579V54H48.8988V39.9716H43.5977Z" fill="white"/>
<path d="M14.5328 17V3.90909H19.9916C20.9717 3.90909 21.792 4.04758 22.4525 4.32457C23.1173 4.60156 23.6159 4.98935 23.9482 5.48793C24.2849 5.98651 24.4532 6.56392 24.4532 7.22017C24.4532 7.71875 24.3488 8.16406 24.14 8.55611C23.9312 8.94389 23.6436 9.26562 23.2771 9.52131C22.9106 9.77699 22.4866 9.95597 22.0051 10.0582V10.1861C22.5335 10.2116 23.0214 10.3544 23.4688 10.6143C23.9205 10.8743 24.2828 11.2365 24.5555 11.701C24.8282 12.1612 24.9646 12.7067 24.9646 13.3374C24.9646 14.0405 24.7856 14.669 24.4276 15.223C24.0697 15.7727 23.5519 16.2074 22.8744 16.527C22.1968 16.8423 21.3744 17 20.407 17H14.5328ZM17.6968 14.4496H19.6528C20.3389 14.4496 20.8438 14.3196 21.1677 14.0597C21.4958 13.7997 21.6599 13.4375 21.6599 12.973C21.6599 12.6364 21.5811 12.3466 21.4234 12.1037C21.2657 11.8565 21.042 11.6669 20.7522 11.5348C20.4624 11.3984 20.1151 11.3303 19.7103 11.3303H17.6968V14.4496ZM17.6968 9.29119H19.4482C19.7934 9.29119 20.1002 9.23366 20.3687 9.11861C20.6372 9.00355 20.846 8.83736 20.9951 8.62003C21.1485 8.4027 21.2252 8.14062 21.2252 7.83381C21.2252 7.39489 21.0697 7.04972 20.7586 6.7983C20.4475 6.54688 20.0278 6.42116 19.4994 6.42116H17.6968V9.29119ZM26.4859 17V3.90909H29.6499V9.4446H29.8225L34.1499 3.90909H37.8765L33.2359 9.75142L37.9596 17H34.1755L30.9156 11.8544L29.6499 13.4524V17H26.4859ZM39.6551 17L44.9349 6.54261V6.45952H38.7602V3.90909H48.2077V6.47869L42.9086 17H39.6551ZM49.9447 17V14.7244L54.7195 10.544C55.0775 10.2202 55.3822 9.92401 55.6336 9.65554C55.885 9.38281 56.0768 9.11009 56.2089 8.83736C56.341 8.56037 56.407 8.25994 56.407 7.93608C56.407 7.57386 56.3282 7.26491 56.1705 7.00923C56.0129 6.74929 55.7955 6.54901 55.5186 6.40838C55.2416 6.26776 54.9241 6.19744 54.5661 6.19744C54.2039 6.19744 53.8865 6.27202 53.6137 6.42116C53.341 6.56605 53.1279 6.77699 52.9745 7.05398C52.8254 7.33097 52.7508 7.66761 52.7508 8.06392H49.7529C49.7529 7.1733 49.9532 6.40412 50.3538 5.75639C50.7544 5.10866 51.3169 4.61008 52.0413 4.26065C52.77 3.90696 53.6159 3.73011 54.5789 3.73011C55.5718 3.73011 56.4347 3.89631 57.1677 4.22869C57.9007 4.56108 58.4674 5.02557 58.868 5.62216C59.2728 6.21449 59.4752 6.9027 59.4752 7.68679C59.4752 8.18537 59.3751 8.67969 59.1748 9.16974C58.9745 9.6598 58.6144 10.201 58.0945 10.7933C57.5789 11.3857 56.846 12.0952 55.8957 12.9219L54.3296 14.3665V14.4496H59.635V17H49.9447Z" fill="white"/>
</svg>
