<svg width="73" height="73" viewBox="0 0 73 73" fill="none" xmlns="http://www.w3.org/2000/svg">
<rect width="73" height="73" rx="5" fill="#F7A336"/>
<path d="M0 4.99999C0 2.23857 2.23858 0 5 0H68C70.7614 0 73 2.23858 73 5V21.15H0V4.99999Z" fill="black"/>
<path d="M22.2035 54.2386C20.8739 54.2386 19.695 54.0114 18.6665 53.5568C17.6438 53.0966 16.837 52.4631 16.2461 51.6562C15.6552 50.8494 15.354 49.9205 15.3427 48.8693H19.587C19.604 49.25 19.7262 49.5881 19.9535 49.8835C20.1808 50.1733 20.4904 50.4006 20.8825 50.5653C21.2745 50.7301 21.7205 50.8125 22.2205 50.8125C22.7205 50.8125 23.1609 50.7244 23.5415 50.5483C23.9279 50.3665 24.229 50.1193 24.445 49.8068C24.6609 49.4886 24.766 49.125 24.7603 48.7159C24.766 48.3068 24.6495 47.9432 24.4109 47.625C24.1722 47.3068 23.8342 47.0597 23.3967 46.8835C22.9648 46.7074 22.4535 46.6193 21.8626 46.6193H20.1665V43.6193H21.8626C22.3796 43.6193 22.8342 43.5341 23.2262 43.3636C23.6239 43.1932 23.9336 42.9545 24.1552 42.6477C24.3768 42.3352 24.4847 41.9773 24.479 41.5739C24.4847 41.1818 24.391 40.8381 24.1978 40.5426C24.0103 40.2415 23.7461 40.0085 23.4052 39.8438C23.07 39.679 22.6808 39.5966 22.2376 39.5966C21.7717 39.5966 21.3484 39.679 20.9677 39.8438C20.5927 40.0085 20.2944 40.2415 20.0728 40.5426C19.8512 40.8437 19.7347 41.1932 19.7234 41.5909H15.6921C15.7035 40.5511 15.9933 39.6364 16.5614 38.8466C17.1296 38.0511 17.9023 37.429 18.8796 36.9801C19.8626 36.5312 20.9819 36.3068 22.2376 36.3068C23.4876 36.3068 24.587 36.5256 25.5359 36.9631C26.4847 37.4006 27.2234 37.9972 27.7518 38.7528C28.2802 39.5028 28.5444 40.3523 28.5444 41.3011C28.5501 42.2841 28.229 43.0937 27.5813 43.7301C26.9393 44.3665 26.1126 44.7585 25.1012 44.9062V45.0426C26.4535 45.2017 27.4734 45.6392 28.1609 46.3551C28.854 47.071 29.1978 47.9659 29.1921 49.0398C29.1921 50.0511 28.8938 50.9489 28.2972 51.733C27.7063 52.5114 26.8825 53.125 25.8256 53.5739C24.7745 54.017 23.5671 54.2386 22.2035 54.2386ZM39.6431 36.5455V54H35.4329V40.483H35.3306L31.4272 42.8693V39.2216L35.7312 36.5455H39.6431ZM58.391 36.5455V54H54.8114L47.8654 43.9261H47.7546V54H43.5359V36.5455H47.1665L54.0359 46.6023H54.1808V36.5455H58.391Z" fill="white"/>
<path d="M14.5328 17V3.90909H19.9916C20.9717 3.90909 21.792 4.04758 22.4525 4.32457C23.1173 4.60156 23.6159 4.98935 23.9482 5.48793C24.2849 5.98651 24.4532 6.56392 24.4532 7.22017C24.4532 7.71875 24.3488 8.16406 24.14 8.55611C23.9312 8.94389 23.6436 9.26562 23.2771 9.52131C22.9106 9.77699 22.4866 9.95597 22.0051 10.0582V10.1861C22.5335 10.2116 23.0214 10.3544 23.4688 10.6143C23.9205 10.8743 24.2828 11.2365 24.5555 11.701C24.8282 12.1612 24.9646 12.7067 24.9646 13.3374C24.9646 14.0405 24.7856 14.669 24.4276 15.223C24.0697 15.7727 23.5519 16.2074 22.8744 16.527C22.1968 16.8423 21.3744 17 20.407 17H14.5328ZM17.6968 14.4496H19.6528C20.3389 14.4496 20.8438 14.3196 21.1677 14.0597C21.4958 13.7997 21.6599 13.4375 21.6599 12.973C21.6599 12.6364 21.5811 12.3466 21.4234 12.1037C21.2657 11.8565 21.042 11.6669 20.7522 11.5348C20.4624 11.3984 20.1151 11.3303 19.7103 11.3303H17.6968V14.4496ZM17.6968 9.29119H19.4482C19.7934 9.29119 20.1002 9.23366 20.3687 9.11861C20.6372 9.00355 20.846 8.83736 20.9951 8.62003C21.1485 8.4027 21.2252 8.14062 21.2252 7.83381C21.2252 7.39489 21.0697 7.04972 20.7586 6.7983C20.4475 6.54688 20.0278 6.42116 19.4994 6.42116H17.6968V9.29119ZM26.4859 17V3.90909H29.6499V9.4446H29.8225L34.1499 3.90909H37.8765L33.2359 9.75142L37.9596 17H34.1755L30.9156 11.8544L29.6499 13.4524V17H26.4859ZM39.6551 17L44.9349 6.54261V6.45952H38.7602V3.90909H48.2077V6.47869L42.9086 17H39.6551ZM49.9447 17V14.7244L54.7195 10.544C55.0775 10.2202 55.3822 9.92401 55.6336 9.65554C55.885 9.38281 56.0768 9.11009 56.2089 8.83736C56.341 8.56037 56.407 8.25994 56.407 7.93608C56.407 7.57386 56.3282 7.26491 56.1705 7.00923C56.0129 6.74929 55.7955 6.54901 55.5186 6.40838C55.2416 6.26776 54.9241 6.19744 54.5661 6.19744C54.2039 6.19744 53.8865 6.27202 53.6137 6.42116C53.341 6.56605 53.1279 6.77699 52.9745 7.05398C52.8254 7.33097 52.7508 7.66761 52.7508 8.06392H49.7529C49.7529 7.1733 49.9532 6.40412 50.3538 5.75639C50.7544 5.10866 51.3169 4.61008 52.0413 4.26065C52.77 3.90696 53.6159 3.73011 54.5789 3.73011C55.5718 3.73011 56.4347 3.89631 57.1677 4.22869C57.9007 4.56108 58.4674 5.02557 58.868 5.62216C59.2728 6.21449 59.4752 6.9027 59.4752 7.68679C59.4752 8.18537 59.3751 8.67969 59.1748 9.16974C58.9745 9.6598 58.6144 10.201 58.0945 10.7933C57.5789 11.3857 56.846 12.0952 55.8957 12.9219L54.3296 14.3665V14.4496H59.635V17H49.9447Z" fill="white"/>
</svg>
