<svg width="73" height="73" viewBox="0 0 73 73" fill="none" xmlns="http://www.w3.org/2000/svg">
<path d="M0 5C0 2.23858 2.23858 0 5 0H68C70.7614 0 73 2.23858 73 5V15.8642C73 18.6256 70.7614 20.8642 68 20.8642H5C2.23857 20.8642 0 18.6256 0 15.8642V5Z" fill="black"/>
<path d="M8.88139 16.9458V3.85489H18.0092V6.42449H12.0455V9.10915H17.5426V11.6851H12.0455V14.3762H18.0092V16.9458H8.88139ZM27.0668 7.77961C27.0241 7.31086 26.8345 6.94651 26.4979 6.68657C26.1655 6.42236 25.6903 6.29026 25.0724 6.29026C24.6634 6.29026 24.3224 6.34353 24.0497 6.45006C23.777 6.5566 23.5724 6.70361 23.4361 6.89111C23.2997 7.07435 23.2294 7.28529 23.2251 7.52393C23.2166 7.71995 23.255 7.89253 23.3402 8.04168C23.4297 8.19083 23.5575 8.32293 23.7237 8.43799C23.8942 8.54878 24.0987 8.64679 24.3374 8.73202C24.576 8.81725 24.8445 8.89182 25.1428 8.95574L26.2678 9.21143C26.9155 9.35205 27.4865 9.53955 27.9808 9.77393C28.4794 10.0083 28.897 10.2874 29.2337 10.6113C29.5746 10.9351 29.8324 11.308 30.0071 11.7299C30.1818 12.1518 30.2713 12.6248 30.2756 13.1489C30.2713 13.9756 30.0625 14.6851 29.6491 15.2775C29.2358 15.8698 28.6413 16.3236 27.8658 16.639C27.0945 16.9543 26.1634 17.112 25.0724 17.112C23.9773 17.112 23.0227 16.9479 22.2088 16.6198C21.3949 16.2917 20.7621 15.7931 20.3104 15.1241C19.8587 14.455 19.6264 13.6092 19.6136 12.5864H22.6435C22.669 13.0083 22.782 13.3599 22.9822 13.6411C23.1825 13.9224 23.4574 14.1354 23.8068 14.2803C24.1605 14.4252 24.5696 14.4976 25.0341 14.4976C25.4602 14.4976 25.8224 14.4401 26.1207 14.3251C26.4233 14.21 26.6555 14.0502 26.8175 13.8457C26.9794 13.6411 27.0625 13.4067 27.0668 13.1425C27.0625 12.8954 26.9858 12.6844 26.8366 12.5097C26.6875 12.3307 26.4574 12.1773 26.1463 12.0495C25.8395 11.9174 25.4474 11.7959 24.9702 11.6851L23.6023 11.3655C22.4688 11.1056 21.576 10.6859 20.924 10.1063C20.272 9.5225 19.9482 8.73415 19.9524 7.74126C19.9482 6.9316 20.1655 6.22208 20.6044 5.6127C21.0433 5.00333 21.6506 4.52819 22.4261 4.18728C23.2017 3.84637 24.0859 3.67591 25.0788 3.67591C26.093 3.67591 26.973 3.8485 27.7188 4.19367C28.4688 4.53458 29.0504 5.01398 29.4638 5.63188C29.8771 6.24978 30.0881 6.96569 30.0966 7.77961H27.0668ZM31.8736 16.9458V3.85489H37.2812C38.2614 3.85489 39.1072 4.04665 39.8189 4.43018C40.5348 4.80944 41.0866 5.33998 41.4744 6.02179C41.8622 6.69935 42.0561 7.4877 42.0561 8.38685C42.0561 9.29026 41.858 10.0807 41.4616 10.7583C41.0696 11.4316 40.5092 11.9536 39.7805 12.3244C39.0518 12.6951 38.1868 12.8805 37.1854 12.8805H33.8487V10.3876H36.5973C37.0746 10.3876 37.473 10.3045 37.7926 10.1383C38.1165 9.97208 38.3615 9.73983 38.5277 9.44154C38.6939 9.13898 38.777 8.78742 38.777 8.38685C38.777 7.98202 38.6939 7.63259 38.5277 7.33856C38.3615 7.04026 38.1165 6.81015 37.7926 6.64822C37.4688 6.48628 37.0703 6.40532 36.5973 6.40532H35.0376V16.9458H31.8736ZM48.5696 17.1248C47.5724 17.1248 46.6882 16.9543 45.9169 16.6134C45.1499 16.2682 44.5447 15.7931 44.1016 15.188C43.6584 14.5829 43.4325 13.8861 43.424 13.0978H46.6072C46.62 13.3833 46.7116 13.6369 46.8821 13.8584C47.0526 14.0758 47.2848 14.2462 47.5788 14.3698C47.8729 14.4934 48.2074 14.5552 48.5824 14.5552C48.9574 14.5552 49.2876 14.4891 49.5732 14.357C49.8629 14.2207 50.0888 14.0353 50.2507 13.8009C50.4126 13.5623 50.4915 13.2896 50.4872 12.9827C50.4915 12.6759 50.4041 12.4032 50.2251 12.1646C50.0462 11.9259 49.7926 11.7405 49.4645 11.6084C49.1406 11.4763 48.7571 11.4103 48.3139 11.4103H47.0419V9.16029H48.3139C48.7017 9.16029 49.0426 9.09637 49.3366 8.96853C49.6349 8.84069 49.8672 8.66171 50.0334 8.4316C50.1996 8.19722 50.2805 7.92876 50.2763 7.6262C50.2805 7.33216 50.2102 7.07435 50.0653 6.85276C49.9247 6.62691 49.7266 6.45219 49.4709 6.32861C49.2195 6.20503 48.9276 6.14324 48.5952 6.14324C48.2457 6.14324 47.9283 6.20503 47.6428 6.32861C47.3615 6.45219 47.1378 6.62691 46.9716 6.85276C46.8054 7.07861 46.718 7.34069 46.7095 7.63898H43.6861C43.6946 6.85915 43.9119 6.17307 44.3381 5.58074C44.7642 4.98415 45.3438 4.51753 46.0767 4.18089C46.8139 3.84424 47.6534 3.67591 48.5952 3.67591C49.5327 3.67591 50.3572 3.83998 51.0689 4.1681C51.7805 4.49623 52.3345 4.94367 52.7308 5.51043C53.1271 6.07293 53.3253 6.71001 53.3253 7.42165C53.3295 8.15887 53.0888 8.76611 52.603 9.24339C52.1214 9.72066 51.5014 10.0147 50.7429 10.1255V10.2278C51.7571 10.3471 52.522 10.6752 53.0376 11.2121C53.5575 11.7491 53.8153 12.4202 53.8111 13.2256C53.8111 13.9842 53.5874 14.6574 53.1399 15.2455C52.6967 15.8293 52.0788 16.2896 51.2862 16.6262C50.4979 16.9586 49.5923 17.1248 48.5696 17.1248ZM55.5961 16.9458V14.6702L60.3709 10.4898C60.7289 10.166 61.0336 9.86981 61.285 9.60134C61.5364 9.32861 61.7282 9.05589 61.8603 8.78316C61.9924 8.50617 62.0584 8.20574 62.0584 7.88188C62.0584 7.51966 61.9796 7.21072 61.8219 6.95503C61.6642 6.69509 61.4469 6.49481 61.1699 6.35418C60.8929 6.21356 60.5755 6.14324 60.2175 6.14324C59.8553 6.14324 59.5378 6.21782 59.2651 6.36697C58.9924 6.51185 58.7793 6.72279 58.6259 6.99978C58.4767 7.27677 58.4022 7.61341 58.4022 8.00972H55.4043C55.4043 7.1191 55.6046 6.34992 56.0051 5.70219C56.4057 5.05447 56.9682 4.55589 57.6926 4.20645C58.4213 3.85276 59.2672 3.67591 60.2303 3.67591C61.2232 3.67591 62.0861 3.84211 62.8191 4.17449C63.552 4.50688 64.1188 4.97137 64.5194 5.56796C64.9242 6.16029 65.1266 6.8485 65.1266 7.63259C65.1266 8.13117 65.0265 8.62549 64.8262 9.11554C64.6259 9.6056 64.2658 10.1468 63.7459 10.7391C63.2303 11.3315 62.4973 12.041 61.5471 12.8677L59.981 14.3123V14.3954H65.2864V16.9458H55.5961Z" fill="white"/>
<rect y="0.986328" width="73" height="72.0135" rx="5" fill="#0EA0DE"/>
<path d="M0 5.98633C0 3.2249 2.23858 0.986328 5 0.986328H68C70.7614 0.986328 73 3.2249 73 5.98633V21.8505H0V5.98633Z" fill="black"/>
<path d="M8.88139 17.9326V4.84171H18.0092V7.41131H12.0455V10.096H17.5426V12.672H12.0455V15.363H18.0092V17.9326H8.88139ZM27.0668 8.76642C27.0241 8.29767 26.8345 7.93333 26.4979 7.67338C26.1655 7.40918 25.6903 7.27708 25.0724 7.27708C24.6634 7.27708 24.3224 7.33034 24.0497 7.43688C23.777 7.54341 23.5724 7.69043 23.4361 7.87793C23.2997 8.06117 23.2294 8.27211 23.2251 8.51074C23.2166 8.70676 23.255 8.87935 23.3402 9.0285C23.4297 9.17765 23.5575 9.30975 23.7237 9.4248C23.8942 9.5356 24.0987 9.63361 24.3374 9.71884C24.576 9.80407 24.8445 9.87864 25.1428 9.94256L26.2678 10.1982C26.9155 10.3389 27.4865 10.5264 27.9808 10.7607C28.4794 10.9951 28.897 11.2742 29.2337 11.5981C29.5746 11.922 29.8324 12.2948 30.0071 12.7167C30.1818 13.1386 30.2713 13.6116 30.2756 14.1357C30.2713 14.9624 30.0625 15.672 29.6491 16.2643C29.2358 16.8566 28.6413 17.3105 27.8658 17.6258C27.0945 17.9411 26.1634 18.0988 25.0724 18.0988C23.9773 18.0988 23.0227 17.9347 22.2088 17.6066C21.3949 17.2785 20.7621 16.7799 20.3104 16.1109C19.8587 15.4419 19.6264 14.596 19.6136 13.5732H22.6435C22.669 13.9951 22.782 14.3467 22.9822 14.6279C23.1825 14.9092 23.4574 15.1222 23.8068 15.2671C24.1605 15.412 24.5696 15.4845 25.0341 15.4845C25.4602 15.4845 25.8224 15.4269 26.1207 15.3119C26.4233 15.1968 26.6555 15.037 26.8175 14.8325C26.9794 14.6279 27.0625 14.3936 27.0668 14.1293C27.0625 13.8822 26.9858 13.6713 26.8366 13.4965C26.6875 13.3176 26.4574 13.1642 26.1463 13.0363C25.8395 12.9042 25.4474 12.7828 24.9702 12.672L23.6023 12.3524C22.4688 12.0924 21.576 11.6727 20.924 11.0931C20.272 10.5093 19.9482 9.72097 19.9524 8.72807C19.9482 7.91841 20.1655 7.2089 20.6044 6.59952C21.0433 5.99015 21.6506 5.515 22.4261 5.17409C23.2017 4.83319 24.0859 4.66273 25.0788 4.66273C26.093 4.66273 26.973 4.83532 27.7188 5.18049C28.4688 5.5214 29.0504 6.0008 29.4638 6.6187C29.8771 7.23659 30.0881 7.9525 30.0966 8.76642H27.0668ZM31.8736 17.9326V4.84171H37.2812C38.2614 4.84171 39.1072 5.03347 39.8189 5.41699C40.5348 5.79625 41.0866 6.32679 41.4744 7.00861C41.8622 7.68617 42.0561 8.47452 42.0561 9.37367C42.0561 10.2771 41.858 11.0676 41.4616 11.7451C41.0696 12.4184 40.5092 12.9404 39.7805 13.3112C39.0518 13.6819 38.1868 13.8673 37.1854 13.8673H33.8487V11.3744H36.5973C37.0746 11.3744 37.473 11.2913 37.7926 11.1251C38.1165 10.9589 38.3615 10.7267 38.5277 10.4284C38.6939 10.1258 38.777 9.77424 38.777 9.37367C38.777 8.96884 38.6939 8.61941 38.5277 8.32537C38.3615 8.02708 38.1165 7.79696 37.7926 7.63503C37.4688 7.4731 37.0703 7.39213 36.5973 7.39213H35.0376V17.9326H31.8736ZM48.5696 18.1116C47.5724 18.1116 46.6882 17.9411 45.9169 17.6002C45.1499 17.2551 44.5447 16.7799 44.1016 16.1748C43.6584 15.5697 43.4325 14.873 43.424 14.0846H46.6072C46.62 14.3701 46.7116 14.6237 46.8821 14.8453C47.0526 15.0626 47.2848 15.233 47.5788 15.3566C47.8729 15.4802 48.2074 15.542 48.5824 15.542C48.9574 15.542 49.2876 15.4759 49.5732 15.3438C49.8629 15.2075 50.0888 15.0221 50.2507 14.7877C50.4126 14.5491 50.4915 14.2764 50.4872 13.9695C50.4915 13.6627 50.4041 13.39 50.2251 13.1514C50.0462 12.9127 49.7926 12.7274 49.4645 12.5953C49.1406 12.4632 48.7571 12.3971 48.3139 12.3971H47.0419V10.1471H48.3139C48.7017 10.1471 49.0426 10.0832 49.3366 9.95534C49.6349 9.8275 49.8672 9.64853 50.0334 9.41841C50.1996 9.18404 50.2805 8.91557 50.2763 8.61301C50.2805 8.31898 50.2102 8.06117 50.0653 7.83958C49.9247 7.61372 49.7266 7.43901 49.4709 7.31543C49.2195 7.19185 48.9276 7.13006 48.5952 7.13006C48.2457 7.13006 47.9283 7.19185 47.6428 7.31543C47.3615 7.43901 47.1378 7.61372 46.9716 7.83958C46.8054 8.06543 46.718 8.3275 46.7095 8.6258H43.6861C43.6946 7.84597 43.9119 7.15989 44.3381 6.56756C44.7642 5.97097 45.3438 5.50435 46.0767 5.1677C46.8139 4.83105 47.6534 4.66273 48.5952 4.66273C49.5327 4.66273 50.3572 4.82679 51.0689 5.15492C51.7805 5.48304 52.3345 5.93049 52.7308 6.49725C53.1271 7.05975 53.3253 7.69682 53.3253 8.40847C53.3295 9.14569 53.0888 9.75293 52.603 10.2302C52.1214 10.7075 51.5014 11.0015 50.7429 11.1123V11.2146C51.7571 11.3339 52.522 11.662 53.0376 12.199C53.5575 12.7359 53.8153 13.407 53.8111 14.2124C53.8111 14.971 53.5874 15.6443 53.1399 16.2323C52.6967 16.8161 52.0788 17.2764 51.2862 17.613C50.4979 17.9454 49.5923 18.1116 48.5696 18.1116ZM55.5961 17.9326V15.657L60.3709 11.4767C60.7289 11.1528 61.0336 10.8566 61.285 10.5882C61.5364 10.3154 61.7282 10.0427 61.8603 9.76997C61.9924 9.49299 62.0584 9.19256 62.0584 8.8687C62.0584 8.50648 61.9796 8.19753 61.8219 7.94185C61.6642 7.68191 61.4469 7.48162 61.1699 7.341C60.8929 7.20037 60.5755 7.13006 60.2175 7.13006C59.8553 7.13006 59.5378 7.20463 59.2651 7.35378C58.9924 7.49867 58.7793 7.70961 58.6259 7.98659C58.4767 8.26358 58.4022 8.60023 58.4022 8.99654H55.4043C55.4043 8.10591 55.6046 7.33674 56.0051 6.68901C56.4057 6.04128 56.9682 5.5427 57.6926 5.19327C58.4213 4.83958 59.2672 4.66273 60.2303 4.66273C61.2232 4.66273 62.0861 4.82892 62.8191 5.16131C63.552 5.4937 64.1188 5.95819 64.5194 6.55478C64.9242 7.14711 65.1266 7.83532 65.1266 8.61941C65.1266 9.11799 65.0265 9.6123 64.8262 10.1024C64.6259 10.5924 64.2658 11.1336 63.7459 11.7259C63.2303 12.3183 62.4973 13.0278 61.5471 13.8545L59.981 15.2991V15.3822H65.2864V17.9326H55.5961Z" fill="white"/>
</svg>
