<svg width="73" height="73" viewBox="0 0 73 73" fill="none" xmlns="http://www.w3.org/2000/svg">
<path d="M0 5C0 2.23857 2.23858 0 5 0H68C70.7614 0 73 2.23858 73 5V15.8642C73 18.6256 70.7614 20.8642 68 20.8642H5C2.23857 20.8642 0 18.6256 0 15.8642V5Z" fill="black"/>
<path d="M8.88139 16.9458V3.85489H18.0092V6.42449H12.0455V9.10915H17.5426V11.6851H12.0455V14.3762H18.0092V16.9458H8.88139ZM27.0668 7.77961C27.0241 7.31086 26.8345 6.94651 26.4979 6.68657C26.1655 6.42236 25.6903 6.29026 25.0724 6.29026C24.6634 6.29026 24.3224 6.34353 24.0497 6.45006C23.777 6.5566 23.5724 6.70361 23.4361 6.89111C23.2997 7.07435 23.2294 7.28529 23.2251 7.52393C23.2166 7.71995 23.255 7.89253 23.3402 8.04168C23.4297 8.19083 23.5575 8.32293 23.7237 8.43799C23.8942 8.54878 24.0987 8.64679 24.3374 8.73202C24.576 8.81725 24.8445 8.89182 25.1428 8.95574L26.2678 9.21143C26.9155 9.35205 27.4865 9.53955 27.9808 9.77393C28.4794 10.0083 28.897 10.2874 29.2337 10.6113C29.5746 10.9351 29.8324 11.308 30.0071 11.7299C30.1818 12.1518 30.2713 12.6248 30.2756 13.1489C30.2713 13.9756 30.0625 14.6851 29.6491 15.2775C29.2358 15.8698 28.6413 16.3236 27.8658 16.639C27.0945 16.9543 26.1634 17.112 25.0724 17.112C23.9773 17.112 23.0227 16.9479 22.2088 16.6198C21.3949 16.2917 20.7621 15.7931 20.3104 15.1241C19.8587 14.455 19.6264 13.6092 19.6136 12.5864H22.6435C22.669 13.0083 22.782 13.3599 22.9822 13.6411C23.1825 13.9224 23.4574 14.1354 23.8068 14.2803C24.1605 14.4252 24.5696 14.4976 25.0341 14.4976C25.4602 14.4976 25.8224 14.4401 26.1207 14.3251C26.4233 14.21 26.6555 14.0502 26.8175 13.8457C26.9794 13.6411 27.0625 13.4067 27.0668 13.1425C27.0625 12.8954 26.9858 12.6844 26.8366 12.5097C26.6875 12.3307 26.4574 12.1773 26.1463 12.0495C25.8395 11.9174 25.4474 11.7959 24.9702 11.6851L23.6023 11.3655C22.4688 11.1056 21.576 10.6859 20.924 10.1063C20.272 9.5225 19.9482 8.73415 19.9524 7.74126C19.9482 6.9316 20.1655 6.22208 20.6044 5.6127C21.0433 5.00333 21.6506 4.52819 22.4261 4.18728C23.2017 3.84637 24.0859 3.67591 25.0788 3.67591C26.093 3.67591 26.973 3.8485 27.7188 4.19367C28.4688 4.53458 29.0504 5.01398 29.4638 5.63188C29.8771 6.24978 30.0881 6.96569 30.0966 7.77961H27.0668ZM31.8736 16.9458V3.85489H37.2812C38.2614 3.85489 39.1072 4.04665 39.8189 4.43018C40.5348 4.80944 41.0866 5.33998 41.4744 6.02179C41.8622 6.69935 42.0561 7.4877 42.0561 8.38685C42.0561 9.29026 41.858 10.0807 41.4616 10.7583C41.0696 11.4316 40.5092 11.9536 39.7805 12.3244C39.0518 12.6951 38.1868 12.8805 37.1854 12.8805H33.8487V10.3876H36.5973C37.0746 10.3876 37.473 10.3045 37.7926 10.1383C38.1165 9.97208 38.3615 9.73983 38.5277 9.44154C38.6939 9.13898 38.777 8.78742 38.777 8.38685C38.777 7.98202 38.6939 7.63259 38.5277 7.33856C38.3615 7.04026 38.1165 6.81015 37.7926 6.64822C37.4688 6.48628 37.0703 6.40532 36.5973 6.40532H35.0376V16.9458H31.8736ZM48.5696 17.1248C47.5724 17.1248 46.6882 16.9543 45.9169 16.6134C45.1499 16.2682 44.5447 15.7931 44.1016 15.188C43.6584 14.5829 43.4325 13.8861 43.424 13.0978H46.6072C46.62 13.3833 46.7116 13.6369 46.8821 13.8584C47.0526 14.0758 47.2848 14.2462 47.5788 14.3698C47.8729 14.4934 48.2074 14.5552 48.5824 14.5552C48.9574 14.5552 49.2876 14.4891 49.5732 14.357C49.8629 14.2207 50.0888 14.0353 50.2507 13.8009C50.4126 13.5623 50.4915 13.2896 50.4872 12.9827C50.4915 12.6759 50.4041 12.4032 50.2251 12.1646C50.0462 11.9259 49.7926 11.7405 49.4645 11.6084C49.1406 11.4763 48.7571 11.4103 48.3139 11.4103H47.0419V9.16029H48.3139C48.7017 9.16029 49.0426 9.09637 49.3366 8.96853C49.6349 8.84069 49.8672 8.66171 50.0334 8.4316C50.1996 8.19722 50.2805 7.92876 50.2763 7.6262C50.2805 7.33216 50.2102 7.07435 50.0653 6.85276C49.9247 6.62691 49.7266 6.45219 49.4709 6.32861C49.2195 6.20503 48.9276 6.14324 48.5952 6.14324C48.2457 6.14324 47.9283 6.20503 47.6428 6.32861C47.3615 6.45219 47.1378 6.62691 46.9716 6.85276C46.8054 7.07861 46.718 7.34069 46.7095 7.63898H43.6861C43.6946 6.85915 43.9119 6.17307 44.3381 5.58074C44.7642 4.98415 45.3438 4.51753 46.0767 4.18089C46.8139 3.84424 47.6534 3.67591 48.5952 3.67591C49.5327 3.67591 50.3572 3.83998 51.0689 4.1681C51.7805 4.49623 52.3345 4.94367 52.7308 5.51043C53.1271 6.07293 53.3253 6.71001 53.3253 7.42165C53.3295 8.15887 53.0888 8.76611 52.603 9.24339C52.1214 9.72066 51.5014 10.0147 50.7429 10.1255V10.2278C51.7571 10.3471 52.522 10.6752 53.0376 11.2121C53.5575 11.7491 53.8153 12.4202 53.8111 13.2256C53.8111 13.9842 53.5874 14.6574 53.1399 15.2455C52.6967 15.8293 52.0788 16.2896 51.2862 16.6262C50.4979 16.9586 49.5923 17.1248 48.5696 17.1248ZM55.5961 16.9458V14.6702L60.3709 10.4898C60.7289 10.166 61.0336 9.86981 61.285 9.60134C61.5364 9.32861 61.7282 9.05589 61.8603 8.78316C61.9924 8.50617 62.0584 8.20574 62.0584 7.88188C62.0584 7.51966 61.9796 7.21072 61.8219 6.95503C61.6642 6.69509 61.4469 6.49481 61.1699 6.35418C60.8929 6.21356 60.5755 6.14324 60.2175 6.14324C59.8553 6.14324 59.5378 6.21782 59.2651 6.36697C58.9924 6.51185 58.7793 6.72279 58.6259 6.99978C58.4767 7.27677 58.4022 7.61341 58.4022 8.00972H55.4043C55.4043 7.1191 55.6046 6.34992 56.0051 5.70219C56.4057 5.05447 56.9682 4.55589 57.6926 4.20645C58.4213 3.85276 59.2672 3.67591 60.2303 3.67591C61.2232 3.67591 62.0861 3.84211 62.8191 4.17449C63.552 4.50688 64.1188 4.97137 64.5194 5.56796C64.9242 6.16029 65.1266 6.8485 65.1266 7.63259C65.1266 8.13117 65.0265 8.62549 64.8262 9.11554C64.6259 9.6056 64.2658 10.1468 63.7459 10.7391C63.2303 11.3315 62.4973 12.041 61.5471 12.8677L59.981 14.3123V14.3954H65.2864V16.9458H55.5961Z" fill="white"/>
<rect y="0.986328" width="73" height="72.0135" rx="5" fill="#0EA0DE"/>
<path d="M0 5.98633C0 3.2249 2.23858 0.986328 5 0.986328H68C70.7614 0.986328 73 3.2249 73 5.98633V21.8505H0V5.98633Z" fill="black"/>
<path d="M16.1018 45.1442C16.0455 44.9354 15.9626 44.7514 15.8532 44.5923C15.7439 44.4299 15.6096 44.2924 15.4506 44.1797C15.2915 44.067 15.1092 43.9825 14.9037 43.9261C14.6982 43.8665 14.4728 43.8366 14.2275 43.8366C13.7337 43.8366 13.3061 43.956 12.9449 44.1946C12.5869 44.4332 12.3102 44.7812 12.1146 45.2386C11.9191 45.6927 11.8213 46.2446 11.8213 46.8942C11.8213 47.5471 11.9157 48.1039 12.1047 48.5646C12.2936 49.0253 12.567 49.3767 12.925 49.6186C13.2829 49.8606 13.7171 49.9815 14.2275 49.9815C14.6783 49.9815 15.0595 49.9086 15.371 49.7628C15.6859 49.6136 15.9245 49.4032 16.0869 49.1314C16.2493 48.8596 16.3305 48.5398 16.3305 48.1719L16.7879 48.2266H14.3121V46.4318H18.702V47.7791C18.702 48.6906 18.5081 49.4711 18.1203 50.1207C17.7358 50.7704 17.2055 51.2692 16.5294 51.6172C15.8566 51.9652 15.0827 52.1392 14.2077 52.1392C13.2365 52.1392 12.3831 51.9287 11.6473 51.5078C10.9115 51.0869 10.3381 50.487 9.92711 49.7081C9.51613 48.9259 9.31064 47.9979 9.31064 46.924C9.31064 46.0888 9.43493 45.348 9.68351 44.7017C9.93208 44.0521 10.2784 43.5019 10.7226 43.0511C11.17 42.6004 11.6871 42.259 12.2737 42.027C12.8637 41.795 13.4984 41.679 14.1778 41.679C14.7678 41.679 15.3163 41.7635 15.8234 41.9325C16.3338 42.1016 16.7846 42.3402 17.1757 42.6484C17.5701 42.9567 17.8899 43.3229 18.1352 43.7472C18.3805 44.1714 18.5329 44.6371 18.5926 45.1442H16.1018ZM23.722 52.1442C22.9233 52.1442 22.2339 51.9867 21.6539 51.6719C21.0771 51.3537 20.633 50.9013 20.3215 50.3146C20.0132 49.7247 19.8591 49.0237 19.8591 48.2116C19.8591 47.4228 20.0149 46.7334 20.3264 46.1435C20.638 45.5502 21.0771 45.0895 21.6439 44.7614C22.2107 44.4299 22.8785 44.2642 23.6475 44.2642C24.191 44.2642 24.6882 44.3487 25.1389 44.5178C25.5897 44.6868 25.9791 44.937 26.3073 45.2685C26.6354 45.5999 26.8906 46.0092 27.0729 46.4964C27.2552 46.9804 27.3463 47.5355 27.3463 48.1619V48.7685H20.7093V47.3565H25.0843C25.0809 47.098 25.0196 46.8677 24.9003 46.6655C24.781 46.4633 24.6169 46.3059 24.4081 46.1932C24.2026 46.0772 23.9656 46.0192 23.6972 46.0192C23.4254 46.0192 23.1818 46.0805 22.9664 46.2031C22.7509 46.3224 22.5802 46.4865 22.4543 46.6953C22.3283 46.9008 22.262 47.1345 22.2554 47.3963V48.8331C22.2554 49.1446 22.3167 49.4181 22.4394 49.6534C22.562 49.8854 22.736 50.0661 22.9614 50.1953C23.1868 50.3246 23.4552 50.3892 23.7668 50.3892C23.9822 50.3892 24.1778 50.3594 24.3534 50.2997C24.5291 50.2401 24.6799 50.1522 24.8058 50.0362C24.9318 49.9202 25.0262 49.7777 25.0892 49.6087L27.3215 49.6733C27.2287 50.1738 27.0248 50.6096 26.71 50.9808C26.3984 51.3487 25.9891 51.6354 25.482 51.8409C24.9749 52.0431 24.3882 52.1442 23.722 52.1442ZM31.0191 47.6449V52H28.588V44.3636H30.8998V45.7656H30.9843C31.1533 45.2983 31.4417 44.9321 31.8493 44.6669C32.257 44.3984 32.7426 44.2642 33.306 44.2642C33.843 44.2642 34.3086 44.3852 34.703 44.6271C35.1008 44.8658 35.409 45.2005 35.6278 45.6314C35.8498 46.0589 35.9592 46.5594 35.9559 47.1328V52H33.5248V47.6101C33.5281 47.1858 33.4204 46.8544 33.2016 46.6158C32.9862 46.3771 32.6862 46.2578 32.3018 46.2578C32.0465 46.2578 31.8212 46.3142 31.6256 46.4268C31.4334 46.5362 31.2842 46.6937 31.1782 46.8991C31.0754 47.1046 31.0224 47.3532 31.0191 47.6449ZM41.0306 52.1442C40.2319 52.1442 39.5425 51.9867 38.9624 51.6719C38.3857 51.3537 37.9416 50.9013 37.6301 50.3146C37.3218 49.7247 37.1677 49.0237 37.1677 48.2116C37.1677 47.4228 37.3235 46.7334 37.635 46.1435C37.9466 45.5502 38.3857 45.0895 38.9525 44.7614C39.5193 44.4299 40.1871 44.2642 40.9561 44.2642C41.4996 44.2642 41.9968 44.3487 42.4475 44.5178C42.8983 44.6868 43.2877 44.937 43.6159 45.2685C43.944 45.5999 44.1992 46.0092 44.3815 46.4964C44.5638 46.9804 44.6549 47.5355 44.6549 48.1619V48.7685H38.0178V47.3565H42.3928C42.3895 47.098 42.3282 46.8677 42.2089 46.6655C42.0896 46.4633 41.9255 46.3059 41.7167 46.1932C41.5112 46.0772 41.2742 46.0192 41.0058 46.0192C40.734 46.0192 40.4904 46.0805 40.2749 46.2031C40.0595 46.3224 39.8888 46.4865 39.7629 46.6953C39.6369 46.9008 39.5706 47.1345 39.564 47.3963V48.8331C39.564 49.1446 39.6253 49.4181 39.748 49.6534C39.8706 49.8854 40.0446 50.0661 40.27 50.1953C40.4954 50.3246 40.7638 50.3892 41.0754 50.3892C41.2908 50.3892 41.4864 50.3594 41.662 50.2997C41.8377 50.2401 41.9885 50.1522 42.1144 50.0362C42.2404 49.9202 42.3348 49.7777 42.3978 49.6087L44.6301 49.6733C44.5373 50.1738 44.3334 50.6096 44.0186 50.9808C43.707 51.3487 43.2977 51.6354 42.7906 51.8409C42.2835 52.0431 41.6968 52.1442 41.0306 52.1442ZM45.8966 52V44.3636H48.2581V45.7557H48.3376C48.4768 45.2519 48.7039 44.8774 49.0187 44.6321C49.3336 44.3835 49.6998 44.2592 50.1175 44.2592C50.2301 44.2592 50.3461 44.2675 50.4655 44.2841C50.5848 44.2973 50.6958 44.3189 50.7986 44.3487V46.4616C50.6826 46.4219 50.5301 46.3904 50.3412 46.3672C50.1556 46.344 49.9898 46.3324 49.844 46.3324C49.5557 46.3324 49.2955 46.397 49.0635 46.5263C48.8348 46.6522 48.6541 46.8295 48.5216 47.0582C48.3923 47.2836 48.3277 47.5488 48.3277 47.8537V52H45.8966ZM51.7892 52V44.3636H54.2203V52H51.7892ZM53.0072 43.4737C52.6658 43.4737 52.3725 43.361 52.1272 43.1357C51.882 42.907 51.7593 42.6319 51.7593 42.3104C51.7593 41.9922 51.882 41.7204 52.1272 41.495C52.3725 41.2663 52.6658 41.152 53.0072 41.152C53.3519 41.152 53.6452 41.2663 53.8872 41.495C54.1324 41.7204 54.2551 41.9922 54.2551 42.3104C54.2551 42.6319 54.1324 42.907 53.8872 43.1357C53.6452 43.361 53.3519 43.4737 53.0072 43.4737ZM59.3323 52.1442C58.5269 52.1442 57.8358 51.9785 57.2591 51.647C56.6858 51.3156 56.2449 50.8549 55.9367 50.2649C55.6285 49.6716 55.4743 48.9856 55.4743 48.2067C55.4743 47.4245 55.6285 46.7384 55.9367 46.1484C56.2483 45.5552 56.6907 45.0928 57.2641 44.7614C57.8408 44.4299 58.5286 44.2642 59.3273 44.2642C60.0333 44.2642 60.6481 44.3918 61.1718 44.647C61.6988 44.9022 62.1098 45.2635 62.4047 45.7308C62.703 46.1948 62.8605 46.7401 62.877 47.3665H60.605C60.5586 46.9754 60.426 46.6688 60.2073 46.4467C59.9919 46.2247 59.7101 46.1136 59.3621 46.1136C59.0804 46.1136 58.8335 46.1932 58.6214 46.3523C58.4092 46.508 58.2435 46.7401 58.1242 47.0483C58.0082 47.3532 57.9502 47.7311 57.9502 48.1818C57.9502 48.6326 58.0082 49.0137 58.1242 49.3253C58.2435 49.6335 58.4092 49.8672 58.6214 50.0263C58.8335 50.1821 59.0804 50.2599 59.3621 50.2599C59.5875 50.2599 59.7864 50.2119 59.9587 50.1158C60.1344 50.0196 60.2786 49.8788 60.3912 49.6932C60.5039 49.5043 60.5752 49.2756 60.605 49.0071H62.877C62.8538 49.6368 62.6964 50.187 62.4047 50.6577C62.1164 51.1283 61.7104 51.4946 61.1867 51.7564C60.6663 52.0149 60.0482 52.1442 59.3323 52.1442Z" fill="white"/>
<path d="M8.88139 17.9326V4.84171H18.0092V7.41131H12.0455V10.096H17.5426V12.672H12.0455V15.363H18.0092V17.9326H8.88139ZM27.0668 8.76642C27.0241 8.29767 26.8345 7.93333 26.4979 7.67338C26.1655 7.40918 25.6903 7.27708 25.0724 7.27708C24.6634 7.27708 24.3224 7.33034 24.0497 7.43688C23.777 7.54341 23.5724 7.69043 23.4361 7.87793C23.2997 8.06117 23.2294 8.27211 23.2251 8.51074C23.2166 8.70676 23.255 8.87935 23.3402 9.0285C23.4297 9.17765 23.5575 9.30975 23.7237 9.4248C23.8942 9.5356 24.0987 9.63361 24.3374 9.71884C24.576 9.80407 24.8445 9.87864 25.1428 9.94256L26.2678 10.1982C26.9155 10.3389 27.4865 10.5264 27.9808 10.7607C28.4794 10.9951 28.897 11.2742 29.2337 11.5981C29.5746 11.922 29.8324 12.2948 30.0071 12.7167C30.1818 13.1386 30.2713 13.6116 30.2756 14.1357C30.2713 14.9624 30.0625 15.672 29.6491 16.2643C29.2358 16.8566 28.6413 17.3105 27.8658 17.6258C27.0945 17.9411 26.1634 18.0988 25.0724 18.0988C23.9773 18.0988 23.0227 17.9347 22.2088 17.6066C21.3949 17.2785 20.7621 16.7799 20.3104 16.1109C19.8587 15.4419 19.6264 14.596 19.6136 13.5732H22.6435C22.669 13.9951 22.782 14.3467 22.9822 14.6279C23.1825 14.9092 23.4574 15.1222 23.8068 15.2671C24.1605 15.412 24.5696 15.4845 25.0341 15.4845C25.4602 15.4845 25.8224 15.4269 26.1207 15.3119C26.4233 15.1968 26.6555 15.037 26.8175 14.8325C26.9794 14.6279 27.0625 14.3936 27.0668 14.1293C27.0625 13.8822 26.9858 13.6713 26.8366 13.4965C26.6875 13.3176 26.4574 13.1642 26.1463 13.0363C25.8395 12.9042 25.4474 12.7828 24.9702 12.672L23.6023 12.3524C22.4688 12.0924 21.576 11.6727 20.924 11.0931C20.272 10.5093 19.9482 9.72097 19.9524 8.72807C19.9482 7.91841 20.1655 7.2089 20.6044 6.59952C21.0433 5.99015 21.6506 5.515 22.4261 5.17409C23.2017 4.83319 24.0859 4.66273 25.0788 4.66273C26.093 4.66273 26.973 4.83532 27.7188 5.18049C28.4688 5.5214 29.0504 6.0008 29.4638 6.6187C29.8771 7.23659 30.0881 7.9525 30.0966 8.76642H27.0668ZM31.8736 17.9326V4.84171H37.2812C38.2614 4.84171 39.1072 5.03347 39.8189 5.41699C40.5348 5.79625 41.0866 6.32679 41.4744 7.00861C41.8622 7.68617 42.0561 8.47452 42.0561 9.37367C42.0561 10.2771 41.858 11.0676 41.4616 11.7451C41.0696 12.4184 40.5092 12.9404 39.7805 13.3112C39.0518 13.6819 38.1868 13.8673 37.1854 13.8673H33.8487V11.3744H36.5973C37.0746 11.3744 37.473 11.2913 37.7926 11.1251C38.1165 10.9589 38.3615 10.7267 38.5277 10.4284C38.6939 10.1258 38.777 9.77424 38.777 9.37367C38.777 8.96884 38.6939 8.61941 38.5277 8.32537C38.3615 8.02708 38.1165 7.79696 37.7926 7.63503C37.4688 7.4731 37.0703 7.39213 36.5973 7.39213H35.0376V17.9326H31.8736ZM48.5696 18.1116C47.5724 18.1116 46.6882 17.9411 45.9169 17.6002C45.1499 17.2551 44.5447 16.7799 44.1016 16.1748C43.6584 15.5697 43.4325 14.873 43.424 14.0846H46.6072C46.62 14.3701 46.7116 14.6237 46.8821 14.8453C47.0526 15.0626 47.2848 15.233 47.5788 15.3566C47.8729 15.4802 48.2074 15.542 48.5824 15.542C48.9574 15.542 49.2876 15.4759 49.5732 15.3438C49.8629 15.2075 50.0888 15.0221 50.2507 14.7877C50.4126 14.5491 50.4915 14.2764 50.4872 13.9695C50.4915 13.6627 50.4041 13.39 50.2251 13.1514C50.0462 12.9127 49.7926 12.7274 49.4645 12.5953C49.1406 12.4632 48.7571 12.3971 48.3139 12.3971H47.0419V10.1471H48.3139C48.7017 10.1471 49.0426 10.0832 49.3366 9.95534C49.6349 9.8275 49.8672 9.64853 50.0334 9.41841C50.1996 9.18404 50.2805 8.91557 50.2763 8.61301C50.2805 8.31898 50.2102 8.06117 50.0653 7.83958C49.9247 7.61372 49.7266 7.43901 49.4709 7.31543C49.2195 7.19185 48.9276 7.13006 48.5952 7.13006C48.2457 7.13006 47.9283 7.19185 47.6428 7.31543C47.3615 7.43901 47.1378 7.61372 46.9716 7.83958C46.8054 8.06543 46.718 8.3275 46.7095 8.6258H43.6861C43.6946 7.84597 43.9119 7.15989 44.3381 6.56756C44.7642 5.97097 45.3438 5.50435 46.0767 5.1677C46.8139 4.83105 47.6534 4.66273 48.5952 4.66273C49.5327 4.66273 50.3572 4.82679 51.0689 5.15492C51.7805 5.48304 52.3345 5.93049 52.7308 6.49725C53.1271 7.05975 53.3253 7.69682 53.3253 8.40847C53.3295 9.14569 53.0888 9.75293 52.603 10.2302C52.1214 10.7075 51.5014 11.0015 50.7429 11.1123V11.2146C51.7571 11.3339 52.522 11.662 53.0376 12.199C53.5575 12.7359 53.8153 13.407 53.8111 14.2124C53.8111 14.971 53.5874 15.6443 53.1399 16.2323C52.6967 16.8161 52.0788 17.2764 51.2862 17.613C50.4979 17.9454 49.5923 18.1116 48.5696 18.1116ZM55.5961 17.9326V15.657L60.3709 11.4767C60.7289 11.1528 61.0336 10.8566 61.285 10.5882C61.5364 10.3154 61.7282 10.0427 61.8603 9.76997C61.9924 9.49299 62.0584 9.19256 62.0584 8.8687C62.0584 8.50648 61.9796 8.19753 61.8219 7.94185C61.6642 7.68191 61.4469 7.48162 61.1699 7.341C60.8929 7.20037 60.5755 7.13006 60.2175 7.13006C59.8553 7.13006 59.5378 7.20463 59.2651 7.35378C58.9924 7.49867 58.7793 7.70961 58.6259 7.98659C58.4767 8.26358 58.4022 8.60023 58.4022 8.99654H55.4043C55.4043 8.10591 55.6046 7.33674 56.0051 6.68901C56.4057 6.04128 56.9682 5.5427 57.6926 5.19327C58.4213 4.83958 59.2672 4.66273 60.2303 4.66273C61.2232 4.66273 62.0861 4.82892 62.8191 5.16131C63.552 5.4937 64.1188 5.95819 64.5194 6.55478C64.9242 7.14711 65.1266 7.83532 65.1266 8.61941C65.1266 9.11799 65.0265 9.6123 64.8262 10.1024C64.6259 10.5924 64.2658 11.1336 63.7459 11.7259C63.2303 12.3183 62.4973 13.0278 61.5471 13.8545L59.981 15.2991V15.3822H65.2864V17.9326H55.5961Z" fill="white"/>
</svg>
