<svg width="73" height="73" viewBox="0 0 73 73" fill="none" xmlns="http://www.w3.org/2000/svg">
<rect width="73" height="73" rx="5" fill="#0EA0DE"/>
<path d="M0 4.99999C0 2.23857 2.23858 0 5 0H68C70.7614 0 73 2.23858 73 5V21.15H0V4.99999Z" fill="black"/>
<path d="M32.1815 41.7784C32.1246 41.1534 31.8718 40.6676 31.4229 40.321C30.9798 39.9688 30.3462 39.7926 29.5224 39.7926C28.9769 39.7926 28.5224 39.8636 28.1587 40.0057C27.7951 40.1477 27.5224 40.3438 27.3406 40.5938C27.1587 40.8381 27.065 41.1193 27.0593 41.4375C27.0479 41.6989 27.0991 41.929 27.2127 42.1278C27.332 42.3267 27.5025 42.5028 27.7241 42.6562C27.9513 42.804 28.2241 42.9347 28.5423 43.0483C28.8604 43.1619 29.2184 43.2614 29.6161 43.3466L31.1161 43.6875C31.9798 43.875 32.7411 44.125 33.4002 44.4375C34.065 44.75 34.6218 45.1222 35.0707 45.554C35.5252 45.9858 35.869 46.483 36.1019 47.0455C36.3349 47.608 36.4542 48.2386 36.4599 48.9375C36.4542 50.0398 36.1758 50.9858 35.6246 51.7756C35.0735 52.5653 34.2809 53.1705 33.2468 53.5909C32.2184 54.0114 30.9769 54.2216 29.5224 54.2216C28.0621 54.2216 26.7894 54.0028 25.7042 53.5653C24.619 53.1278 23.7752 52.4631 23.1729 51.571C22.5707 50.679 22.261 49.5511 22.244 48.1875H26.2837C26.3178 48.75 26.4684 49.2188 26.7354 49.5938C27.0025 49.9688 27.369 50.2528 27.8349 50.446C28.3065 50.6392 28.8519 50.7358 29.4712 50.7358C30.0394 50.7358 30.5224 50.6591 30.9201 50.5057C31.3235 50.3523 31.6332 50.1392 31.8491 49.8665C32.065 49.5937 32.1758 49.2812 32.1815 48.929C32.1758 48.5994 32.0735 48.3182 31.8746 48.0852C31.6758 47.8466 31.369 47.642 30.9542 47.4716C30.5451 47.2955 30.0224 47.1335 29.386 46.9858L27.5621 46.5597C26.0508 46.2131 24.8604 45.6534 23.9911 44.8807C23.1218 44.1023 22.69 43.0511 22.6957 41.7273C22.69 40.6477 22.9798 39.7017 23.565 38.8892C24.1502 38.0767 24.9599 37.4432 25.994 36.9886C27.0281 36.5341 28.207 36.3068 29.5309 36.3068C30.8832 36.3068 32.0565 36.5369 33.0508 36.9972C34.0508 37.4517 34.8263 38.0909 35.3775 38.9148C35.9286 39.7386 36.2099 40.6932 36.2212 41.7784H32.1815ZM38.5565 54V50.9659L44.9229 45.392C45.4002 44.9602 45.8065 44.5653 46.1417 44.2074C46.4769 43.8437 46.7326 43.4801 46.9087 43.1165C47.0849 42.7472 47.1729 42.3466 47.1729 41.9148C47.1729 41.4318 47.0678 41.0199 46.8576 40.679C46.6474 40.3324 46.3576 40.0653 45.9883 39.8778C45.619 39.6903 45.1957 39.5966 44.7184 39.5966C44.2354 39.5966 43.8121 39.696 43.4485 39.8949C43.0849 40.0881 42.8008 40.3693 42.5962 40.7386C42.3974 41.108 42.2979 41.5568 42.2979 42.0852H38.3008C38.3008 40.8977 38.5678 39.8722 39.1019 39.0085C39.636 38.1449 40.386 37.4801 41.3519 37.0142C42.3235 36.5426 43.4513 36.3068 44.7354 36.3068C46.0593 36.3068 47.2099 36.5284 48.1871 36.9716C49.1644 37.4148 49.9201 38.0341 50.4542 38.8295C50.994 39.6193 51.2639 40.5369 51.2639 41.5824C51.2639 42.2472 51.1303 42.9062 50.8633 43.5597C50.5962 44.2131 50.1161 44.9347 49.4229 45.7244C48.7354 46.5142 47.7582 47.4602 46.4911 48.5625L44.4031 50.4886V50.5994H51.4769V54H38.5565Z" fill="white"/>
<path d="M8.88139 17V3.90909H18.0092V6.47869H12.0455V9.16335H17.5426V11.7393H12.0455V14.4304H18.0092V17H8.88139ZM27.0668 7.83381C27.0241 7.36506 26.8345 7.00071 26.4979 6.74077C26.1655 6.47656 25.6903 6.34446 25.0724 6.34446C24.6634 6.34446 24.3224 6.39773 24.0497 6.50426C23.777 6.6108 23.5724 6.75781 23.4361 6.94531C23.2997 7.12855 23.2294 7.33949 23.2251 7.57812C23.2166 7.77415 23.255 7.94673 23.3402 8.09588C23.4297 8.24503 23.5575 8.37713 23.7237 8.49219C23.8942 8.60298 24.0987 8.70099 24.3374 8.78622C24.576 8.87145 24.8445 8.94602 25.1428 9.00994L26.2678 9.26562C26.9155 9.40625 27.4865 9.59375 27.9808 9.82812C28.4794 10.0625 28.897 10.3416 29.2337 10.6655C29.5746 10.9893 29.8324 11.3622 30.0071 11.7841C30.1818 12.206 30.2713 12.679 30.2756 13.2031C30.2713 14.0298 30.0625 14.7393 29.6491 15.3317C29.2358 15.924 28.6413 16.3778 27.8658 16.6932C27.0945 17.0085 26.1634 17.1662 25.0724 17.1662C23.9773 17.1662 23.0227 17.0021 22.2088 16.674C21.3949 16.3459 20.7621 15.8473 20.3104 15.1783C19.8587 14.5092 19.6264 13.6634 19.6136 12.6406H22.6435C22.669 13.0625 22.782 13.4141 22.9822 13.6953C23.1825 13.9766 23.4574 14.1896 23.8068 14.3345C24.1605 14.4794 24.5696 14.5518 25.0341 14.5518C25.4602 14.5518 25.8224 14.4943 26.1207 14.3793C26.4233 14.2642 26.6555 14.1044 26.8175 13.8999C26.9794 13.6953 27.0625 13.4609 27.0668 13.1967C27.0625 12.9496 26.9858 12.7386 26.8366 12.5639C26.6875 12.3849 26.4574 12.2315 26.1463 12.1037C25.8395 11.9716 25.4474 11.8501 24.9702 11.7393L23.6023 11.4197C22.4688 11.1598 21.576 10.7401 20.924 10.1605C20.272 9.5767 19.9482 8.78835 19.9524 7.79545C19.9482 6.9858 20.1655 6.27628 20.6044 5.6669C21.0433 5.05753 21.6506 4.58239 22.4261 4.24148C23.2017 3.90057 24.0859 3.73011 25.0788 3.73011C26.093 3.73011 26.973 3.9027 27.7188 4.24787C28.4688 4.58878 29.0504 5.06818 29.4638 5.68608C29.8771 6.30398 30.0881 7.01989 30.0966 7.83381H27.0668ZM31.8736 17V3.90909H37.2812C38.2614 3.90909 39.1072 4.10085 39.8189 4.48438C40.5348 4.86364 41.0866 5.39418 41.4744 6.07599C41.8622 6.75355 42.0561 7.5419 42.0561 8.44105C42.0561 9.34446 41.858 10.1349 41.4616 10.8125C41.0696 11.4858 40.5092 12.0078 39.7805 12.3786C39.0518 12.7493 38.1868 12.9347 37.1854 12.9347H33.8487V10.4418H36.5973C37.0746 10.4418 37.473 10.3587 37.7926 10.1925C38.1165 10.0263 38.3615 9.79403 38.5277 9.49574C38.6939 9.19318 38.777 8.84162 38.777 8.44105C38.777 8.03622 38.6939 7.68679 38.5277 7.39276C38.3615 7.09446 38.1165 6.86435 37.7926 6.70241C37.4688 6.54048 37.0703 6.45952 36.5973 6.45952H35.0376V17H31.8736ZM48.5696 17.179C47.5724 17.179 46.6882 17.0085 45.9169 16.6676C45.1499 16.3224 44.5447 15.8473 44.1016 15.2422C43.6584 14.6371 43.4325 13.9403 43.424 13.152H46.6072C46.62 13.4375 46.7116 13.6911 46.8821 13.9126C47.0526 14.13 47.2848 14.3004 47.5788 14.424C47.8729 14.5476 48.2074 14.6094 48.5824 14.6094C48.9574 14.6094 49.2876 14.5433 49.5732 14.4112C49.8629 14.2749 50.0888 14.0895 50.2507 13.8551C50.4126 13.6165 50.4915 13.3437 50.4872 13.0369C50.4915 12.7301 50.4041 12.4574 50.2251 12.2188C50.0462 11.9801 49.7926 11.7947 49.4645 11.6626C49.1406 11.5305 48.7571 11.4645 48.3139 11.4645H47.0419V9.21449H48.3139C48.7017 9.21449 49.0426 9.15057 49.3366 9.02273C49.6349 8.89489 49.8672 8.71591 50.0334 8.4858C50.1996 8.25142 50.2805 7.98295 50.2763 7.6804C50.2805 7.38636 50.2102 7.12855 50.0653 6.90696C49.9247 6.68111 49.7266 6.50639 49.4709 6.38281C49.2195 6.25923 48.9276 6.19744 48.5952 6.19744C48.2457 6.19744 47.9283 6.25923 47.6428 6.38281C47.3615 6.50639 47.1378 6.68111 46.9716 6.90696C46.8054 7.13281 46.718 7.39489 46.7095 7.69318H43.6861C43.6946 6.91335 43.9119 6.22727 44.3381 5.63494C44.7642 5.03835 45.3438 4.57173 46.0767 4.23509C46.8139 3.89844 47.6534 3.73011 48.5952 3.73011C49.5327 3.73011 50.3572 3.89418 51.0689 4.2223C51.7805 4.55043 52.3345 4.99787 52.7308 5.56463C53.1271 6.12713 53.3253 6.7642 53.3253 7.47585C53.3295 8.21307 53.0888 8.82031 52.603 9.29759C52.1214 9.77486 51.5014 10.0689 50.7429 10.1797V10.282C51.7571 10.4013 52.522 10.7294 53.0376 11.2663C53.5575 11.8033 53.8153 12.4744 53.8111 13.2798C53.8111 14.0384 53.5874 14.7116 53.1399 15.2997C52.6967 15.8835 52.0788 16.3437 51.2862 16.6804C50.4979 17.0128 49.5923 17.179 48.5696 17.179ZM55.5961 17V14.7244L60.3709 10.544C60.7289 10.2202 61.0336 9.92401 61.285 9.65554C61.5364 9.38281 61.7282 9.11009 61.8603 8.83736C61.9924 8.56037 62.0584 8.25994 62.0584 7.93608C62.0584 7.57386 61.9796 7.26491 61.8219 7.00923C61.6642 6.74929 61.4469 6.54901 61.1699 6.40838C60.8929 6.26776 60.5755 6.19744 60.2175 6.19744C59.8553 6.19744 59.5378 6.27202 59.2651 6.42116C58.9924 6.56605 58.7793 6.77699 58.6259 7.05398C58.4767 7.33097 58.4022 7.66761 58.4022 8.06392H55.4043C55.4043 7.1733 55.6046 6.40412 56.0051 5.75639C56.4057 5.10866 56.9682 4.61008 57.6926 4.26065C58.4213 3.90696 59.2672 3.73011 60.2303 3.73011C61.2232 3.73011 62.0861 3.89631 62.8191 4.22869C63.552 4.56108 64.1188 5.02557 64.5194 5.62216C64.9242 6.21449 65.1266 6.9027 65.1266 7.68679C65.1266 8.18537 65.0265 8.67969 64.8262 9.16974C64.6259 9.6598 64.2658 10.201 63.7459 10.7933C63.2303 11.3857 62.4973 12.0952 61.5471 12.9219L59.981 14.3665V14.4496H65.2864V17H55.5961Z" fill="white"/>
</svg>
