<svg width="73" height="73" viewBox="0 0 73 73" fill="none" xmlns="http://www.w3.org/2000/svg">
<rect width="73" height="73" rx="5" fill="#0EA0DE"/>
<path d="M0 4.99999C0 2.23857 2.23858 0 5 0H68C70.7614 0 73 2.23858 73 5V21.15H0V4.99999Z" fill="black"/>
<path d="M30.9968 42.8693H26.7354C26.6786 42.4318 26.5621 42.0369 26.386 41.6847C26.2099 41.3324 25.9769 41.0312 25.6871 40.7812C25.3974 40.5312 25.0536 40.3409 24.6559 40.2102C24.2638 40.0739 23.8292 40.0057 23.3519 40.0057C22.5053 40.0057 21.7752 40.2131 21.1616 40.6278C20.5536 41.0426 20.0849 41.642 19.7553 42.4261C19.4315 43.2102 19.2695 44.1591 19.2695 45.2727C19.2695 46.4318 19.4343 47.4034 19.7638 48.1875C20.0991 48.9659 20.5678 49.554 21.1701 49.9517C21.7781 50.3437 22.4968 50.5398 23.3263 50.5398C23.7923 50.5398 24.2156 50.4801 24.5962 50.3608C24.9826 50.2415 25.3207 50.0682 25.6104 49.8409C25.9059 49.608 26.1474 49.3267 26.3349 48.9972C26.5281 48.6619 26.6616 48.2841 26.7354 47.8636L30.9968 47.8892C30.9229 48.6619 30.6985 49.4233 30.3235 50.1733C29.9542 50.9233 29.4457 51.608 28.7979 52.2273C28.1502 52.8409 27.3604 53.3295 26.4286 53.6932C25.5025 54.0568 24.44 54.2386 23.2411 54.2386C21.6616 54.2386 20.2468 53.892 18.9968 53.1989C17.7525 52.5 16.7695 51.483 16.0479 50.1477C15.3263 48.8125 14.9656 47.1875 14.9656 45.2727C14.9656 43.3523 15.332 41.7244 16.065 40.3892C16.7979 39.054 17.7894 38.0398 19.0394 37.3466C20.2894 36.6534 21.69 36.3068 23.2411 36.3068C24.2979 36.3068 25.2752 36.4545 26.1729 36.75C27.0707 37.0398 27.8604 37.4659 28.5423 38.0284C29.2241 38.5852 29.7781 39.2699 30.2042 40.0824C30.6303 40.8949 30.8945 41.8239 30.9968 42.8693ZM40.3739 54.2386C39.4194 54.2386 38.5046 54.0852 37.6296 53.7784C36.7546 53.4659 35.9762 52.9716 35.2944 52.2955C34.6126 51.6136 34.0756 50.7216 33.6836 49.6193C33.2915 48.5114 33.0984 47.1619 33.104 45.571C33.1097 44.1335 33.2859 42.8437 33.6325 41.7017C33.979 40.554 34.4734 39.5795 35.1154 38.7784C35.7631 37.9773 36.5359 37.3665 37.4336 36.946C38.337 36.5199 39.3455 36.3068 40.4592 36.3068C41.6808 36.3068 42.7575 36.5455 43.6893 37.0227C44.6268 37.4943 45.3768 38.1307 45.9393 38.9318C46.5018 39.7273 46.8342 40.6136 46.9364 41.5909H42.7859C42.6609 41.0398 42.3853 40.6222 41.9592 40.3381C41.5387 40.0483 41.0387 39.9034 40.4592 39.9034C39.391 39.9034 38.5927 40.3665 38.0643 41.2926C37.5415 42.2187 37.2745 43.4574 37.2631 45.0085H37.3739C37.6126 44.4858 37.9563 44.0369 38.4052 43.6619C38.854 43.2869 39.3683 43 39.9478 42.8011C40.533 42.5966 41.1523 42.4943 41.8058 42.4943C42.8512 42.4943 43.7745 42.7358 44.5756 43.2188C45.3768 43.7017 46.0046 44.3636 46.4592 45.2045C46.9137 46.0398 47.1381 46.9972 47.1325 48.0767C47.1381 49.2926 46.854 50.3665 46.2802 51.2983C45.7063 52.2244 44.9109 52.946 43.8938 53.4631C42.8825 53.9801 41.7092 54.2386 40.3739 54.2386ZM40.3484 51C40.8654 51 41.3285 50.8778 41.7376 50.6335C42.1467 50.3892 42.4677 50.0568 42.7006 49.6364C42.9336 49.2159 43.0472 48.7415 43.0415 48.2131C43.0472 47.679 42.9336 47.2045 42.7006 46.7898C42.4734 46.375 42.1552 46.0455 41.7461 45.8011C41.3427 45.5568 40.8796 45.4347 40.3569 45.4347C39.9762 45.4347 39.6211 45.5057 39.2915 45.6477C38.962 45.7898 38.6751 45.9886 38.4308 46.2443C38.1921 46.4943 38.0046 46.7898 37.8683 47.1307C37.7319 47.4659 37.6609 47.8295 37.6552 48.2216C37.6609 48.7386 37.7802 49.2074 38.0131 49.6278C38.2461 50.0483 38.5643 50.3835 38.9677 50.6335C39.3711 50.8778 39.8313 51 40.3484 51ZM57.5962 36.5455V54H53.386V40.483H53.2837L49.3803 42.8693V39.2216L53.6843 36.5455H57.5962Z" fill="white"/>
<path d="M8.88139 17V3.90909H18.0092V6.47869H12.0455V9.16335H17.5426V11.7393H12.0455V14.4304H18.0092V17H8.88139ZM27.0668 7.83381C27.0241 7.36506 26.8345 7.00071 26.4979 6.74077C26.1655 6.47656 25.6903 6.34446 25.0724 6.34446C24.6634 6.34446 24.3224 6.39773 24.0497 6.50426C23.777 6.6108 23.5724 6.75781 23.4361 6.94531C23.2997 7.12855 23.2294 7.33949 23.2251 7.57812C23.2166 7.77415 23.255 7.94673 23.3402 8.09588C23.4297 8.24503 23.5575 8.37713 23.7237 8.49219C23.8942 8.60298 24.0987 8.70099 24.3374 8.78622C24.576 8.87145 24.8445 8.94602 25.1428 9.00994L26.2678 9.26562C26.9155 9.40625 27.4865 9.59375 27.9808 9.82812C28.4794 10.0625 28.897 10.3416 29.2337 10.6655C29.5746 10.9893 29.8324 11.3622 30.0071 11.7841C30.1818 12.206 30.2713 12.679 30.2756 13.2031C30.2713 14.0298 30.0625 14.7393 29.6491 15.3317C29.2358 15.924 28.6413 16.3778 27.8658 16.6932C27.0945 17.0085 26.1634 17.1662 25.0724 17.1662C23.9773 17.1662 23.0227 17.0021 22.2088 16.674C21.3949 16.3459 20.7621 15.8473 20.3104 15.1783C19.8587 14.5092 19.6264 13.6634 19.6136 12.6406H22.6435C22.669 13.0625 22.782 13.4141 22.9822 13.6953C23.1825 13.9766 23.4574 14.1896 23.8068 14.3345C24.1605 14.4794 24.5696 14.5518 25.0341 14.5518C25.4602 14.5518 25.8224 14.4943 26.1207 14.3793C26.4233 14.2642 26.6555 14.1044 26.8175 13.8999C26.9794 13.6953 27.0625 13.4609 27.0668 13.1967C27.0625 12.9496 26.9858 12.7386 26.8366 12.5639C26.6875 12.3849 26.4574 12.2315 26.1463 12.1037C25.8395 11.9716 25.4474 11.8501 24.9702 11.7393L23.6023 11.4197C22.4688 11.1598 21.576 10.7401 20.924 10.1605C20.272 9.5767 19.9482 8.78835 19.9524 7.79545C19.9482 6.9858 20.1655 6.27628 20.6044 5.6669C21.0433 5.05753 21.6506 4.58239 22.4261 4.24148C23.2017 3.90057 24.0859 3.73011 25.0788 3.73011C26.093 3.73011 26.973 3.9027 27.7188 4.24787C28.4688 4.58878 29.0504 5.06818 29.4638 5.68608C29.8771 6.30398 30.0881 7.01989 30.0966 7.83381H27.0668ZM31.8736 17V3.90909H37.2812C38.2614 3.90909 39.1072 4.10085 39.8189 4.48438C40.5348 4.86364 41.0866 5.39418 41.4744 6.07599C41.8622 6.75355 42.0561 7.5419 42.0561 8.44105C42.0561 9.34446 41.858 10.1349 41.4616 10.8125C41.0696 11.4858 40.5092 12.0078 39.7805 12.3786C39.0518 12.7493 38.1868 12.9347 37.1854 12.9347H33.8487V10.4418H36.5973C37.0746 10.4418 37.473 10.3587 37.7926 10.1925C38.1165 10.0263 38.3615 9.79403 38.5277 9.49574C38.6939 9.19318 38.777 8.84162 38.777 8.44105C38.777 8.03622 38.6939 7.68679 38.5277 7.39276C38.3615 7.09446 38.1165 6.86435 37.7926 6.70241C37.4688 6.54048 37.0703 6.45952 36.5973 6.45952H35.0376V17H31.8736ZM48.5696 17.179C47.5724 17.179 46.6882 17.0085 45.9169 16.6676C45.1499 16.3224 44.5447 15.8473 44.1016 15.2422C43.6584 14.6371 43.4325 13.9403 43.424 13.152H46.6072C46.62 13.4375 46.7116 13.6911 46.8821 13.9126C47.0526 14.13 47.2848 14.3004 47.5788 14.424C47.8729 14.5476 48.2074 14.6094 48.5824 14.6094C48.9574 14.6094 49.2876 14.5433 49.5732 14.4112C49.8629 14.2749 50.0888 14.0895 50.2507 13.8551C50.4126 13.6165 50.4915 13.3437 50.4872 13.0369C50.4915 12.7301 50.4041 12.4574 50.2251 12.2188C50.0462 11.9801 49.7926 11.7947 49.4645 11.6626C49.1406 11.5305 48.7571 11.4645 48.3139 11.4645H47.0419V9.21449H48.3139C48.7017 9.21449 49.0426 9.15057 49.3366 9.02273C49.6349 8.89489 49.8672 8.71591 50.0334 8.4858C50.1996 8.25142 50.2805 7.98295 50.2763 7.6804C50.2805 7.38636 50.2102 7.12855 50.0653 6.90696C49.9247 6.68111 49.7266 6.50639 49.4709 6.38281C49.2195 6.25923 48.9276 6.19744 48.5952 6.19744C48.2457 6.19744 47.9283 6.25923 47.6428 6.38281C47.3615 6.50639 47.1378 6.68111 46.9716 6.90696C46.8054 7.13281 46.718 7.39489 46.7095 7.69318H43.6861C43.6946 6.91335 43.9119 6.22727 44.3381 5.63494C44.7642 5.03835 45.3438 4.57173 46.0767 4.23509C46.8139 3.89844 47.6534 3.73011 48.5952 3.73011C49.5327 3.73011 50.3572 3.89418 51.0689 4.2223C51.7805 4.55043 52.3345 4.99787 52.7308 5.56463C53.1271 6.12713 53.3253 6.7642 53.3253 7.47585C53.3295 8.21307 53.0888 8.82031 52.603 9.29759C52.1214 9.77486 51.5014 10.0689 50.7429 10.1797V10.282C51.7571 10.4013 52.522 10.7294 53.0376 11.2663C53.5575 11.8033 53.8153 12.4744 53.8111 13.2798C53.8111 14.0384 53.5874 14.7116 53.1399 15.2997C52.6967 15.8835 52.0788 16.3437 51.2862 16.6804C50.4979 17.0128 49.5923 17.179 48.5696 17.179ZM55.5961 17V14.7244L60.3709 10.544C60.7289 10.2202 61.0336 9.92401 61.285 9.65554C61.5364 9.38281 61.7282 9.11009 61.8603 8.83736C61.9924 8.56037 62.0584 8.25994 62.0584 7.93608C62.0584 7.57386 61.9796 7.26491 61.8219 7.00923C61.6642 6.74929 61.4469 6.54901 61.1699 6.40838C60.8929 6.26776 60.5755 6.19744 60.2175 6.19744C59.8553 6.19744 59.5378 6.27202 59.2651 6.42116C58.9924 6.56605 58.7793 6.77699 58.6259 7.05398C58.4767 7.33097 58.4022 7.66761 58.4022 8.06392H55.4043C55.4043 7.1733 55.6046 6.40412 56.0051 5.75639C56.4057 5.10866 56.9682 4.61008 57.6926 4.26065C58.4213 3.90696 59.2672 3.73011 60.2303 3.73011C61.2232 3.73011 62.0861 3.89631 62.8191 4.22869C63.552 4.56108 64.1188 5.02557 64.5194 5.62216C64.9242 6.21449 65.1266 6.9027 65.1266 7.68679C65.1266 8.18537 65.0265 8.67969 64.8262 9.16974C64.6259 9.6598 64.2658 10.201 63.7459 10.7933C63.2303 11.3857 62.4973 12.0952 61.5471 12.9219L59.981 14.3665V14.4496H65.2864V17H55.5961Z" fill="white"/>
</svg>
