<svg width="73" height="73" viewBox="0 0 73 73" fill="none" xmlns="http://www.w3.org/2000/svg">
<rect width="73" height="73" rx="5" fill="#0EA0DE"/>
<path d="M0 4.99999C0 2.23857 2.23858 0 5 0H68C70.7614 0 73 2.23858 73 5V21.15H0V4.99999Z" fill="black"/>
<path d="M31.8299 41.7784C31.7731 41.1534 31.5202 40.6676 31.0714 40.321C30.6282 39.9688 29.9947 39.7926 29.1708 39.7926C28.6254 39.7926 28.1708 39.8636 27.8072 40.0057C27.4435 40.1477 27.1708 40.3438 26.989 40.5938C26.8072 40.8381 26.7134 41.1193 26.7077 41.4375C26.6964 41.6989 26.7475 41.929 26.8612 42.1278C26.9805 42.3267 27.1509 42.5028 27.3725 42.6562C27.5998 42.804 27.8725 42.9347 28.1907 43.0483C28.5089 43.1619 28.8668 43.2614 29.2646 43.3466L30.7646 43.6875C31.6282 43.875 32.3896 44.125 33.0487 44.4375C33.7134 44.75 34.2702 45.1222 34.7191 45.554C35.1737 45.9858 35.5174 46.483 35.7504 47.0455C35.9833 47.608 36.1026 48.2386 36.1083 48.9375C36.1026 50.0398 35.8242 50.9858 35.2731 51.7756C34.7219 52.5653 33.9293 53.1705 32.8952 53.5909C31.8668 54.0114 30.6254 54.2216 29.1708 54.2216C27.7106 54.2216 26.4379 54.0028 25.3526 53.5653C24.2674 53.1278 23.4237 52.4631 22.8214 51.571C22.2191 50.679 21.9094 49.5511 21.8924 48.1875H25.9322C25.9663 48.75 26.1168 49.2188 26.3839 49.5938C26.6509 49.9688 27.0174 50.2528 27.4833 50.446C27.9549 50.6392 28.5004 50.7358 29.1197 50.7358C29.6879 50.7358 30.1708 50.6591 30.5685 50.5057C30.9719 50.3523 31.2816 50.1392 31.4975 49.8665C31.7134 49.5937 31.8242 49.2812 31.8299 48.929C31.8242 48.5994 31.7219 48.3182 31.5231 48.0852C31.3242 47.8466 31.0174 47.642 30.6026 47.4716C30.1935 47.2955 29.6708 47.1335 29.0344 46.9858L27.2106 46.5597C25.6992 46.2131 24.5089 45.6534 23.6396 44.8807C22.7702 44.1023 22.3384 43.0511 22.3441 41.7273C22.3384 40.6477 22.6282 39.7017 23.2134 38.8892C23.7987 38.0767 24.6083 37.4432 25.6424 36.9886C26.6765 36.5341 27.8555 36.3068 29.1793 36.3068C30.5316 36.3068 31.7049 36.5369 32.6992 36.9972C33.6992 37.4517 34.4748 38.0909 35.0259 38.9148C35.5771 39.7386 35.8583 40.6932 35.8697 41.7784H31.8299ZM44.8441 54.2386C43.5146 54.2386 42.3356 54.0114 41.3072 53.5568C40.2844 53.0966 39.4776 52.4631 38.8867 51.6562C38.2958 50.8494 37.9947 49.9205 37.9833 48.8693H42.2276C42.2447 49.25 42.3668 49.5881 42.5941 49.8835C42.8214 50.1733 43.131 50.4006 43.5231 50.5653C43.9151 50.7301 44.3612 50.8125 44.8612 50.8125C45.3612 50.8125 45.8015 50.7244 46.1822 50.5483C46.5685 50.3665 46.8697 50.1193 47.0856 49.8068C47.3015 49.4886 47.4066 49.125 47.4009 48.7159C47.4066 48.3068 47.2901 47.9432 47.0515 47.625C46.8129 47.3068 46.4748 47.0597 46.0373 46.8835C45.6055 46.7074 45.0941 46.6193 44.5032 46.6193H42.8072V43.6193H44.5032C45.0202 43.6193 45.4748 43.5341 45.8668 43.3636C46.2646 43.1932 46.5742 42.9545 46.7958 42.6477C47.0174 42.3352 47.1254 41.9773 47.1197 41.5739C47.1254 41.1818 47.0316 40.8381 46.8384 40.5426C46.6509 40.2415 46.3867 40.0085 46.0458 39.8438C45.7106 39.679 45.3214 39.5966 44.8782 39.5966C44.4123 39.5966 43.989 39.679 43.6083 39.8438C43.2333 40.0085 42.935 40.2415 42.7134 40.5426C42.4918 40.8437 42.3754 41.1932 42.364 41.5909H38.3327C38.3441 40.5511 38.6339 39.6364 39.2021 38.8466C39.7702 38.0511 40.543 37.429 41.5202 36.9801C42.5032 36.5312 43.6225 36.3068 44.8782 36.3068C46.1282 36.3068 47.2276 36.5256 48.1765 36.9631C49.1254 37.4006 49.864 37.9972 50.3924 38.7528C50.9208 39.5028 51.185 40.3523 51.185 41.3011C51.1907 42.2841 50.8697 43.0937 50.2219 43.7301C49.5799 44.3665 48.7532 44.7585 47.7418 44.9062V45.0426C49.0941 45.2017 50.114 45.6392 50.8015 46.3551C51.4947 47.071 51.8384 47.9659 51.8327 49.0398C51.8327 50.0511 51.5344 50.9489 50.9379 51.733C50.3469 52.5114 49.5231 53.125 48.4663 53.5739C47.4151 54.017 46.2077 54.2386 44.8441 54.2386Z" fill="white"/>
<path d="M8.88139 17V3.90909H18.0092V6.47869H12.0455V9.16335H17.5426V11.7393H12.0455V14.4304H18.0092V17H8.88139ZM27.0668 7.83381C27.0241 7.36506 26.8345 7.00071 26.4979 6.74077C26.1655 6.47656 25.6903 6.34446 25.0724 6.34446C24.6634 6.34446 24.3224 6.39773 24.0497 6.50426C23.777 6.6108 23.5724 6.75781 23.4361 6.94531C23.2997 7.12855 23.2294 7.33949 23.2251 7.57812C23.2166 7.77415 23.255 7.94673 23.3402 8.09588C23.4297 8.24503 23.5575 8.37713 23.7237 8.49219C23.8942 8.60298 24.0987 8.70099 24.3374 8.78622C24.576 8.87145 24.8445 8.94602 25.1428 9.00994L26.2678 9.26562C26.9155 9.40625 27.4865 9.59375 27.9808 9.82812C28.4794 10.0625 28.897 10.3416 29.2337 10.6655C29.5746 10.9893 29.8324 11.3622 30.0071 11.7841C30.1818 12.206 30.2713 12.679 30.2756 13.2031C30.2713 14.0298 30.0625 14.7393 29.6491 15.3317C29.2358 15.924 28.6413 16.3778 27.8658 16.6932C27.0945 17.0085 26.1634 17.1662 25.0724 17.1662C23.9773 17.1662 23.0227 17.0021 22.2088 16.674C21.3949 16.3459 20.7621 15.8473 20.3104 15.1783C19.8587 14.5092 19.6264 13.6634 19.6136 12.6406H22.6435C22.669 13.0625 22.782 13.4141 22.9822 13.6953C23.1825 13.9766 23.4574 14.1896 23.8068 14.3345C24.1605 14.4794 24.5696 14.5518 25.0341 14.5518C25.4602 14.5518 25.8224 14.4943 26.1207 14.3793C26.4233 14.2642 26.6555 14.1044 26.8175 13.8999C26.9794 13.6953 27.0625 13.4609 27.0668 13.1967C27.0625 12.9496 26.9858 12.7386 26.8366 12.5639C26.6875 12.3849 26.4574 12.2315 26.1463 12.1037C25.8395 11.9716 25.4474 11.8501 24.9702 11.7393L23.6023 11.4197C22.4688 11.1598 21.576 10.7401 20.924 10.1605C20.272 9.5767 19.9482 8.78835 19.9524 7.79545C19.9482 6.9858 20.1655 6.27628 20.6044 5.6669C21.0433 5.05753 21.6506 4.58239 22.4261 4.24148C23.2017 3.90057 24.0859 3.73011 25.0788 3.73011C26.093 3.73011 26.973 3.9027 27.7188 4.24787C28.4688 4.58878 29.0504 5.06818 29.4638 5.68608C29.8771 6.30398 30.0881 7.01989 30.0966 7.83381H27.0668ZM31.8736 17V3.90909H37.2812C38.2614 3.90909 39.1072 4.10085 39.8189 4.48438C40.5348 4.86364 41.0866 5.39418 41.4744 6.07599C41.8622 6.75355 42.0561 7.5419 42.0561 8.44105C42.0561 9.34446 41.858 10.1349 41.4616 10.8125C41.0696 11.4858 40.5092 12.0078 39.7805 12.3786C39.0518 12.7493 38.1868 12.9347 37.1854 12.9347H33.8487V10.4418H36.5973C37.0746 10.4418 37.473 10.3587 37.7926 10.1925C38.1165 10.0263 38.3615 9.79403 38.5277 9.49574C38.6939 9.19318 38.777 8.84162 38.777 8.44105C38.777 8.03622 38.6939 7.68679 38.5277 7.39276C38.3615 7.09446 38.1165 6.86435 37.7926 6.70241C37.4688 6.54048 37.0703 6.45952 36.5973 6.45952H35.0376V17H31.8736ZM48.5696 17.179C47.5724 17.179 46.6882 17.0085 45.9169 16.6676C45.1499 16.3224 44.5447 15.8473 44.1016 15.2422C43.6584 14.6371 43.4325 13.9403 43.424 13.152H46.6072C46.62 13.4375 46.7116 13.6911 46.8821 13.9126C47.0526 14.13 47.2848 14.3004 47.5788 14.424C47.8729 14.5476 48.2074 14.6094 48.5824 14.6094C48.9574 14.6094 49.2876 14.5433 49.5732 14.4112C49.8629 14.2749 50.0888 14.0895 50.2507 13.8551C50.4126 13.6165 50.4915 13.3437 50.4872 13.0369C50.4915 12.7301 50.4041 12.4574 50.2251 12.2188C50.0462 11.9801 49.7926 11.7947 49.4645 11.6626C49.1406 11.5305 48.7571 11.4645 48.3139 11.4645H47.0419V9.21449H48.3139C48.7017 9.21449 49.0426 9.15057 49.3366 9.02273C49.6349 8.89489 49.8672 8.71591 50.0334 8.4858C50.1996 8.25142 50.2805 7.98295 50.2763 7.6804C50.2805 7.38636 50.2102 7.12855 50.0653 6.90696C49.9247 6.68111 49.7266 6.50639 49.4709 6.38281C49.2195 6.25923 48.9276 6.19744 48.5952 6.19744C48.2457 6.19744 47.9283 6.25923 47.6428 6.38281C47.3615 6.50639 47.1378 6.68111 46.9716 6.90696C46.8054 7.13281 46.718 7.39489 46.7095 7.69318H43.6861C43.6946 6.91335 43.9119 6.22727 44.3381 5.63494C44.7642 5.03835 45.3438 4.57173 46.0767 4.23509C46.8139 3.89844 47.6534 3.73011 48.5952 3.73011C49.5327 3.73011 50.3572 3.89418 51.0689 4.2223C51.7805 4.55043 52.3345 4.99787 52.7308 5.56463C53.1271 6.12713 53.3253 6.7642 53.3253 7.47585C53.3295 8.21307 53.0888 8.82031 52.603 9.29759C52.1214 9.77486 51.5014 10.0689 50.7429 10.1797V10.282C51.7571 10.4013 52.522 10.7294 53.0376 11.2663C53.5575 11.8033 53.8153 12.4744 53.8111 13.2798C53.8111 14.0384 53.5874 14.7116 53.1399 15.2997C52.6967 15.8835 52.0788 16.3437 51.2862 16.6804C50.4979 17.0128 49.5923 17.179 48.5696 17.179ZM55.5961 17V14.7244L60.3709 10.544C60.7289 10.2202 61.0336 9.92401 61.285 9.65554C61.5364 9.38281 61.7282 9.11009 61.8603 8.83736C61.9924 8.56037 62.0584 8.25994 62.0584 7.93608C62.0584 7.57386 61.9796 7.26491 61.8219 7.00923C61.6642 6.74929 61.4469 6.54901 61.1699 6.40838C60.8929 6.26776 60.5755 6.19744 60.2175 6.19744C59.8553 6.19744 59.5378 6.27202 59.2651 6.42116C58.9924 6.56605 58.7793 6.77699 58.6259 7.05398C58.4767 7.33097 58.4022 7.66761 58.4022 8.06392H55.4043C55.4043 7.1733 55.6046 6.40412 56.0051 5.75639C56.4057 5.10866 56.9682 4.61008 57.6926 4.26065C58.4213 3.90696 59.2672 3.73011 60.2303 3.73011C61.2232 3.73011 62.0861 3.89631 62.8191 4.22869C63.552 4.56108 64.1188 5.02557 64.5194 5.62216C64.9242 6.21449 65.1266 6.9027 65.1266 7.68679C65.1266 8.18537 65.0265 8.67969 64.8262 9.16974C64.6259 9.6598 64.2658 10.201 63.7459 10.7933C63.2303 11.3857 62.4973 12.0952 61.5471 12.9219L59.981 14.3665V14.4496H65.2864V17H55.5961Z" fill="white"/>
</svg>
