<svg width="73" height="73" viewBox="0 0 73 73" fill="none" xmlns="http://www.w3.org/2000/svg">
<rect width="73" height="73" rx="5" fill="#0EA0DE"/>
<path d="M0 4.99999C0 2.23857 2.23858 0 5 0H68C70.7614 0 73 2.23858 73 5V21.15H0V4.99999Z" fill="black"/>
<path d="M37.032 42.8693H32.7706C32.7138 42.4318 32.5973 42.0369 32.4212 41.6847C32.245 41.3324 32.0121 41.0312 31.7223 40.7812C31.4325 40.5312 31.0888 40.3409 30.6911 40.2102C30.299 40.0739 29.8643 40.0057 29.3871 40.0057C28.5405 40.0057 27.8104 40.2131 27.1967 40.6278C26.5888 41.0426 26.12 41.642 25.7905 42.4261C25.4666 43.2102 25.3047 44.1591 25.3047 45.2727C25.3047 46.4318 25.4695 47.4034 25.799 48.1875C26.1342 48.9659 26.603 49.554 27.2053 49.9517C27.8132 50.3437 28.532 50.5398 29.3615 50.5398C29.8274 50.5398 30.2507 50.4801 30.6314 50.3608C31.0178 50.2415 31.3558 50.0682 31.6456 49.8409C31.9411 49.608 32.1825 49.3267 32.37 48.9972C32.5632 48.6619 32.6967 48.2841 32.7706 47.8636L37.032 47.8892C36.9581 48.6619 36.7337 49.4233 36.3587 50.1733C35.9893 50.9233 35.4808 51.608 34.8331 52.2273C34.1854 52.8409 33.3956 53.3295 32.4638 53.6932C31.5376 54.0568 30.4751 54.2386 29.2763 54.2386C27.6967 54.2386 26.282 53.892 25.032 53.1989C23.7876 52.5 22.8047 51.483 22.0831 50.1477C21.3615 48.8125 21.0007 47.1875 21.0007 45.2727C21.0007 43.3523 21.3672 41.7244 22.1001 40.3892C22.8331 39.054 23.8246 38.0398 25.0746 37.3466C26.3246 36.6534 27.7251 36.3068 29.2763 36.3068C30.3331 36.3068 31.3104 36.4545 32.2081 36.75C33.1058 37.0398 33.8956 37.4659 34.5774 38.0284C35.2592 38.5852 35.8132 39.2699 36.2393 40.0824C36.6655 40.8949 36.9297 41.8239 37.032 42.8693ZM46.0511 54.2386C44.7216 54.2386 43.5426 54.0114 42.5142 53.5568C41.4915 53.0966 40.6847 52.4631 40.0938 51.6562C39.5028 50.8494 39.2017 49.9205 39.1903 48.8693H43.4347C43.4517 49.25 43.5739 49.5881 43.8011 49.8835C44.0284 50.1733 44.3381 50.4006 44.7301 50.5653C45.1222 50.7301 45.5682 50.8125 46.0682 50.8125C46.5682 50.8125 47.0085 50.7244 47.3892 50.5483C47.7756 50.3665 48.0767 50.1193 48.2926 49.8068C48.5085 49.4886 48.6136 49.125 48.608 48.7159C48.6136 48.3068 48.4972 47.9432 48.2585 47.625C48.0199 47.3068 47.6818 47.0597 47.2443 46.8835C46.8125 46.7074 46.3011 46.6193 45.7102 46.6193H44.0142V43.6193H45.7102C46.2273 43.6193 46.6818 43.5341 47.0739 43.3636C47.4716 43.1932 47.7813 42.9545 48.0028 42.6477C48.2244 42.3352 48.3324 41.9773 48.3267 41.5739C48.3324 41.1818 48.2386 40.8381 48.0455 40.5426C47.858 40.2415 47.5938 40.0085 47.2528 39.8438C46.9176 39.679 46.5284 39.5966 46.0852 39.5966C45.6193 39.5966 45.196 39.679 44.8153 39.8438C44.4403 40.0085 44.142 40.2415 43.9205 40.5426C43.6989 40.8437 43.5824 41.1932 43.571 41.5909H39.5398C39.5511 40.5511 39.8409 39.6364 40.4091 38.8466C40.9773 38.0511 41.75 37.429 42.7273 36.9801C43.7102 36.5312 44.8295 36.3068 46.0852 36.3068C47.3352 36.3068 48.4347 36.5256 49.3835 36.9631C50.3324 37.4006 51.071 37.9972 51.5994 38.7528C52.1278 39.5028 52.392 40.3523 52.392 41.3011C52.3977 42.2841 52.0767 43.0937 51.429 43.7301C50.7869 44.3665 49.9602 44.7585 48.9489 44.9062V45.0426C50.3011 45.2017 51.321 45.6392 52.0085 46.3551C52.7017 47.071 53.0455 47.9659 53.0398 49.0398C53.0398 50.0511 52.7415 50.9489 52.1449 51.733C51.554 52.5114 50.7301 53.125 49.6733 53.5739C48.6222 54.017 47.4148 54.2386 46.0511 54.2386Z" fill="white"/>
<path d="M8.88139 17V3.90909H18.0092V6.47869H12.0455V9.16335H17.5426V11.7393H12.0455V14.4304H18.0092V17H8.88139ZM27.0668 7.83381C27.0241 7.36506 26.8345 7.00071 26.4979 6.74077C26.1655 6.47656 25.6903 6.34446 25.0724 6.34446C24.6634 6.34446 24.3224 6.39773 24.0497 6.50426C23.777 6.6108 23.5724 6.75781 23.4361 6.94531C23.2997 7.12855 23.2294 7.33949 23.2251 7.57812C23.2166 7.77415 23.255 7.94673 23.3402 8.09588C23.4297 8.24503 23.5575 8.37713 23.7237 8.49219C23.8942 8.60298 24.0987 8.70099 24.3374 8.78622C24.576 8.87145 24.8445 8.94602 25.1428 9.00994L26.2678 9.26562C26.9155 9.40625 27.4865 9.59375 27.9808 9.82812C28.4794 10.0625 28.897 10.3416 29.2337 10.6655C29.5746 10.9893 29.8324 11.3622 30.0071 11.7841C30.1818 12.206 30.2713 12.679 30.2756 13.2031C30.2713 14.0298 30.0625 14.7393 29.6491 15.3317C29.2358 15.924 28.6413 16.3778 27.8658 16.6932C27.0945 17.0085 26.1634 17.1662 25.0724 17.1662C23.9773 17.1662 23.0227 17.0021 22.2088 16.674C21.3949 16.3459 20.7621 15.8473 20.3104 15.1783C19.8587 14.5092 19.6264 13.6634 19.6136 12.6406H22.6435C22.669 13.0625 22.782 13.4141 22.9822 13.6953C23.1825 13.9766 23.4574 14.1896 23.8068 14.3345C24.1605 14.4794 24.5696 14.5518 25.0341 14.5518C25.4602 14.5518 25.8224 14.4943 26.1207 14.3793C26.4233 14.2642 26.6555 14.1044 26.8175 13.8999C26.9794 13.6953 27.0625 13.4609 27.0668 13.1967C27.0625 12.9496 26.9858 12.7386 26.8366 12.5639C26.6875 12.3849 26.4574 12.2315 26.1463 12.1037C25.8395 11.9716 25.4474 11.8501 24.9702 11.7393L23.6023 11.4197C22.4688 11.1598 21.576 10.7401 20.924 10.1605C20.272 9.5767 19.9482 8.78835 19.9524 7.79545C19.9482 6.9858 20.1655 6.27628 20.6044 5.6669C21.0433 5.05753 21.6506 4.58239 22.4261 4.24148C23.2017 3.90057 24.0859 3.73011 25.0788 3.73011C26.093 3.73011 26.973 3.9027 27.7188 4.24787C28.4688 4.58878 29.0504 5.06818 29.4638 5.68608C29.8771 6.30398 30.0881 7.01989 30.0966 7.83381H27.0668ZM31.8736 17V3.90909H37.2812C38.2614 3.90909 39.1072 4.10085 39.8189 4.48438C40.5348 4.86364 41.0866 5.39418 41.4744 6.07599C41.8622 6.75355 42.0561 7.5419 42.0561 8.44105C42.0561 9.34446 41.858 10.1349 41.4616 10.8125C41.0696 11.4858 40.5092 12.0078 39.7805 12.3786C39.0518 12.7493 38.1868 12.9347 37.1854 12.9347H33.8487V10.4418H36.5973C37.0746 10.4418 37.473 10.3587 37.7926 10.1925C38.1165 10.0263 38.3615 9.79403 38.5277 9.49574C38.6939 9.19318 38.777 8.84162 38.777 8.44105C38.777 8.03622 38.6939 7.68679 38.5277 7.39276C38.3615 7.09446 38.1165 6.86435 37.7926 6.70241C37.4688 6.54048 37.0703 6.45952 36.5973 6.45952H35.0376V17H31.8736ZM48.5696 17.179C47.5724 17.179 46.6882 17.0085 45.9169 16.6676C45.1499 16.3224 44.5447 15.8473 44.1016 15.2422C43.6584 14.6371 43.4325 13.9403 43.424 13.152H46.6072C46.62 13.4375 46.7116 13.6911 46.8821 13.9126C47.0526 14.13 47.2848 14.3004 47.5788 14.424C47.8729 14.5476 48.2074 14.6094 48.5824 14.6094C48.9574 14.6094 49.2876 14.5433 49.5732 14.4112C49.8629 14.2749 50.0888 14.0895 50.2507 13.8551C50.4126 13.6165 50.4915 13.3437 50.4872 13.0369C50.4915 12.7301 50.4041 12.4574 50.2251 12.2188C50.0462 11.9801 49.7926 11.7947 49.4645 11.6626C49.1406 11.5305 48.7571 11.4645 48.3139 11.4645H47.0419V9.21449H48.3139C48.7017 9.21449 49.0426 9.15057 49.3366 9.02273C49.6349 8.89489 49.8672 8.71591 50.0334 8.4858C50.1996 8.25142 50.2805 7.98295 50.2763 7.6804C50.2805 7.38636 50.2102 7.12855 50.0653 6.90696C49.9247 6.68111 49.7266 6.50639 49.4709 6.38281C49.2195 6.25923 48.9276 6.19744 48.5952 6.19744C48.2457 6.19744 47.9283 6.25923 47.6428 6.38281C47.3615 6.50639 47.1378 6.68111 46.9716 6.90696C46.8054 7.13281 46.718 7.39489 46.7095 7.69318H43.6861C43.6946 6.91335 43.9119 6.22727 44.3381 5.63494C44.7642 5.03835 45.3438 4.57173 46.0767 4.23509C46.8139 3.89844 47.6534 3.73011 48.5952 3.73011C49.5327 3.73011 50.3572 3.89418 51.0689 4.2223C51.7805 4.55043 52.3345 4.99787 52.7308 5.56463C53.1271 6.12713 53.3253 6.7642 53.3253 7.47585C53.3295 8.21307 53.0888 8.82031 52.603 9.29759C52.1214 9.77486 51.5014 10.0689 50.7429 10.1797V10.282C51.7571 10.4013 52.522 10.7294 53.0376 11.2663C53.5575 11.8033 53.8153 12.4744 53.8111 13.2798C53.8111 14.0384 53.5874 14.7116 53.1399 15.2997C52.6967 15.8835 52.0788 16.3437 51.2862 16.6804C50.4979 17.0128 49.5923 17.179 48.5696 17.179ZM55.5961 17V14.7244L60.3709 10.544C60.7289 10.2202 61.0336 9.92401 61.285 9.65554C61.5364 9.38281 61.7282 9.11009 61.8603 8.83736C61.9924 8.56037 62.0584 8.25994 62.0584 7.93608C62.0584 7.57386 61.9796 7.26491 61.8219 7.00923C61.6642 6.74929 61.4469 6.54901 61.1699 6.40838C60.8929 6.26776 60.5755 6.19744 60.2175 6.19744C59.8553 6.19744 59.5378 6.27202 59.2651 6.42116C58.9924 6.56605 58.7793 6.77699 58.6259 7.05398C58.4767 7.33097 58.4022 7.66761 58.4022 8.06392H55.4043C55.4043 7.1733 55.6046 6.40412 56.0051 5.75639C56.4057 5.10866 56.9682 4.61008 57.6926 4.26065C58.4213 3.90696 59.2672 3.73011 60.2303 3.73011C61.2232 3.73011 62.0861 3.89631 62.8191 4.22869C63.552 4.56108 64.1188 5.02557 64.5194 5.62216C64.9242 6.21449 65.1266 6.9027 65.1266 7.68679C65.1266 8.18537 65.0265 8.67969 64.8262 9.16974C64.6259 9.6598 64.2658 10.201 63.7459 10.7933C63.2303 11.3857 62.4973 12.0952 61.5471 12.9219L59.981 14.3665V14.4496H65.2864V17H55.5961Z" fill="white"/>
</svg>
