<svg width="73" height="73" viewBox="0 0 73 73" fill="none" xmlns="http://www.w3.org/2000/svg">
<rect width="73" height="73" rx="5" fill="#0EDE49"/>
<path d="M0 4.99999C0 2.23857 2.23858 0 5 0H68C70.7614 0 73 2.23858 73 5V21.15H0V4.99999Z" fill="black"/>
<path d="M29.3232 54.2386C28.3686 54.2386 27.4538 54.0852 26.5788 53.7784C25.7038 53.4659 24.9254 52.9716 24.2436 52.2955C23.5618 51.6136 23.0249 50.7216 22.6328 49.6193C22.2408 48.5114 22.0476 47.1619 22.0533 45.571C22.0589 44.1335 22.2351 42.8437 22.5817 41.7017C22.9283 40.554 23.4226 39.5795 24.0646 38.7784C24.7124 37.9773 25.4851 37.3665 26.3828 36.946C27.2862 36.5199 28.2947 36.3068 29.4084 36.3068C30.63 36.3068 31.7067 36.5455 32.6385 37.0227C33.576 37.4943 34.326 38.1307 34.8885 38.9318C35.451 39.7273 35.7834 40.6136 35.8857 41.5909H31.7351C31.6101 41.0398 31.3345 40.6222 30.9084 40.3381C30.4879 40.0483 29.9879 39.9034 29.4084 39.9034C28.3402 39.9034 27.5419 40.3665 27.0135 41.2926C26.4908 42.2187 26.2237 43.4574 26.2124 45.0085H26.3232C26.5618 44.4858 26.9055 44.0369 27.3544 43.6619C27.8033 43.2869 28.3175 43 28.897 42.8011C29.4822 42.5966 30.1016 42.4943 30.755 42.4943C31.8004 42.4943 32.7237 42.7358 33.5249 43.2188C34.326 43.7017 34.9538 44.3636 35.4084 45.2045C35.8629 46.0398 36.0874 46.9972 36.0817 48.0767C36.0874 49.2926 35.8033 50.3665 35.2294 51.2983C34.6555 52.2244 33.8601 52.946 32.843 53.4631C31.8317 53.9801 30.6584 54.2386 29.3232 54.2386ZM29.2976 51C29.8146 51 30.2777 50.8778 30.6868 50.6335C31.0959 50.3892 31.4169 50.0568 31.6499 49.6364C31.8828 49.2159 31.9964 48.7415 31.9908 48.2131C31.9964 47.679 31.8828 47.2045 31.6499 46.7898C31.4226 46.375 31.1044 46.0455 30.6953 45.8011C30.2919 45.5568 29.8288 45.4347 29.3061 45.4347C28.9254 45.4347 28.5703 45.5057 28.2408 45.6477C27.9112 45.7898 27.6243 45.9886 27.38 46.2443C27.1413 46.4943 26.9538 46.7898 26.8175 47.1307C26.6811 47.4659 26.6101 47.8295 26.6044 48.2216C26.6101 48.7386 26.7294 49.2074 26.9624 49.6278C27.1953 50.0483 27.5135 50.3835 27.9169 50.6335C28.3203 50.8778 28.7805 51 29.2976 51ZM45.1562 54.2386C43.8835 54.2386 42.7528 54.0085 41.7642 53.5483C40.7756 53.0881 39.9943 52.4545 39.4205 51.6477C38.8523 50.8409 38.5568 49.9148 38.5341 48.8693H42.625C42.6591 49.5114 42.9205 50.0284 43.4091 50.4205C43.8977 50.8068 44.4801 51 45.1562 51C45.6847 51 46.1534 50.8835 46.5625 50.6506C46.9716 50.4176 47.2926 50.0909 47.5256 49.6705C47.7585 49.2443 47.8722 48.7557 47.8665 48.2045C47.8722 47.642 47.7557 47.1506 47.517 46.7301C47.2841 46.3097 46.9602 45.983 46.5455 45.75C46.1364 45.5114 45.6648 45.392 45.1307 45.392C44.625 45.3864 44.1449 45.4972 43.6903 45.7244C43.2415 45.9517 42.9006 46.2614 42.6676 46.6534L38.9432 45.9545L39.7017 36.5455H50.9006V39.946H43.1705L42.7699 44.0625H42.8722C43.1619 43.5795 43.6278 43.1818 44.2699 42.8693C44.9176 42.5511 45.6534 42.392 46.4773 42.392C47.5227 42.392 48.4545 42.6364 49.2727 43.125C50.0966 43.608 50.7443 44.2784 51.2159 45.1364C51.6932 45.9943 51.9318 46.9773 51.9318 48.0852C51.9318 49.2841 51.6477 50.3466 51.0795 51.2727C50.517 52.1989 49.7273 52.9261 48.7102 53.4545C47.6989 53.9773 46.5142 54.2386 45.1562 54.2386Z" fill="white"/>
<path d="M8.80229 17V3.90909H17.9301V6.47869H11.9664V9.16335H17.4635V11.7393H11.9664V14.4304H17.9301V17H8.80229ZM26.9877 7.83381C26.945 7.36506 26.7554 7.00071 26.4188 6.74077C26.0864 6.47656 25.6112 6.34446 24.9933 6.34446C24.5843 6.34446 24.2433 6.39773 23.9706 6.50426C23.6979 6.6108 23.4933 6.75781 23.357 6.94531C23.2206 7.12855 23.1503 7.33949 23.146 7.57812C23.1375 7.77415 23.1759 7.94673 23.2611 8.09588C23.3506 8.24503 23.4784 8.37713 23.6446 8.49219C23.8151 8.60298 24.0196 8.70099 24.2583 8.78622C24.4969 8.87145 24.7654 8.94602 25.0637 9.00994L26.1887 9.26562C26.8364 9.40625 27.4074 9.59375 27.9017 9.82812C28.4003 10.0625 28.8179 10.3416 29.1546 10.6655C29.4955 10.9893 29.7533 11.3622 29.928 11.7841C30.1027 12.206 30.1922 12.679 30.1965 13.2031C30.1922 14.0298 29.9834 14.7393 29.57 15.3317C29.1567 15.924 28.5622 16.3778 27.7867 16.6932C27.0154 17.0085 26.0843 17.1662 24.9933 17.1662C23.8982 17.1662 22.9436 17.0021 22.1297 16.674C21.3158 16.3459 20.683 15.8473 20.2313 15.1783C19.7796 14.5092 19.5473 13.6634 19.5345 12.6406H22.5644C22.5899 13.0625 22.7029 13.4141 22.9031 13.6953C23.1034 13.9766 23.3783 14.1896 23.7277 14.3345C24.0814 14.4794 24.4905 14.5518 24.955 14.5518C25.3811 14.5518 25.7433 14.4943 26.0416 14.3793C26.3442 14.2642 26.5764 14.1044 26.7384 13.8999C26.9003 13.6953 26.9834 13.4609 26.9877 13.1967C26.9834 12.9496 26.9067 12.7386 26.7575 12.5639C26.6084 12.3849 26.3783 12.2315 26.0672 12.1037C25.7604 11.9716 25.3683 11.8501 24.8911 11.7393L23.5232 11.4197C22.3896 11.1598 21.4969 10.7401 20.8449 10.1605C20.1929 9.5767 19.8691 8.78835 19.8733 7.79545C19.8691 6.9858 20.0864 6.27628 20.5253 5.6669C20.9642 5.05753 21.5715 4.58239 22.347 4.24148C23.1226 3.90057 24.0068 3.73011 24.9997 3.73011C26.0139 3.73011 26.8939 3.9027 27.6396 4.24787C28.3896 4.58878 28.9713 5.06818 29.3847 5.68608C29.798 6.30398 30.009 7.01989 30.0175 7.83381H26.9877ZM31.7945 17V3.90909H37.2021C38.1823 3.90909 39.0281 4.10085 39.7398 4.48438C40.4557 4.86364 41.0075 5.39418 41.3953 6.07599C41.7831 6.75355 41.977 7.5419 41.977 8.44105C41.977 9.34446 41.7789 10.1349 41.3825 10.8125C40.9905 11.4858 40.4301 12.0078 39.7014 12.3786C38.9727 12.7493 38.1077 12.9347 37.1063 12.9347H33.7696V10.4418H36.5182C36.9955 10.4418 37.3939 10.3587 37.7135 10.1925C38.0374 10.0263 38.2824 9.79403 38.4486 9.49574C38.6148 9.19318 38.6979 8.84162 38.6979 8.44105C38.6979 8.03622 38.6148 7.68679 38.4486 7.39276C38.2824 7.09446 38.0374 6.86435 37.7135 6.70241C37.3896 6.54048 36.9912 6.45952 36.5182 6.45952H34.9585V17H31.7945ZM48.6247 17.179C47.6063 17.179 46.6965 17.017 45.8953 16.6932C45.0985 16.3651 44.472 15.9219 44.0161 15.3636C43.5644 14.8011 43.3385 14.1662 43.3385 13.4588C43.3385 12.9176 43.4685 12.4212 43.7284 11.9695C43.9884 11.5178 44.3399 11.1428 44.7831 10.8445C45.2306 10.5419 45.7291 10.348 46.2789 10.2628V10.1605C45.5587 10.0284 44.9685 9.69389 44.5083 9.15696C44.0523 8.62003 43.8243 7.99148 43.8243 7.27131C43.8243 6.58949 44.031 5.98224 44.4443 5.44957C44.8619 4.9169 45.4308 4.49716 46.151 4.19034C46.8754 3.88352 47.7 3.73011 48.6247 3.73011C49.5494 3.73011 50.3719 3.88352 51.0921 4.19034C51.8165 4.49716 52.3854 4.9169 52.7987 5.44957C53.2164 5.98224 53.4252 6.58949 53.4252 7.27131C53.4252 7.99574 53.1929 8.62642 52.7284 9.16335C52.2682 9.69602 51.6823 10.0284 50.9706 10.1605V10.2628C51.5161 10.348 52.0104 10.5419 52.4536 10.8445C52.901 11.1428 53.2547 11.5178 53.5146 11.9695C53.7789 12.4212 53.911 12.9176 53.911 13.4588C53.911 14.1662 53.683 14.8011 53.227 15.3636C52.771 15.9219 52.1446 16.3651 51.3477 16.6932C50.5551 17.017 49.6475 17.179 48.6247 17.179ZM48.6247 14.9354C49.0125 14.9354 49.3534 14.8629 49.6475 14.718C49.9415 14.5689 50.1716 14.3622 50.3378 14.098C50.5083 13.8338 50.5935 13.5355 50.5935 13.2031C50.5935 12.8622 50.5083 12.5597 50.3378 12.2955C50.1673 12.0312 49.933 11.8246 49.6347 11.6754C49.3406 11.522 49.004 11.4453 48.6247 11.4453C48.2497 11.4453 47.9131 11.522 47.6148 11.6754C47.3165 11.8246 47.0821 12.0312 46.9117 12.2955C46.7412 12.5597 46.656 12.8622 46.656 13.2031C46.656 13.5355 46.7391 13.8338 46.9053 14.098C47.0757 14.358 47.308 14.5625 47.602 14.7116C47.9003 14.8608 48.2412 14.9354 48.6247 14.9354ZM48.6247 9.21449C48.9571 9.21449 49.2512 9.14631 49.5068 9.00994C49.7668 8.87358 49.9692 8.68395 50.1141 8.44105C50.2632 8.19815 50.3378 7.9233 50.3378 7.61648C50.3378 7.30966 50.2632 7.03906 50.1141 6.80469C49.9692 6.57031 49.7689 6.38707 49.5132 6.25497C49.2575 6.11861 48.9614 6.05043 48.6247 6.05043C48.2923 6.05043 47.9962 6.11861 47.7362 6.25497C47.4763 6.38707 47.2739 6.57031 47.129 6.80469C46.9841 7.03906 46.9117 7.30966 46.9117 7.61648C46.9117 7.9233 46.9841 8.19815 47.129 8.44105C47.2781 8.67969 47.4827 8.86932 47.7426 9.00994C48.0026 9.14631 48.2966 9.21449 48.6247 9.21449ZM55.6752 17V14.7244L60.45 10.544C60.808 10.2202 61.1127 9.92401 61.3641 9.65554C61.6155 9.38281 61.8073 9.11009 61.9394 8.83736C62.0715 8.56037 62.1375 8.25994 62.1375 7.93608C62.1375 7.57386 62.0587 7.26491 61.901 7.00923C61.7433 6.74929 61.526 6.54901 61.249 6.40838C60.972 6.26776 60.6546 6.19744 60.2966 6.19744C59.9344 6.19744 59.6169 6.27202 59.3442 6.42116C59.0715 6.56605 58.8584 6.77699 58.705 7.05398C58.5558 7.33097 58.4813 7.66761 58.4813 8.06392H55.4834C55.4834 7.1733 55.6837 6.40412 56.0843 5.75639C56.4848 5.10866 57.0473 4.61008 57.7718 4.26065C58.5004 3.90696 59.3463 3.73011 60.3094 3.73011C61.3023 3.73011 62.1652 3.89631 62.8982 4.22869C63.6311 4.56108 64.1979 5.02557 64.5985 5.62216C65.0033 6.21449 65.2057 6.9027 65.2057 7.68679C65.2057 8.18537 65.1056 8.67969 64.9053 9.16974C64.705 9.6598 64.3449 10.201 63.825 10.7933C63.3094 11.3857 62.5764 12.0952 61.6262 12.9219L60.0601 14.3665V14.4496H65.3655V17H55.6752Z" fill="white"/>
</svg>
