<svg width="73" height="73" viewBox="0 0 73 73" fill="none" xmlns="http://www.w3.org/2000/svg">
<rect width="73" height="73" rx="5" fill="#0EDE49"/>
<path d="M0 4.99999C0 2.23857 2.23858 0 5 0H68C70.7614 0 73 2.23858 73 5V21.15H0V4.99999Z" fill="black"/>
<path d="M17.1018 44.1442C17.0455 43.9354 16.9626 43.7514 16.8532 43.5923C16.7439 43.4299 16.6096 43.2924 16.4506 43.1797C16.2915 43.067 16.1092 42.9825 15.9037 42.9261C15.6982 42.8665 15.4728 42.8366 15.2275 42.8366C14.7337 42.8366 14.3061 42.956 13.9449 43.1946C13.5869 43.4332 13.3102 43.7812 13.1146 44.2386C12.9191 44.6927 12.8213 45.2446 12.8213 45.8942C12.8213 46.5471 12.9157 47.1039 13.1047 47.5646C13.2936 48.0253 13.567 48.3767 13.925 48.6186C14.2829 48.8606 14.7171 48.9815 15.2275 48.9815C15.6783 48.9815 16.0595 48.9086 16.371 48.7628C16.6859 48.6136 16.9245 48.4032 17.0869 48.1314C17.2493 47.8596 17.3305 47.5398 17.3305 47.1719L17.7879 47.2266H15.3121V45.4318H19.702V46.7791C19.702 47.6906 19.5081 48.4711 19.1203 49.1207C18.7358 49.7704 18.2055 50.2692 17.5294 50.6172C16.8566 50.9652 16.0827 51.1392 15.2077 51.1392C14.2365 51.1392 13.3831 50.9287 12.6473 50.5078C11.9115 50.0869 11.3381 49.487 10.9271 48.7081C10.5161 47.9259 10.3106 46.9979 10.3106 45.924C10.3106 45.0888 10.4349 44.348 10.6835 43.7017C10.9321 43.0521 11.2784 42.5019 11.7226 42.0511C12.17 41.6004 12.6871 41.259 13.2737 41.027C13.8637 40.795 14.4984 40.679 15.1778 40.679C15.7678 40.679 16.3163 40.7635 16.8234 40.9325C17.3338 41.1016 17.7846 41.3402 18.1757 41.6484C18.5701 41.9567 18.8899 42.3229 19.1352 42.7472C19.3805 43.1714 19.5329 43.6371 19.5926 44.1442H17.1018ZM24.722 51.1442C23.9233 51.1442 23.2339 50.9867 22.6539 50.6719C22.0771 50.3537 21.633 49.9013 21.3215 49.3146C21.0132 48.7247 20.8591 48.0237 20.8591 47.2116C20.8591 46.4228 21.0149 45.7334 21.3264 45.1435C21.638 44.5502 22.0771 44.0895 22.6439 43.7614C23.2107 43.4299 23.8785 43.2642 24.6475 43.2642C25.191 43.2642 25.6882 43.3487 26.1389 43.5178C26.5897 43.6868 26.9791 43.937 27.3073 44.2685C27.6354 44.5999 27.8906 45.0092 28.0729 45.4964C28.2552 45.9804 28.3463 46.5355 28.3463 47.1619V47.7685H21.7093V46.3565H26.0843C26.0809 46.098 26.0196 45.8677 25.9003 45.6655C25.781 45.4633 25.6169 45.3059 25.4081 45.1932C25.2026 45.0772 24.9656 45.0192 24.6972 45.0192C24.4254 45.0192 24.1818 45.0805 23.9664 45.2031C23.7509 45.3224 23.5802 45.4865 23.4543 45.6953C23.3283 45.9008 23.262 46.1345 23.2554 46.3963V47.8331C23.2554 48.1446 23.3167 48.4181 23.4394 48.6534C23.562 48.8854 23.736 49.0661 23.9614 49.1953C24.1868 49.3246 24.4552 49.3892 24.7668 49.3892C24.9822 49.3892 25.1778 49.3594 25.3534 49.2997C25.5291 49.2401 25.6799 49.1522 25.8058 49.0362C25.9318 48.9202 26.0262 48.7777 26.0892 48.6087L28.3215 48.6733C28.2287 49.1738 28.0248 49.6096 27.71 49.9808C27.3984 50.3487 26.9891 50.6354 26.482 50.8409C25.9749 51.0431 25.3882 51.1442 24.722 51.1442ZM32.0191 46.6449V51H29.588V43.3636H31.8998V44.7656H31.9843C32.1533 44.2983 32.4417 43.9321 32.8493 43.6669C33.257 43.3984 33.7426 43.2642 34.306 43.2642C34.843 43.2642 35.3086 43.3852 35.703 43.6271C36.1008 43.8658 36.409 44.2005 36.6278 44.6314C36.8498 45.0589 36.9592 45.5594 36.9559 46.1328V51H34.5248V46.6101C34.5281 46.1858 34.4204 45.8544 34.2016 45.6158C33.9862 45.3771 33.6862 45.2578 33.3018 45.2578C33.0465 45.2578 32.8212 45.3142 32.6256 45.4268C32.4334 45.5362 32.2842 45.6937 32.1782 45.8991C32.0754 46.1046 32.0224 46.3532 32.0191 46.6449ZM42.0306 51.1442C41.2319 51.1442 40.5425 50.9867 39.9624 50.6719C39.3857 50.3537 38.9416 49.9013 38.6301 49.3146C38.3218 48.7247 38.1677 48.0237 38.1677 47.2116C38.1677 46.4228 38.3235 45.7334 38.635 45.1435C38.9466 44.5502 39.3857 44.0895 39.9525 43.7614C40.5193 43.4299 41.1871 43.2642 41.9561 43.2642C42.4996 43.2642 42.9968 43.3487 43.4475 43.5178C43.8983 43.6868 44.2877 43.937 44.6159 44.2685C44.944 44.5999 45.1992 45.0092 45.3815 45.4964C45.5638 45.9804 45.6549 46.5355 45.6549 47.1619V47.7685H39.0178V46.3565H43.3928C43.3895 46.098 43.3282 45.8677 43.2089 45.6655C43.0896 45.4633 42.9255 45.3059 42.7167 45.1932C42.5112 45.0772 42.2742 45.0192 42.0058 45.0192C41.734 45.0192 41.4904 45.0805 41.2749 45.2031C41.0595 45.3224 40.8888 45.4865 40.7629 45.6953C40.6369 45.9008 40.5706 46.1345 40.564 46.3963V47.8331C40.564 48.1446 40.6253 48.4181 40.748 48.6534C40.8706 48.8854 41.0446 49.0661 41.27 49.1953C41.4954 49.3246 41.7638 49.3892 42.0754 49.3892C42.2908 49.3892 42.4864 49.3594 42.662 49.2997C42.8377 49.2401 42.9885 49.1522 43.1144 49.0362C43.2404 48.9202 43.3348 48.7777 43.3978 48.6087L45.6301 48.6733C45.5373 49.1738 45.3334 49.6096 45.0186 49.9808C44.707 50.3487 44.2977 50.6354 43.7906 50.8409C43.2835 51.0431 42.6968 51.1442 42.0306 51.1442ZM46.8966 51V43.3636H49.2581V44.7557H49.3376C49.4768 44.2519 49.7039 43.8774 50.0187 43.6321C50.3336 43.3835 50.6998 43.2592 51.1175 43.2592C51.2301 43.2592 51.3461 43.2675 51.4655 43.2841C51.5848 43.2973 51.6958 43.3189 51.7986 43.3487V45.4616C51.6826 45.4219 51.5301 45.3904 51.3412 45.3672C51.1556 45.344 50.9898 45.3324 50.844 45.3324C50.5557 45.3324 50.2955 45.397 50.0635 45.5263C49.8348 45.6522 49.6541 45.8295 49.5216 46.0582C49.3923 46.2836 49.3277 46.5488 49.3277 46.8537V51H46.8966ZM52.7892 51V43.3636H55.2203V51H52.7892ZM54.0072 42.4737C53.6658 42.4737 53.3725 42.361 53.1272 42.1357C52.882 41.907 52.7593 41.6319 52.7593 41.3104C52.7593 40.9922 52.882 40.7204 53.1272 40.495C53.3725 40.2663 53.6658 40.152 54.0072 40.152C54.3519 40.152 54.6452 40.2663 54.8872 40.495C55.1324 40.7204 55.2551 40.9922 55.2551 41.3104C55.2551 41.6319 55.1324 41.907 54.8872 42.1357C54.6452 42.361 54.3519 42.4737 54.0072 42.4737ZM60.3323 51.1442C59.5269 51.1442 58.8358 50.9785 58.2591 50.647C57.6858 50.3156 57.2449 49.8549 56.9367 49.2649C56.6285 48.6716 56.4743 47.9856 56.4743 47.2067C56.4743 46.4245 56.6285 45.7384 56.9367 45.1484C57.2483 44.5552 57.6907 44.0928 58.2641 43.7614C58.8408 43.4299 59.5286 43.2642 60.3273 43.2642C61.0333 43.2642 61.6481 43.3918 62.1718 43.647C62.6988 43.9022 63.1098 44.2635 63.4047 44.7308C63.703 45.1948 63.8605 45.7401 63.877 46.3665H61.605C61.5586 45.9754 61.426 45.6688 61.2073 45.4467C60.9919 45.2247 60.7101 45.1136 60.3621 45.1136C60.0804 45.1136 59.8335 45.1932 59.6214 45.3523C59.4092 45.508 59.2435 45.7401 59.1242 46.0483C59.0082 46.3532 58.9502 46.7311 58.9502 47.1818C58.9502 47.6326 59.0082 48.0137 59.1242 48.3253C59.2435 48.6335 59.4092 48.8672 59.6214 49.0263C59.8335 49.1821 60.0804 49.2599 60.3621 49.2599C60.5875 49.2599 60.7864 49.2119 60.9587 49.1158C61.1344 49.0196 61.2786 48.8788 61.3912 48.6932C61.5039 48.5043 61.5752 48.2756 61.605 48.0071H63.877C63.8538 48.6368 63.6964 49.187 63.4047 49.6577C63.1164 50.1283 62.7104 50.4946 62.1867 50.7564C61.6663 51.0149 61.0482 51.1442 60.3323 51.1442Z" fill="white"/>
<path d="M7.88792 15V5.54545H14.4802V7.40128H10.1731V9.3402H14.1432V11.2006H10.1731V13.1442H14.4802V15H7.88792ZM21.0218 8.37997C20.991 8.04143 20.8541 7.77829 20.6109 7.59055C20.3709 7.39974 20.0277 7.30433 19.5815 7.30433C19.286 7.30433 19.0398 7.3428 18.8428 7.41974C18.6458 7.49669 18.4981 7.60286 18.3996 7.73828C18.3012 7.87062 18.2504 8.02296 18.2473 8.19531C18.2411 8.33688 18.2688 8.46153 18.3304 8.56925C18.395 8.67696 18.4873 8.77237 18.6074 8.85547C18.7305 8.93549 18.8782 9.00627 19.0506 9.06783C19.2229 9.12938 19.4168 9.18324 19.6322 9.2294L20.4447 9.41406C20.9125 9.51562 21.3249 9.65104 21.682 9.82031C22.042 9.98958 22.3436 10.1912 22.5868 10.4251C22.833 10.659 23.0192 10.9283 23.1454 11.233C23.2716 11.5376 23.3362 11.8793 23.3393 12.2578C23.3362 12.8549 23.1854 13.3673 22.8869 13.7951C22.5883 14.2229 22.159 14.5507 21.5989 14.7784C21.0418 15.0062 20.3693 15.12 19.5815 15.12C18.7905 15.12 18.1011 15.0015 17.5133 14.7646C16.9254 14.5276 16.4684 14.1675 16.1422 13.6843C15.8159 13.2011 15.6482 12.5902 15.639 11.8516H17.8272C17.8457 12.1562 17.9272 12.4102 18.0719 12.6133C18.2165 12.8164 18.415 12.9703 18.6674 13.0749C18.9228 13.1796 19.2183 13.2319 19.5538 13.2319C19.8615 13.2319 20.1231 13.1903 20.3386 13.1072C20.5571 13.0241 20.7248 12.9087 20.8418 12.761C20.9587 12.6133 21.0187 12.444 21.0218 12.2532C21.0187 12.0747 20.9633 11.9223 20.8556 11.7962C20.7479 11.6669 20.5817 11.5561 20.357 11.4638C20.1354 11.3684 19.8523 11.2807 19.5076 11.2006L18.5197 10.9698C17.701 10.7821 17.0562 10.4789 16.5854 10.0604C16.1145 9.63873 15.8806 9.06937 15.8837 8.35227C15.8806 7.76752 16.0375 7.25509 16.3545 6.81499C16.6715 6.37488 17.1101 6.03172 17.6702 5.78551C18.2304 5.5393 18.869 5.41619 19.5861 5.41619C20.3186 5.41619 20.9541 5.54084 21.4927 5.79013C22.0343 6.03634 22.4544 6.38258 22.753 6.82884C23.0515 7.27509 23.2039 7.79214 23.21 8.37997H21.0218ZM24.4934 15V5.54545H28.3989C29.1068 5.54545 29.7177 5.68395 30.2317 5.96094C30.7487 6.23485 31.1473 6.61802 31.4273 7.11044C31.7074 7.59979 31.8474 8.16915 31.8474 8.81854C31.8474 9.471 31.7043 10.0419 31.4181 10.5312C31.135 11.0175 30.7302 11.3945 30.204 11.6623C29.6777 11.93 29.0529 12.0639 28.3297 12.0639H25.9199V10.2635H27.905C28.2497 10.2635 28.5374 10.2035 28.7682 10.0835C29.0021 9.96342 29.1791 9.79569 29.2991 9.58026C29.4192 9.36174 29.4792 9.10784 29.4792 8.81854C29.4792 8.52616 29.4192 8.27379 29.2991 8.06143C29.1791 7.846 29.0021 7.67981 28.7682 7.56286C28.5343 7.4459 28.2466 7.38743 27.905 7.38743H26.7785V15H24.4934ZM36.6486 15.1293C35.913 15.1293 35.2559 15.0123 34.6773 14.7784C34.1018 14.5414 33.6494 14.2214 33.3201 13.8182C32.9939 13.4119 32.8307 12.9534 32.8307 12.4425C32.8307 12.0516 32.9246 11.6931 33.1123 11.3668C33.3001 11.0406 33.554 10.7698 33.8741 10.5543C34.1972 10.3358 34.5573 10.1958 34.9543 10.1342V10.0604C34.4342 9.96496 34.0079 9.72337 33.6756 9.33558C33.3463 8.9478 33.1816 8.49384 33.1816 7.97372C33.1816 7.4813 33.3309 7.04273 33.6294 6.65803C33.931 6.27332 34.3419 5.97017 34.862 5.74858C35.3852 5.52699 35.9807 5.41619 36.6486 5.41619C37.3164 5.41619 37.9104 5.52699 38.4305 5.74858C38.9537 5.97017 39.3646 6.27332 39.6631 6.65803C39.9647 7.04273 40.1155 7.4813 40.1155 7.97372C40.1155 8.49692 39.9478 8.95241 39.6123 9.3402C39.28 9.72491 38.8568 9.96496 38.3428 10.0604V10.1342C38.7368 10.1958 39.0938 10.3358 39.4138 10.5543C39.737 10.7698 39.9924 11.0406 40.1802 11.3668C40.371 11.6931 40.4664 12.0516 40.4664 12.4425C40.4664 12.9534 40.3017 13.4119 39.9724 13.8182C39.6431 14.2214 39.1907 14.5414 38.6152 14.7784C38.0427 15.0123 37.3872 15.1293 36.6486 15.1293ZM36.6486 13.5089C36.9286 13.5089 37.1748 13.4566 37.3872 13.3519C37.5996 13.2442 37.7658 13.0949 37.8858 12.9041C38.0089 12.7133 38.0704 12.4979 38.0704 12.2578C38.0704 12.0116 38.0089 11.7931 37.8858 11.6023C37.7627 11.4115 37.5934 11.2622 37.378 11.1545C37.1656 11.0437 36.9225 10.9883 36.6486 10.9883C36.3777 10.9883 36.1346 11.0437 35.9192 11.1545C35.7037 11.2622 35.5345 11.4115 35.4114 11.6023C35.2882 11.7931 35.2267 12.0116 35.2267 12.2578C35.2267 12.4979 35.2867 12.7133 35.4067 12.9041C35.5298 13.0919 35.6976 13.2396 35.9099 13.3473C36.1254 13.455 36.3716 13.5089 36.6486 13.5089ZM36.6486 9.37713C36.8886 9.37713 37.101 9.32789 37.2856 9.2294C37.4734 9.13092 37.6196 8.99396 37.7242 8.81854C37.8319 8.64311 37.8858 8.4446 37.8858 8.22301C37.8858 8.00142 37.8319 7.80599 37.7242 7.63672C37.6196 7.46745 37.4749 7.33511 37.2903 7.2397C37.1056 7.14122 36.8917 7.09197 36.6486 7.09197C36.4085 7.09197 36.1946 7.14122 36.0069 7.2397C35.8191 7.33511 35.673 7.46745 35.5683 7.63672C35.4637 7.80599 35.4114 8.00142 35.4114 8.22301C35.4114 8.4446 35.4637 8.64311 35.5683 8.81854C35.676 8.99089 35.8238 9.12784 36.0115 9.2294C36.1992 9.32789 36.4116 9.37713 36.6486 9.37713ZM41.7405 15V13.3565L45.1891 10.3374C45.4476 10.1035 45.6676 9.88956 45.8492 9.69567C46.0308 9.4987 46.1693 9.30173 46.2647 9.10476C46.3601 8.90471 46.4078 8.68774 46.4078 8.45384C46.4078 8.19223 46.3509 7.9691 46.237 7.78445C46.1231 7.59671 45.9662 7.45206 45.7661 7.3505C45.5661 7.24893 45.3368 7.19815 45.0783 7.19815C44.8167 7.19815 44.5874 7.25201 44.3904 7.35973C44.1934 7.46437 44.0396 7.61671 43.9288 7.81676C43.821 8.01681 43.7672 8.25994 43.7672 8.54616H41.6021C41.6021 7.90294 41.7467 7.34742 42.036 6.87962C42.3253 6.41181 42.7315 6.05173 43.2547 5.79936C43.781 5.54392 44.3919 5.41619 45.0875 5.41619C45.8046 5.41619 46.4278 5.53622 46.9572 5.77628C47.4865 6.01634 47.8958 6.3518 48.1851 6.78267C48.4775 7.21046 48.6237 7.7075 48.6237 8.27379C48.6237 8.63388 48.5514 8.99089 48.4067 9.34482C48.2621 9.69875 48.002 10.0896 47.6266 10.5174C47.2542 10.9452 46.7248 11.4576 46.0385 12.0547L44.9074 13.098V13.158H48.7391V15H41.7405ZM53.8207 15.1293C53.3037 15.1293 52.8082 15.0462 52.3342 14.88C51.8602 14.7107 51.4386 14.4429 51.0693 14.0767C50.7 13.7074 50.4091 13.2242 50.1968 12.6271C49.9844 12.027 49.8798 11.296 49.8829 10.4343C49.8859 9.65566 49.9813 8.95703 50.1691 8.33842C50.3568 7.71674 50.6246 7.18892 50.9723 6.75497C51.3232 6.32102 51.7418 5.99017 52.228 5.76243C52.7174 5.5316 53.2637 5.41619 53.8669 5.41619C54.5286 5.41619 55.1118 5.54545 55.6165 5.80398C56.1243 6.05942 56.5306 6.40412 56.8353 6.83807C57.14 7.26894 57.32 7.74905 57.3754 8.27841H55.1272C55.0595 7.97988 54.9102 7.75367 54.6794 7.59979C54.4516 7.44283 54.1808 7.36435 53.8669 7.36435C53.2883 7.36435 52.8559 7.61517 52.5696 8.11683C52.2865 8.61849 52.1419 9.28942 52.1357 10.1296H52.1957C52.325 9.84647 52.5112 9.60334 52.7543 9.40021C52.9974 9.19709 53.276 9.04167 53.5899 8.93395C53.9069 8.82315 54.2424 8.76776 54.5963 8.76776C55.1626 8.76776 55.6627 8.89856 56.0966 9.16016C56.5306 9.42176 56.8707 9.7803 57.1169 10.2358C57.3631 10.6882 57.4847 11.2068 57.4816 11.7915C57.4847 12.4502 57.3308 13.0318 57.0199 13.5366C56.7091 14.0382 56.2782 14.4291 55.7273 14.7092C55.1795 14.9892 54.544 15.1293 53.8207 15.1293ZM53.8069 13.375C54.0869 13.375 54.3378 13.3088 54.5593 13.1765C54.7809 13.0442 54.9548 12.8641 55.081 12.6364C55.2072 12.4086 55.2687 12.1516 55.2657 11.8654C55.2687 11.5761 55.2072 11.3191 55.081 11.0945C54.9579 10.8698 54.7856 10.6913 54.564 10.5589C54.3455 10.4266 54.0946 10.3604 53.8115 10.3604C53.6053 10.3604 53.4129 10.3989 53.2344 10.4759C53.0559 10.5528 52.9005 10.6605 52.7682 10.799C52.6389 10.9344 52.5373 11.0945 52.4635 11.2791C52.3896 11.4607 52.3511 11.6577 52.3481 11.87C52.3511 12.1501 52.4158 12.404 52.5419 12.6317C52.6681 12.8595 52.8405 13.0411 53.059 13.1765C53.2775 13.3088 53.5268 13.375 53.8069 13.375ZM62.5678 15.1293C62.0507 15.1293 61.5552 15.0462 61.0813 14.88C60.6073 14.7107 60.1857 14.4429 59.8164 14.0767C59.447 13.7074 59.1562 13.2242 58.9438 12.6271C58.7315 12.027 58.6268 11.296 58.6299 10.4343C58.633 9.65566 58.7284 8.95703 58.9161 8.33842C59.1039 7.71674 59.3716 7.18892 59.7194 6.75497C60.0703 6.32102 60.4888 5.99017 60.9751 5.76243C61.4644 5.5316 62.0107 5.41619 62.6139 5.41619C63.2756 5.41619 63.8589 5.54545 64.3636 5.80398C64.8714 6.05942 65.2777 6.40412 65.5823 6.83807C65.887 7.26894 66.0671 7.74905 66.1225 8.27841H63.8742C63.8065 7.97988 63.6573 7.75367 63.4264 7.59979C63.1987 7.44283 62.9279 7.36435 62.6139 7.36435C62.0353 7.36435 61.6029 7.61517 61.3167 8.11683C61.0336 8.61849 60.8889 9.28942 60.8828 10.1296H60.9428C61.072 9.84647 61.2582 9.60334 61.5014 9.40021C61.7445 9.19709 62.023 9.04167 62.337 8.93395C62.654 8.82315 62.9894 8.76776 63.3434 8.76776C63.9096 8.76776 64.4098 8.89856 64.8437 9.16016C65.2777 9.42176 65.6177 9.7803 65.8639 10.2358C66.1102 10.6882 66.2317 11.2068 66.2286 11.7915C66.2317 12.4502 66.0778 13.0318 65.767 13.5366C65.4562 14.0382 65.0253 14.4291 64.4744 14.7092C63.9266 14.9892 63.291 15.1293 62.5678 15.1293ZM62.5539 13.375C62.834 13.375 63.0848 13.3088 63.3064 13.1765C63.528 13.0442 63.7019 12.8641 63.8281 12.6364C63.9543 12.4086 64.0158 12.1516 64.0127 11.8654C64.0158 11.5761 63.9543 11.3191 63.8281 11.0945C63.705 10.8698 63.5326 10.6913 63.311 10.5589C63.0925 10.4266 62.8417 10.3604 62.5585 10.3604C62.3523 10.3604 62.16 10.3989 61.9815 10.4759C61.803 10.5528 61.6476 10.6605 61.5152 10.799C61.386 10.9344 61.2844 11.0945 61.2105 11.2791C61.1367 11.4607 61.0982 11.6577 61.0951 11.87C61.0982 12.1501 61.1628 12.404 61.289 12.6317C61.4152 12.8595 61.5876 13.0411 61.8061 13.1765C62.0246 13.3088 62.2739 13.375 62.5539 13.375Z" fill="white"/>
</svg>
