<svg width="73" height="73" viewBox="0 0 73 73" fill="none" xmlns="http://www.w3.org/2000/svg">
<rect width="73" height="73" rx="5" fill="#A5A5A5"/>
<path d="M0 4.99999C0 2.23857 2.23858 0 5 0H68C70.7614 0 73 2.23858 73 5V21.15H0V4.99999Z" fill="black"/>
<path d="M16.2705 16V5.09091H18.9072V9.46946H23.2058V5.09091H25.8372V16H23.2058V11.6161H18.9072V16H16.2705ZM37.7877 10.5455C37.7877 11.7457 37.5569 12.7631 37.0952 13.5977C36.6336 14.4322 36.0086 15.0661 35.2202 15.4993C34.4354 15.9325 33.5547 16.1491 32.5782 16.1491C31.5981 16.1491 30.7156 15.9308 29.9308 15.494C29.146 15.0572 28.5228 14.4233 28.0611 13.5923C27.603 12.7578 27.374 11.7422 27.374 10.5455C27.374 9.34517 27.603 8.32777 28.0611 7.49325C28.5228 6.65874 29.146 6.02486 29.9308 5.59162C30.7156 5.15838 31.5981 4.94176 32.5782 4.94176C33.5547 4.94176 34.4354 5.15838 35.2202 5.59162C36.0086 6.02486 36.6336 6.65874 37.0952 7.49325C37.5569 8.32777 37.7877 9.34517 37.7877 10.5455ZM35.0924 10.5455C35.0924 9.83523 34.9912 9.23509 34.7888 8.74503C34.5899 8.25497 34.3022 7.88388 33.9258 7.63175C33.553 7.37962 33.1037 7.25355 32.5782 7.25355C32.0562 7.25355 31.6069 7.37962 31.2305 7.63175C30.8541 7.88388 30.5647 8.25497 30.3623 8.74503C30.1634 9.23509 30.064 9.83523 30.064 10.5455C30.064 11.2557 30.1634 11.8558 30.3623 12.3459C30.5647 12.8359 30.8541 13.207 31.2305 13.4592C31.6069 13.7113 32.0562 13.8374 32.5782 13.8374C33.1037 13.8374 33.553 13.7113 33.9258 13.4592C34.3022 13.207 34.5899 12.8359 34.7888 12.3459C34.9912 11.8558 35.0924 11.2557 35.0924 10.5455ZM45.2238 8.36151C45.1883 7.97088 45.0302 7.66726 44.7497 7.45064C44.4727 7.23047 44.0767 7.12038 43.5618 7.12038C43.2209 7.12038 42.9368 7.16477 42.7096 7.25355C42.4823 7.34233 42.3118 7.46484 42.1982 7.62109C42.0846 7.77379 42.026 7.94957 42.0224 8.14844C42.0153 8.31179 42.0473 8.45561 42.1183 8.5799C42.1929 8.70419 42.2994 8.81428 42.4379 8.91016C42.5799 9.00249 42.7504 9.08416 42.9493 9.15518C43.1481 9.22621 43.3718 9.28835 43.6204 9.34162L44.5579 9.55469C45.0977 9.67188 45.5736 9.82812 45.9855 10.0234C46.401 10.2188 46.749 10.4513 47.0295 10.7212C47.3136 10.9911 47.5285 11.3018 47.6741 11.6534C47.8196 12.005 47.8942 12.3991 47.8978 12.8359C47.8942 13.5249 47.7202 14.1161 47.3758 14.6097C47.0313 15.1033 46.5359 15.4815 45.8896 15.7443C45.2468 16.0071 44.4709 16.1385 43.5618 16.1385C42.6492 16.1385 41.8537 16.0018 41.1755 15.7283C40.4972 15.4549 39.9699 15.0394 39.5934 14.4819C39.217 13.9244 39.0235 13.2195 39.0128 12.3672H41.5377C41.559 12.7188 41.6531 13.0117 41.82 13.2461C41.9869 13.4805 42.216 13.658 42.5071 13.7788C42.8019 13.8995 43.1428 13.9599 43.5299 13.9599C43.885 13.9599 44.1868 13.9119 44.4354 13.8161C44.6875 13.7202 44.8811 13.587 45.016 13.4165C45.151 13.2461 45.2202 13.0508 45.2238 12.8306C45.2202 12.6246 45.1563 12.4489 45.032 12.3033C44.9077 12.1541 44.716 12.0263 44.4567 11.9197C44.201 11.8097 43.8743 11.7085 43.4766 11.6161L42.3367 11.3498C41.3921 11.1332 40.6481 10.7834 40.1048 10.3004C39.5615 9.81392 39.2916 9.15696 39.2951 8.32955C39.2916 7.65483 39.4727 7.06357 39.8385 6.55575C40.2042 6.04794 40.7103 5.65199 41.3566 5.3679C42.0029 5.08381 42.7397 4.94176 43.5672 4.94176C44.4123 4.94176 45.1456 5.08558 45.7671 5.37322C46.3921 5.65732 46.8768 6.05682 47.2213 6.57173C47.5657 7.08665 47.7415 7.68324 47.7486 8.36151H45.2238ZM48.8726 7.23224V5.09091H58.0931V7.23224H54.7852V16H52.1858V7.23224H48.8726Z" fill="white"/>
<path d="M17.1018 44.1442C17.0455 43.9354 16.9626 43.7514 16.8532 43.5923C16.7439 43.4299 16.6096 43.2924 16.4506 43.1797C16.2915 43.067 16.1092 42.9825 15.9037 42.9261C15.6982 42.8665 15.4728 42.8366 15.2275 42.8366C14.7337 42.8366 14.3061 42.956 13.9449 43.1946C13.5869 43.4332 13.3102 43.7812 13.1146 44.2386C12.9191 44.6927 12.8213 45.2446 12.8213 45.8942C12.8213 46.5471 12.9157 47.1039 13.1047 47.5646C13.2936 48.0253 13.567 48.3767 13.925 48.6186C14.2829 48.8606 14.7171 48.9815 15.2275 48.9815C15.6783 48.9815 16.0595 48.9086 16.371 48.7628C16.6859 48.6136 16.9245 48.4032 17.0869 48.1314C17.2493 47.8596 17.3305 47.5398 17.3305 47.1719L17.7879 47.2266H15.3121V45.4318H19.702V46.7791C19.702 47.6906 19.5081 48.4711 19.1203 49.1207C18.7358 49.7704 18.2055 50.2692 17.5294 50.6172C16.8566 50.9652 16.0827 51.1392 15.2077 51.1392C14.2365 51.1392 13.3831 50.9287 12.6473 50.5078C11.9115 50.0869 11.3381 49.487 10.9271 48.7081C10.5161 47.9259 10.3106 46.9979 10.3106 45.924C10.3106 45.0888 10.4349 44.348 10.6835 43.7017C10.9321 43.0521 11.2784 42.5019 11.7226 42.0511C12.17 41.6004 12.6871 41.259 13.2737 41.027C13.8637 40.795 14.4984 40.679 15.1778 40.679C15.7678 40.679 16.3163 40.7635 16.8234 40.9325C17.3338 41.1016 17.7846 41.3402 18.1757 41.6484C18.5701 41.9567 18.8899 42.3229 19.1352 42.7472C19.3805 43.1714 19.5329 43.6371 19.5926 44.1442H17.1018ZM24.722 51.1442C23.9233 51.1442 23.2339 50.9867 22.6539 50.6719C22.0771 50.3537 21.633 49.9013 21.3215 49.3146C21.0132 48.7247 20.8591 48.0237 20.8591 47.2116C20.8591 46.4228 21.0149 45.7334 21.3264 45.1435C21.638 44.5502 22.0771 44.0895 22.6439 43.7614C23.2107 43.4299 23.8785 43.2642 24.6475 43.2642C25.191 43.2642 25.6882 43.3487 26.1389 43.5178C26.5897 43.6868 26.9791 43.937 27.3073 44.2685C27.6354 44.5999 27.8906 45.0092 28.0729 45.4964C28.2552 45.9804 28.3463 46.5355 28.3463 47.1619V47.7685H21.7093V46.3565H26.0843C26.0809 46.098 26.0196 45.8677 25.9003 45.6655C25.781 45.4633 25.6169 45.3059 25.4081 45.1932C25.2026 45.0772 24.9656 45.0192 24.6972 45.0192C24.4254 45.0192 24.1818 45.0805 23.9664 45.2031C23.7509 45.3224 23.5802 45.4865 23.4543 45.6953C23.3283 45.9008 23.262 46.1345 23.2554 46.3963V47.8331C23.2554 48.1446 23.3167 48.4181 23.4394 48.6534C23.562 48.8854 23.736 49.0661 23.9614 49.1953C24.1868 49.3246 24.4552 49.3892 24.7668 49.3892C24.9822 49.3892 25.1778 49.3594 25.3534 49.2997C25.5291 49.2401 25.6799 49.1522 25.8058 49.0362C25.9318 48.9202 26.0262 48.7777 26.0892 48.6087L28.3215 48.6733C28.2287 49.1738 28.0248 49.6096 27.71 49.9808C27.3984 50.3487 26.9891 50.6354 26.482 50.8409C25.9749 51.0431 25.3882 51.1442 24.722 51.1442ZM32.0191 46.6449V51H29.588V43.3636H31.8998V44.7656H31.9843C32.1533 44.2983 32.4417 43.9321 32.8493 43.6669C33.257 43.3984 33.7426 43.2642 34.306 43.2642C34.843 43.2642 35.3086 43.3852 35.703 43.6271C36.1008 43.8658 36.409 44.2005 36.6278 44.6314C36.8498 45.0589 36.9592 45.5594 36.9559 46.1328V51H34.5248V46.6101C34.5281 46.1858 34.4204 45.8544 34.2016 45.6158C33.9862 45.3771 33.6862 45.2578 33.3018 45.2578C33.0465 45.2578 32.8212 45.3142 32.6256 45.4268C32.4334 45.5362 32.2842 45.6937 32.1782 45.8991C32.0754 46.1046 32.0224 46.3532 32.0191 46.6449ZM42.0306 51.1442C41.2319 51.1442 40.5425 50.9867 39.9624 50.6719C39.3857 50.3537 38.9416 49.9013 38.6301 49.3146C38.3218 48.7247 38.1677 48.0237 38.1677 47.2116C38.1677 46.4228 38.3235 45.7334 38.635 45.1435C38.9466 44.5502 39.3857 44.0895 39.9525 43.7614C40.5193 43.4299 41.1871 43.2642 41.9561 43.2642C42.4996 43.2642 42.9968 43.3487 43.4475 43.5178C43.8983 43.6868 44.2877 43.937 44.6159 44.2685C44.944 44.5999 45.1992 45.0092 45.3815 45.4964C45.5638 45.9804 45.6549 46.5355 45.6549 47.1619V47.7685H39.0178V46.3565H43.3928C43.3895 46.098 43.3282 45.8677 43.2089 45.6655C43.0896 45.4633 42.9255 45.3059 42.7167 45.1932C42.5112 45.0772 42.2742 45.0192 42.0058 45.0192C41.734 45.0192 41.4904 45.0805 41.2749 45.2031C41.0595 45.3224 40.8888 45.4865 40.7629 45.6953C40.6369 45.9008 40.5706 46.1345 40.564 46.3963V47.8331C40.564 48.1446 40.6253 48.4181 40.748 48.6534C40.8706 48.8854 41.0446 49.0661 41.27 49.1953C41.4954 49.3246 41.7638 49.3892 42.0754 49.3892C42.2908 49.3892 42.4864 49.3594 42.662 49.2997C42.8377 49.2401 42.9885 49.1522 43.1144 49.0362C43.2404 48.9202 43.3348 48.7777 43.3978 48.6087L45.6301 48.6733C45.5373 49.1738 45.3334 49.6096 45.0186 49.9808C44.707 50.3487 44.2977 50.6354 43.7906 50.8409C43.2835 51.0431 42.6968 51.1442 42.0306 51.1442ZM46.8966 51V43.3636H49.2581V44.7557H49.3376C49.4768 44.2519 49.7039 43.8774 50.0187 43.6321C50.3336 43.3835 50.6998 43.2592 51.1175 43.2592C51.2301 43.2592 51.3461 43.2675 51.4655 43.2841C51.5848 43.2973 51.6958 43.3189 51.7986 43.3487V45.4616C51.6826 45.4219 51.5301 45.3904 51.3412 45.3672C51.1556 45.344 50.9898 45.3324 50.844 45.3324C50.5557 45.3324 50.2955 45.397 50.0635 45.5263C49.8348 45.6522 49.6541 45.8295 49.5216 46.0582C49.3923 46.2836 49.3277 46.5488 49.3277 46.8537V51H46.8966ZM52.7892 51V43.3636H55.2203V51H52.7892ZM54.0072 42.4737C53.6658 42.4737 53.3725 42.361 53.1272 42.1357C52.882 41.907 52.7593 41.6319 52.7593 41.3104C52.7593 40.9922 52.882 40.7204 53.1272 40.495C53.3725 40.2663 53.6658 40.152 54.0072 40.152C54.3519 40.152 54.6452 40.2663 54.8872 40.495C55.1324 40.7204 55.2551 40.9922 55.2551 41.3104C55.2551 41.6319 55.1324 41.907 54.8872 42.1357C54.6452 42.361 54.3519 42.4737 54.0072 42.4737ZM60.3323 51.1442C59.5269 51.1442 58.8358 50.9785 58.2591 50.647C57.6858 50.3156 57.2449 49.8549 56.9367 49.2649C56.6285 48.6716 56.4743 47.9856 56.4743 47.2067C56.4743 46.4245 56.6285 45.7384 56.9367 45.1484C57.2483 44.5552 57.6907 44.0928 58.2641 43.7614C58.8408 43.4299 59.5286 43.2642 60.3273 43.2642C61.0333 43.2642 61.6481 43.3918 62.1718 43.647C62.6988 43.9022 63.1098 44.2635 63.4047 44.7308C63.703 45.1948 63.8605 45.7401 63.877 46.3665H61.605C61.5586 45.9754 61.426 45.6688 61.2073 45.4467C60.9919 45.2247 60.7101 45.1136 60.3621 45.1136C60.0804 45.1136 59.8335 45.1932 59.6214 45.3523C59.4092 45.508 59.2435 45.7401 59.1242 46.0483C59.0082 46.3532 58.9502 46.7311 58.9502 47.1818C58.9502 47.6326 59.0082 48.0137 59.1242 48.3253C59.2435 48.6335 59.4092 48.8672 59.6214 49.0263C59.8335 49.1821 60.0804 49.2599 60.3621 49.2599C60.5875 49.2599 60.7864 49.2119 60.9587 49.1158C61.1344 49.0196 61.2786 48.8788 61.3912 48.6932C61.5039 48.5043 61.5752 48.2756 61.605 48.0071H63.877C63.8538 48.6368 63.6964 49.187 63.4047 49.6577C63.1164 50.1283 62.7104 50.4946 62.1867 50.7564C61.6663 51.0149 61.0482 51.1442 60.3323 51.1442Z" fill="white"/>
</svg>
