<svg width="73" height="73" viewBox="0 0 73 73" fill="none" xmlns="http://www.w3.org/2000/svg">
<rect width="73" height="73" rx="5" fill="#E666CE"/>
<path d="M0 4.99999C0 2.23857 2.23858 0 5 0H68C70.7614 0 73 2.23858 73 5V21.15H0V4.99999Z" fill="black"/>
<path d="M8.39799 17V3.90909H11.5621V14.4304H17.0081V17H8.39799ZM29.7874 3.90909V17H27.1027L21.8932 9.4446H21.8101V17H18.646V3.90909H21.3691L26.521 11.4517H26.6297V3.90909H29.7874ZM36.865 17.179C35.8465 17.179 34.9367 17.017 34.1356 16.6932C33.3387 16.3651 32.7123 15.9219 32.2563 15.3636C31.8046 14.8011 31.5787 14.1662 31.5787 13.4588C31.5787 12.9176 31.7087 12.4212 31.9687 11.9695C32.2286 11.5178 32.5802 11.1428 33.0233 10.8445C33.4708 10.5419 33.9694 10.348 34.5191 10.2628V10.1605C33.7989 10.0284 33.2087 9.69389 32.7485 9.15696C32.2925 8.62003 32.0645 7.99148 32.0645 7.27131C32.0645 6.58949 32.2712 5.98224 32.6846 5.44957C33.1022 4.9169 33.6711 4.49716 34.3912 4.19034C35.1157 3.88352 35.9403 3.73011 36.865 3.73011C37.7897 3.73011 38.6121 3.88352 39.3323 4.19034C40.0567 4.49716 40.6256 4.9169 41.039 5.44957C41.4566 5.98224 41.6654 6.58949 41.6654 7.27131C41.6654 7.99574 41.4332 8.62642 40.9687 9.16335C40.5084 9.69602 39.9225 10.0284 39.2108 10.1605V10.2628C39.7563 10.348 40.2506 10.5419 40.6938 10.8445C41.1412 11.1428 41.4949 11.5178 41.7549 11.9695C42.0191 12.4212 42.1512 12.9176 42.1512 13.4588C42.1512 14.1662 41.9232 14.8011 41.4672 15.3636C41.0113 15.9219 40.3849 16.3651 39.588 16.6932C38.7954 17.017 37.8877 17.179 36.865 17.179ZM36.865 14.9354C37.2528 14.9354 37.5937 14.8629 37.8877 14.718C38.1817 14.5689 38.4118 14.3622 38.578 14.098C38.7485 13.8338 38.8337 13.5355 38.8337 13.2031C38.8337 12.8622 38.7485 12.5597 38.578 12.2955C38.4076 12.0312 38.1732 11.8246 37.8749 11.6754C37.5809 11.522 37.2442 11.4453 36.865 11.4453C36.49 11.4453 36.1533 11.522 35.855 11.6754C35.5567 11.8246 35.3224 12.0312 35.1519 12.2955C34.9814 12.5597 34.8962 12.8622 34.8962 13.2031C34.8962 13.5355 34.9793 13.8338 35.1455 14.098C35.316 14.358 35.5482 14.5625 35.8422 14.7116C36.1405 14.8608 36.4814 14.9354 36.865 14.9354ZM36.865 9.21449C37.1974 9.21449 37.4914 9.14631 37.7471 9.00994C38.007 8.87358 38.2094 8.68395 38.3543 8.44105C38.5035 8.19815 38.578 7.9233 38.578 7.61648C38.578 7.30966 38.5035 7.03906 38.3543 6.80469C38.2094 6.57031 38.0091 6.38707 37.7535 6.25497C37.4978 6.11861 37.2016 6.05043 36.865 6.05043C36.5326 6.05043 36.2364 6.11861 35.9765 6.25497C35.7165 6.38707 35.5141 6.57031 35.3692 6.80469C35.2243 7.03906 35.1519 7.30966 35.1519 7.61648C35.1519 7.9233 35.2243 8.19815 35.3692 8.44105C35.5184 8.67969 35.7229 8.86932 35.9829 9.00994C36.2428 9.14631 36.5368 9.21449 36.865 9.21449ZM49.029 17.179C48.0106 17.179 47.1008 17.017 46.2996 16.6932C45.5028 16.3651 44.8763 15.9219 44.4204 15.3636C43.9687 14.8011 43.7428 14.1662 43.7428 13.4588C43.7428 12.9176 43.8728 12.4212 44.1327 11.9695C44.3927 11.5178 44.7442 11.1428 45.1874 10.8445C45.6349 10.5419 46.1334 10.348 46.6832 10.2628V10.1605C45.963 10.0284 45.3728 9.69389 44.9126 9.15696C44.4566 8.62003 44.2286 7.99148 44.2286 7.27131C44.2286 6.58949 44.4353 5.98224 44.8486 5.44957C45.2662 4.9169 45.8351 4.49716 46.5553 4.19034C47.2797 3.88352 48.1043 3.73011 49.029 3.73011C49.9537 3.73011 50.7762 3.88352 51.4964 4.19034C52.2208 4.49716 52.7897 4.9169 53.203 5.44957C53.6207 5.98224 53.8295 6.58949 53.8295 7.27131C53.8295 7.99574 53.5972 8.62642 53.1327 9.16335C52.6725 9.69602 52.0866 10.0284 51.3749 10.1605V10.2628C51.9204 10.348 52.4147 10.5419 52.8579 10.8445C53.3053 11.1428 53.659 11.5178 53.9189 11.9695C54.1832 12.4212 54.3153 12.9176 54.3153 13.4588C54.3153 14.1662 54.0873 14.8011 53.6313 15.3636C53.1753 15.9219 52.5489 16.3651 51.752 16.6932C50.9594 17.017 50.0518 17.179 49.029 17.179ZM49.029 14.9354C49.4168 14.9354 49.7577 14.8629 50.0518 14.718C50.3458 14.5689 50.5759 14.3622 50.7421 14.098C50.9126 13.8338 50.9978 13.5355 50.9978 13.2031C50.9978 12.8622 50.9126 12.5597 50.7421 12.2955C50.5716 12.0312 50.3373 11.8246 50.039 11.6754C49.7449 11.522 49.4083 11.4453 49.029 11.4453C48.654 11.4453 48.3174 11.522 48.0191 11.6754C47.7208 11.8246 47.4864 12.0312 47.316 12.2955C47.1455 12.5597 47.0603 12.8622 47.0603 13.2031C47.0603 13.5355 47.1434 13.8338 47.3096 14.098C47.48 14.358 47.7123 14.5625 48.0063 14.7116C48.3046 14.8608 48.6455 14.9354 49.029 14.9354ZM49.029 9.21449C49.3614 9.21449 49.6555 9.14631 49.9111 9.00994C50.1711 8.87358 50.3735 8.68395 50.5184 8.44105C50.6675 8.19815 50.7421 7.9233 50.7421 7.61648C50.7421 7.30966 50.6675 7.03906 50.5184 6.80469C50.3735 6.57031 50.1732 6.38707 49.9175 6.25497C49.6618 6.11861 49.3657 6.05043 49.029 6.05043C48.6966 6.05043 48.4005 6.11861 48.1405 6.25497C47.8806 6.38707 47.6782 6.57031 47.5333 6.80469C47.3884 7.03906 47.316 7.30966 47.316 7.61648C47.316 7.9233 47.3884 8.19815 47.5333 8.44105C47.6824 8.67969 47.887 8.86932 48.1469 9.00994C48.4069 9.14631 48.7009 9.21449 49.029 9.21449ZM56.0795 17V14.7244L60.8543 10.544C61.2123 10.2202 61.517 9.92401 61.7684 9.65554C62.0198 9.38281 62.2116 9.11009 62.3437 8.83736C62.4758 8.56037 62.5418 8.25994 62.5418 7.93608C62.5418 7.57386 62.463 7.26491 62.3053 7.00923C62.1476 6.74929 61.9303 6.54901 61.6533 6.40838C61.3763 6.26776 61.0589 6.19744 60.7009 6.19744C60.3387 6.19744 60.0212 6.27202 59.7485 6.42116C59.4758 6.56605 59.2627 6.77699 59.1093 7.05398C58.9601 7.33097 58.8856 7.66761 58.8856 8.06392H55.8877C55.8877 7.1733 56.088 6.40412 56.4885 5.75639C56.8891 5.10866 57.4516 4.61008 58.176 4.26065C58.9047 3.90696 59.7506 3.73011 60.7137 3.73011C61.7066 3.73011 62.5695 3.89631 63.3025 4.22869C64.0354 4.56108 64.6022 5.02557 65.0028 5.62216C65.4076 6.21449 65.61 6.9027 65.61 7.68679C65.61 8.18537 65.5099 8.67969 65.3096 9.16974C65.1093 9.6598 64.7492 10.201 64.2293 10.7933C63.7137 11.3857 62.9807 12.0952 62.0305 12.9219L60.4644 14.3665V14.4496H65.7698V17H56.0795Z" fill="white"/>
<path d="M17.4851 54V36.5455H21.7038V43.5511H28.5817V36.5455H32.7919V54H28.5817V46.9858H21.7038V54H17.4851ZM35.4382 54V36.5455H39.657V43.9261H39.8871L45.657 36.5455H50.6257L44.4382 44.3352L50.7365 54H45.6911L41.3445 47.1392L39.657 49.2699V54H35.4382ZM56.5085 36.5455V54H52.2898V36.5455H56.5085Z" fill="white"/>
</svg>
