<svg width="73" height="73" viewBox="0 0 73 73" fill="none" xmlns="http://www.w3.org/2000/svg">
<rect width="73" height="73" rx="5" fill="#E666CE"/>
<path d="M0 4.99999C0 2.23857 2.23858 0 5 0H68C70.7614 0 73 2.23858 73 5V21.15H0V4.99999Z" fill="black"/>
<path d="M7.62789 16V5.09091H10.2646V13.8587H14.803V16H7.62789ZM25.4524 5.09091V16H23.2152L18.8739 9.70383H18.8046V16H16.1679V5.09091H18.4371L22.7304 11.3764H22.821V5.09091H25.4524ZM31.3504 16.1491C30.5016 16.1491 29.7435 16.0142 29.0759 15.7443C28.4118 15.4709 27.8898 15.1016 27.5098 14.6364C27.1334 14.1676 26.9452 13.6385 26.9452 13.049C26.9452 12.598 27.0535 12.1843 27.2701 11.8079C27.4867 11.4315 27.7797 11.119 28.149 10.8704C28.5219 10.6183 28.9374 10.4567 29.3955 10.3857V10.3004C28.7953 10.1903 28.3035 9.91158 27.92 9.46413C27.54 9.01669 27.35 8.4929 27.35 7.89276C27.35 7.32457 27.5222 6.81854 27.8667 6.37464C28.2147 5.93075 28.6888 5.58097 29.2889 5.32528C29.8926 5.0696 30.5798 4.94176 31.3504 4.94176C32.121 4.94176 32.8063 5.0696 33.4065 5.32528C34.0102 5.58097 34.4842 5.93075 34.8287 6.37464C35.1767 6.81854 35.3507 7.32457 35.3507 7.89276C35.3507 8.49645 35.1572 9.02202 34.7701 9.46946C34.3866 9.91335 33.8983 10.1903 33.3053 10.3004V10.3857C33.7598 10.4567 34.1717 10.6183 34.5411 10.8704C34.9139 11.119 35.2087 11.4315 35.4253 11.8079C35.6455 12.1843 35.7555 12.598 35.7555 13.049C35.7555 13.6385 35.5656 14.1676 35.1856 14.6364C34.8056 15.1016 34.2836 15.4709 33.6195 15.7443C32.959 16.0142 32.2026 16.1491 31.3504 16.1491ZM31.3504 14.2795C31.6735 14.2795 31.9576 14.2191 32.2026 14.0984C32.4477 13.9741 32.6394 13.8018 32.7779 13.5817C32.92 13.3615 32.991 13.1129 32.991 12.8359C32.991 12.5518 32.92 12.2997 32.7779 12.0795C32.6359 11.8594 32.4406 11.6871 32.192 11.5629C31.947 11.435 31.6664 11.3711 31.3504 11.3711C31.0379 11.3711 30.7573 11.435 30.5087 11.5629C30.2602 11.6871 30.0649 11.8594 29.9228 12.0795C29.7808 12.2997 29.7097 12.5518 29.7097 12.8359C29.7097 13.1129 29.779 13.3615 29.9175 13.5817C30.0595 13.7983 30.2531 13.9688 30.4981 14.093C30.7467 14.2173 31.0308 14.2795 31.3504 14.2795ZM31.3504 9.51207C31.6274 9.51207 31.8724 9.45526 32.0854 9.34162C32.3021 9.22798 32.4707 9.06996 32.5915 8.86754C32.7158 8.66513 32.7779 8.43608 32.7779 8.1804C32.7779 7.92472 32.7158 7.69922 32.5915 7.50391C32.4707 7.30859 32.3038 7.15589 32.0908 7.04581C31.8777 6.93217 31.6309 6.87535 31.3504 6.87535C31.0734 6.87535 30.8266 6.93217 30.61 7.04581C30.3933 7.15589 30.2247 7.30859 30.1039 7.50391C29.9832 7.69922 29.9228 7.92472 29.9228 8.1804C29.9228 8.43608 29.9832 8.66513 30.1039 8.86754C30.2282 9.06641 30.3987 9.22443 30.6153 9.34162C30.8319 9.45526 31.0769 9.51207 31.3504 9.51207ZM41.4871 16.1491C40.6384 16.1491 39.8802 16.0142 39.2126 15.7443C38.5485 15.4709 38.0265 15.1016 37.6465 14.6364C37.2701 14.1676 37.0819 13.6385 37.0819 13.049C37.0819 12.598 37.1902 12.1843 37.4068 11.8079C37.6234 11.4315 37.9164 11.119 38.2857 10.8704C38.6586 10.6183 39.0741 10.4567 39.5322 10.3857V10.3004C38.932 10.1903 38.4402 9.91158 38.0567 9.46413C37.6767 9.01669 37.4867 8.4929 37.4867 7.89276C37.4867 7.32457 37.659 6.81854 38.0034 6.37464C38.3514 5.93075 38.8255 5.58097 39.4256 5.32528C40.0293 5.0696 40.7165 4.94176 41.4871 4.94176C42.2577 4.94176 42.943 5.0696 43.5432 5.32528C44.1469 5.58097 44.621 5.93075 44.9654 6.37464C45.3134 6.81854 45.4874 7.32457 45.4874 7.89276C45.4874 8.49645 45.2939 9.02202 44.9068 9.46946C44.5233 9.91335 44.035 10.1903 43.442 10.3004V10.3857C43.8965 10.4567 44.3085 10.6183 44.6778 10.8704C45.0506 11.119 45.3454 11.4315 45.562 11.8079C45.7822 12.1843 45.8923 12.598 45.8923 13.049C45.8923 13.6385 45.7023 14.1676 45.3223 14.6364C44.9423 15.1016 44.4203 15.4709 43.7563 15.7443C43.0957 16.0142 42.3394 16.1491 41.4871 16.1491ZM41.4871 14.2795C41.8102 14.2795 42.0943 14.2191 42.3394 14.0984C42.5844 13.9741 42.7761 13.8018 42.9146 13.5817C43.0567 13.3615 43.1277 13.1129 43.1277 12.8359C43.1277 12.5518 43.0567 12.2997 42.9146 12.0795C42.7726 11.8594 42.5773 11.6871 42.3287 11.5629C42.0837 11.435 41.8031 11.3711 41.4871 11.3711C41.1746 11.3711 40.894 11.435 40.6455 11.5629C40.3969 11.6871 40.2016 11.8594 40.0595 12.0795C39.9175 12.2997 39.8465 12.5518 39.8465 12.8359C39.8465 13.1129 39.9157 13.3615 40.0542 13.5817C40.1962 13.7983 40.3898 13.9688 40.6348 14.093C40.8834 14.2173 41.1675 14.2795 41.4871 14.2795ZM41.4871 9.51207C41.7641 9.51207 42.0091 9.45526 42.2222 9.34162C42.4388 9.22798 42.6075 9.06996 42.7282 8.86754C42.8525 8.66513 42.9146 8.43608 42.9146 8.1804C42.9146 7.92472 42.8525 7.69922 42.7282 7.50391C42.6075 7.30859 42.4406 7.15589 42.2275 7.04581C42.0144 6.93217 41.7676 6.87535 41.4871 6.87535C41.2101 6.87535 40.9633 6.93217 40.7467 7.04581C40.5301 7.15589 40.3614 7.30859 40.2406 7.50391C40.1199 7.69922 40.0595 7.92472 40.0595 8.1804C40.0595 8.43608 40.1199 8.66513 40.2406 8.86754C40.3649 9.06641 40.5354 9.22443 40.752 9.34162C40.9686 9.45526 41.2136 9.51207 41.4871 9.51207ZM47.3624 16V14.1037L51.3415 10.62C51.6398 10.3501 51.8937 10.1033 52.1032 9.87962C52.3127 9.65234 52.4725 9.42507 52.5826 9.1978C52.6927 8.96697 52.7477 8.71662 52.7477 8.44673C52.7477 8.14489 52.682 7.88743 52.5506 7.67436C52.4193 7.45774 52.2381 7.29084 52.0073 7.17365C51.7765 7.05646 51.5119 6.99787 51.2136 6.99787C50.9118 6.99787 50.6472 7.06001 50.42 7.1843C50.1927 7.30504 50.0151 7.48082 49.8873 7.71165C49.763 7.94247 49.7009 8.22301 49.7009 8.55327H47.2026C47.2026 7.81108 47.3695 7.1701 47.7033 6.63033C48.0372 6.09055 48.5059 5.67507 49.1096 5.38388C49.7168 5.08913 50.4217 4.94176 51.2243 4.94176C52.0517 4.94176 52.7708 5.08026 53.3816 5.35724C53.9924 5.63423 54.4647 6.02131 54.7985 6.51847C55.1359 7.01207 55.3046 7.58558 55.3046 8.23899C55.3046 8.65447 55.2211 9.06641 55.0542 9.47479C54.8873 9.88317 54.5872 10.3342 54.154 10.8278C53.7243 11.3214 53.1135 11.9126 52.3216 12.6016L51.0166 13.8054V13.8746H55.4377V16H47.3624ZM59.6179 5.09091L61.61 8.53729H61.6953L63.7088 5.09091H66.6598L63.3679 10.5455L66.7663 16H63.7407L61.6953 12.5163H61.61L59.5646 16H56.5603L59.9428 10.5455L56.6456 5.09091H59.6179Z" fill="white"/>
<path d="M11.8651 51V39.3636H19.8082V41.6477H14.6776V44.0341H19.3026V46.3239H14.6776V51H11.8651ZM23.544 51.1477C22.9872 51.1477 22.4929 51.0549 22.0611 50.8693C21.633 50.6799 21.294 50.3958 21.044 50.017C20.7978 49.6345 20.6747 49.1553 20.6747 48.5795C20.6747 48.0947 20.7599 47.6856 20.9304 47.3523C21.1009 47.0189 21.3357 46.7481 21.6349 46.5398C21.9342 46.3314 22.2789 46.1742 22.669 46.0682C23.0592 45.9583 23.4759 45.8845 23.919 45.8466C24.4152 45.8011 24.8149 45.7538 25.1179 45.7045C25.4209 45.6515 25.6406 45.5777 25.777 45.483C25.9171 45.3845 25.9872 45.2462 25.9872 45.0682V45.0398C25.9872 44.7481 25.8868 44.5227 25.6861 44.3636C25.4853 44.2045 25.2145 44.125 24.8736 44.125C24.5062 44.125 24.2107 44.2045 23.9872 44.3636C23.7637 44.5227 23.6217 44.7424 23.5611 45.0227L20.9986 44.9318C21.0743 44.4015 21.2694 43.928 21.5838 43.5114C21.902 43.0909 22.3376 42.7614 22.8906 42.5227C23.4474 42.2803 24.116 42.1591 24.8963 42.1591C25.4531 42.1591 25.9664 42.2254 26.4361 42.358C26.9058 42.4867 27.3149 42.6761 27.6634 42.9261C28.0118 43.1723 28.2808 43.4754 28.4702 43.8352C28.6634 44.1951 28.7599 44.6061 28.7599 45.0682V51H26.1463V49.7841H26.0781C25.9228 50.0795 25.724 50.3295 25.4815 50.5341C25.2429 50.7386 24.9607 50.892 24.6349 50.9943C24.313 51.0966 23.9493 51.1477 23.544 51.1477ZM24.402 49.3295C24.7012 49.3295 24.9702 49.2689 25.2088 49.1477C25.4512 49.0265 25.6444 48.8598 25.7884 48.6477C25.9323 48.4318 26.0043 48.1818 26.0043 47.8977V47.0682C25.9247 47.1098 25.8281 47.1477 25.7145 47.1818C25.6046 47.2159 25.4834 47.2481 25.3509 47.2784C25.2183 47.3087 25.0819 47.3352 24.9418 47.358C24.8016 47.3807 24.6671 47.4015 24.5384 47.4205C24.277 47.4621 24.0535 47.5265 23.8679 47.6136C23.6861 47.7008 23.5459 47.8144 23.4474 47.9545C23.3527 48.0909 23.3054 48.2538 23.3054 48.4432C23.3054 48.7311 23.4077 48.9508 23.6122 49.1023C23.8205 49.2538 24.0838 49.3295 24.402 49.3295ZM30.4588 51V42.2727H33.1009V43.875H33.1974C33.3793 43.3447 33.6861 42.9261 34.1179 42.6193C34.5497 42.3125 35.0649 42.1591 35.6634 42.1591C36.2694 42.1591 36.7884 42.3144 37.2202 42.625C37.652 42.9356 37.9266 43.3523 38.044 43.875H38.1349C38.2978 43.3561 38.616 42.9413 39.0895 42.6307C39.563 42.3163 40.1217 42.1591 40.7656 42.1591C41.5914 42.1591 42.2618 42.4242 42.777 42.9545C43.2921 43.4811 43.5497 44.2045 43.5497 45.125V51H40.7713V45.7614C40.7713 45.3258 40.6596 44.9943 40.4361 44.767C40.2126 44.536 39.9228 44.4205 39.5668 44.4205C39.1842 44.4205 38.883 44.5455 38.6634 44.7955C38.4474 45.0417 38.3395 45.3731 38.3395 45.7898V51H35.669V45.733C35.669 45.3277 35.5592 45.0076 35.3395 44.7727C35.1198 44.5379 34.83 44.4205 34.4702 44.4205C34.2277 44.4205 34.0137 44.4792 33.8281 44.5966C33.6425 44.7102 33.4967 44.8731 33.3906 45.0852C33.2884 45.2973 33.2372 45.5473 33.2372 45.8352V51H30.4588ZM45.2713 51V42.2727H48.0497V51H45.2713ZM46.6634 41.2557C46.2732 41.2557 45.938 41.1269 45.6577 40.8693C45.3774 40.608 45.2372 40.2936 45.2372 39.9261C45.2372 39.5625 45.3774 39.2519 45.6577 38.9943C45.938 38.733 46.2732 38.6023 46.6634 38.6023C47.0573 38.6023 47.3925 38.733 47.669 38.9943C47.9493 39.2519 48.0895 39.5625 48.0895 39.9261C48.0895 40.2936 47.9493 40.608 47.669 40.8693C47.3925 41.1269 47.0573 41.2557 46.6634 41.2557ZM52.5966 39.3636V51H49.8182V39.3636H52.5966ZM56.0639 54.2727C55.7306 54.2727 55.4162 54.2462 55.1207 54.1932C54.8253 54.1439 54.5715 54.0777 54.3594 53.9943L54.973 51.9773C55.2457 52.0682 55.492 52.1212 55.7116 52.1364C55.9351 52.1515 56.1264 52.1155 56.2855 52.0284C56.4484 51.9451 56.5734 51.7955 56.6605 51.5795L56.7685 51.3182L53.6662 42.2727H56.5753L58.1832 48.5H58.2741L59.9048 42.2727H62.831L59.5412 51.8352C59.3821 52.3125 59.1567 52.733 58.8651 53.0966C58.5772 53.464 58.2041 53.7519 57.7457 53.9602C57.2912 54.1686 56.7306 54.2727 56.0639 54.2727Z" fill="white"/>
</svg>
