<svg width="73" height="73" viewBox="0 0 73 73" fill="none" xmlns="http://www.w3.org/2000/svg">
<rect width="73" height="73" rx="5" fill="#3CCEBC"/>
<path d="M0 4.99999C0 2.23857 2.23858 0 5 0H68C70.7614 0 73 2.23858 73 5V21.15H0V4.99999Z" fill="black"/>
<path d="M22.574 5.09091V16H20.3367L15.9955 9.70383H15.9262V16H13.2895V5.09091H15.5587L19.852 11.3764H19.9426V5.09091H22.574ZM24.2319 16V5.09091H28.7383C29.555 5.09091 30.2599 5.23828 30.853 5.53303C31.4496 5.82422 31.9094 6.24325 32.2326 6.79013C32.5558 7.33345 32.7173 7.97798 32.7173 8.72372C32.7173 9.48011 32.5522 10.1229 32.2219 10.652C31.8917 11.1776 31.4229 11.5788 30.8157 11.8558C30.2085 12.1293 29.4893 12.266 28.6584 12.266H25.8086V10.1886H28.1683C28.5661 10.1886 28.8981 10.1371 29.1644 10.0341C29.4343 9.92756 29.6385 9.76776 29.777 9.55469C29.9155 9.33807 29.9847 9.06108 29.9847 8.72372C29.9847 8.38636 29.9155 8.1076 29.777 7.88743C29.6385 7.66371 29.4343 7.4968 29.1644 7.38672C28.8945 7.27308 28.5625 7.21626 28.1683 7.21626H26.8686V16H24.2319ZM30.3736 11.0142L33.0902 16H30.2138L27.5504 11.0142H30.3736ZM34.1635 16V5.09091H41.6103V7.23224H36.8002V9.46946H41.1362V11.6161H36.8002V16H34.1635ZM47.0928 16.1491C46.2973 16.1491 45.5906 16.0053 44.9727 15.7177C44.3548 15.43 43.8666 15.0341 43.5079 14.5298C43.1528 14.0256 42.9681 13.4467 42.9539 12.7933H45.5107C45.532 13.1946 45.6954 13.5178 46.0008 13.7628C46.3062 14.0043 46.6702 14.125 47.0928 14.125C47.423 14.125 47.716 14.0522 47.9717 13.9066C48.2274 13.761 48.428 13.5568 48.5736 13.294C48.7192 13.0277 48.7902 12.7223 48.7867 12.3778C48.7902 12.0263 48.7174 11.7191 48.5683 11.4563C48.4227 11.1935 48.2203 10.9893 47.961 10.8438C47.7053 10.6946 47.4106 10.62 47.0768 10.62C46.7607 10.6165 46.4607 10.6857 46.1766 10.8278C45.896 10.9698 45.683 11.1634 45.5374 11.4084L43.2096 10.9716L43.6837 5.09091H50.683V7.21626H45.8517L45.6013 9.78906H45.6652C45.8463 9.48722 46.1375 9.23864 46.5388 9.04332C46.9436 8.84446 47.4035 8.74503 47.9184 8.74503C48.5718 8.74503 49.1542 8.89773 49.6656 9.20312C50.1805 9.50497 50.5853 9.92401 50.8801 10.4602C51.1784 10.9964 51.3275 11.6108 51.3275 12.3033C51.3275 13.0526 51.1499 13.7166 50.7948 14.2955C50.4433 14.8743 49.9497 15.3288 49.314 15.6591C48.6819 15.9858 47.9415 16.1491 47.0928 16.1491ZM52.775 16V14.1037L56.7541 10.62C57.0524 10.3501 57.3063 10.1033 57.5158 9.87962C57.7253 9.65234 57.8851 9.42507 57.9952 9.1978C58.1053 8.96697 58.1603 8.71662 58.1603 8.44673C58.1603 8.14489 58.0946 7.88743 57.9632 7.67436C57.8319 7.45774 57.6507 7.29084 57.4199 7.17365C57.1891 7.05646 56.9245 6.99787 56.6262 6.99787C56.3244 6.99787 56.0598 7.06001 55.8326 7.1843C55.6053 7.30504 55.4277 7.48082 55.2999 7.71165C55.1756 7.94247 55.1135 8.22301 55.1135 8.55327H52.6152C52.6152 7.81108 52.7821 7.1701 53.1159 6.63033C53.4498 6.09055 53.9185 5.67507 54.5222 5.38388C55.1294 5.08913 55.8343 4.94176 56.6369 4.94176C57.4643 4.94176 58.1834 5.08026 58.7942 5.35724C59.405 5.63423 59.8773 6.02131 60.2111 6.51847C60.5485 7.01207 60.7172 7.58558 60.7172 8.23899C60.7172 8.65447 60.6337 9.06641 60.4668 9.47479C60.2999 9.88317 59.9998 10.3342 59.5666 10.8278C59.1369 11.3214 58.5261 11.9126 57.7342 12.6016L56.4292 13.8054V13.8746H60.8503V16H52.775Z" fill="white"/>
<path d="M17.1018 44.1442C17.0455 43.9354 16.9626 43.7514 16.8532 43.5923C16.7439 43.4299 16.6096 43.2924 16.4506 43.1797C16.2915 43.067 16.1092 42.9825 15.9037 42.9261C15.6982 42.8665 15.4728 42.8366 15.2275 42.8366C14.7337 42.8366 14.3061 42.956 13.9449 43.1946C13.5869 43.4332 13.3102 43.7812 13.1146 44.2386C12.9191 44.6927 12.8213 45.2446 12.8213 45.8942C12.8213 46.5471 12.9157 47.1039 13.1047 47.5646C13.2936 48.0253 13.567 48.3767 13.925 48.6186C14.2829 48.8606 14.7171 48.9815 15.2275 48.9815C15.6783 48.9815 16.0595 48.9086 16.371 48.7628C16.6859 48.6136 16.9245 48.4032 17.0869 48.1314C17.2493 47.8596 17.3305 47.5398 17.3305 47.1719L17.7879 47.2266H15.3121V45.4318H19.702V46.7791C19.702 47.6906 19.5081 48.4711 19.1203 49.1207C18.7358 49.7704 18.2055 50.2692 17.5294 50.6172C16.8566 50.9652 16.0827 51.1392 15.2077 51.1392C14.2365 51.1392 13.3831 50.9287 12.6473 50.5078C11.9115 50.0869 11.3381 49.487 10.9271 48.7081C10.5161 47.9259 10.3106 46.9979 10.3106 45.924C10.3106 45.0888 10.4349 44.348 10.6835 43.7017C10.9321 43.0521 11.2784 42.5019 11.7226 42.0511C12.17 41.6004 12.6871 41.259 13.2737 41.027C13.8637 40.795 14.4984 40.679 15.1778 40.679C15.7678 40.679 16.3163 40.7635 16.8234 40.9325C17.3338 41.1016 17.7846 41.3402 18.1757 41.6484C18.5701 41.9567 18.8899 42.3229 19.1352 42.7472C19.3805 43.1714 19.5329 43.6371 19.5926 44.1442H17.1018ZM24.722 51.1442C23.9233 51.1442 23.2339 50.9867 22.6539 50.6719C22.0771 50.3537 21.633 49.9013 21.3215 49.3146C21.0132 48.7247 20.8591 48.0237 20.8591 47.2116C20.8591 46.4228 21.0149 45.7334 21.3264 45.1435C21.638 44.5502 22.0771 44.0895 22.6439 43.7614C23.2107 43.4299 23.8785 43.2642 24.6475 43.2642C25.191 43.2642 25.6882 43.3487 26.1389 43.5178C26.5897 43.6868 26.9791 43.937 27.3073 44.2685C27.6354 44.5999 27.8906 45.0092 28.0729 45.4964C28.2552 45.9804 28.3463 46.5355 28.3463 47.1619V47.7685H21.7093V46.3565H26.0843C26.0809 46.098 26.0196 45.8677 25.9003 45.6655C25.781 45.4633 25.6169 45.3059 25.4081 45.1932C25.2026 45.0772 24.9656 45.0192 24.6972 45.0192C24.4254 45.0192 24.1818 45.0805 23.9664 45.2031C23.7509 45.3224 23.5802 45.4865 23.4543 45.6953C23.3283 45.9008 23.262 46.1345 23.2554 46.3963V47.8331C23.2554 48.1446 23.3167 48.4181 23.4394 48.6534C23.562 48.8854 23.736 49.0661 23.9614 49.1953C24.1868 49.3246 24.4552 49.3892 24.7668 49.3892C24.9822 49.3892 25.1778 49.3594 25.3534 49.2997C25.5291 49.2401 25.6799 49.1522 25.8058 49.0362C25.9318 48.9202 26.0262 48.7777 26.0892 48.6087L28.3215 48.6733C28.2287 49.1738 28.0248 49.6096 27.71 49.9808C27.3984 50.3487 26.9891 50.6354 26.482 50.8409C25.9749 51.0431 25.3882 51.1442 24.722 51.1442ZM32.0191 46.6449V51H29.588V43.3636H31.8998V44.7656H31.9843C32.1533 44.2983 32.4417 43.9321 32.8493 43.6669C33.257 43.3984 33.7426 43.2642 34.306 43.2642C34.843 43.2642 35.3086 43.3852 35.703 43.6271C36.1008 43.8658 36.409 44.2005 36.6278 44.6314C36.8498 45.0589 36.9592 45.5594 36.9559 46.1328V51H34.5248V46.6101C34.5281 46.1858 34.4204 45.8544 34.2016 45.6158C33.9862 45.3771 33.6862 45.2578 33.3018 45.2578C33.0465 45.2578 32.8212 45.3142 32.6256 45.4268C32.4334 45.5362 32.2842 45.6937 32.1782 45.8991C32.0754 46.1046 32.0224 46.3532 32.0191 46.6449ZM42.0306 51.1442C41.2319 51.1442 40.5425 50.9867 39.9624 50.6719C39.3857 50.3537 38.9416 49.9013 38.6301 49.3146C38.3218 48.7247 38.1677 48.0237 38.1677 47.2116C38.1677 46.4228 38.3235 45.7334 38.635 45.1435C38.9466 44.5502 39.3857 44.0895 39.9525 43.7614C40.5193 43.4299 41.1871 43.2642 41.9561 43.2642C42.4996 43.2642 42.9968 43.3487 43.4475 43.5178C43.8983 43.6868 44.2877 43.937 44.6159 44.2685C44.944 44.5999 45.1992 45.0092 45.3815 45.4964C45.5638 45.9804 45.6549 46.5355 45.6549 47.1619V47.7685H39.0178V46.3565H43.3928C43.3895 46.098 43.3282 45.8677 43.2089 45.6655C43.0896 45.4633 42.9255 45.3059 42.7167 45.1932C42.5112 45.0772 42.2742 45.0192 42.0058 45.0192C41.734 45.0192 41.4904 45.0805 41.2749 45.2031C41.0595 45.3224 40.8888 45.4865 40.7629 45.6953C40.6369 45.9008 40.5706 46.1345 40.564 46.3963V47.8331C40.564 48.1446 40.6253 48.4181 40.748 48.6534C40.8706 48.8854 41.0446 49.0661 41.27 49.1953C41.4954 49.3246 41.7638 49.3892 42.0754 49.3892C42.2908 49.3892 42.4864 49.3594 42.662 49.2997C42.8377 49.2401 42.9885 49.1522 43.1144 49.0362C43.2404 48.9202 43.3348 48.7777 43.3978 48.6087L45.6301 48.6733C45.5373 49.1738 45.3334 49.6096 45.0186 49.9808C44.707 50.3487 44.2977 50.6354 43.7906 50.8409C43.2835 51.0431 42.6968 51.1442 42.0306 51.1442ZM46.8966 51V43.3636H49.2581V44.7557H49.3376C49.4768 44.2519 49.7039 43.8774 50.0187 43.6321C50.3336 43.3835 50.6998 43.2592 51.1175 43.2592C51.2301 43.2592 51.3461 43.2675 51.4655 43.2841C51.5848 43.2973 51.6958 43.3189 51.7986 43.3487V45.4616C51.6826 45.4219 51.5301 45.3904 51.3412 45.3672C51.1556 45.344 50.9898 45.3324 50.844 45.3324C50.5557 45.3324 50.2955 45.397 50.0635 45.5263C49.8348 45.6522 49.6541 45.8295 49.5216 46.0582C49.3923 46.2836 49.3277 46.5488 49.3277 46.8537V51H46.8966ZM52.7892 51V43.3636H55.2203V51H52.7892ZM54.0072 42.4737C53.6658 42.4737 53.3725 42.361 53.1272 42.1357C52.882 41.907 52.7593 41.6319 52.7593 41.3104C52.7593 40.9922 52.882 40.7204 53.1272 40.495C53.3725 40.2663 53.6658 40.152 54.0072 40.152C54.3519 40.152 54.6452 40.2663 54.8872 40.495C55.1324 40.7204 55.2551 40.9922 55.2551 41.3104C55.2551 41.6319 55.1324 41.907 54.8872 42.1357C54.6452 42.361 54.3519 42.4737 54.0072 42.4737ZM60.3323 51.1442C59.5269 51.1442 58.8358 50.9785 58.2591 50.647C57.6858 50.3156 57.2449 49.8549 56.9367 49.2649C56.6285 48.6716 56.4743 47.9856 56.4743 47.2067C56.4743 46.4245 56.6285 45.7384 56.9367 45.1484C57.2483 44.5552 57.6907 44.0928 58.2641 43.7614C58.8408 43.4299 59.5286 43.2642 60.3273 43.2642C61.0333 43.2642 61.6481 43.3918 62.1718 43.647C62.6988 43.9022 63.1098 44.2635 63.4047 44.7308C63.703 45.1948 63.8605 45.7401 63.877 46.3665H61.605C61.5586 45.9754 61.426 45.6688 61.2073 45.4467C60.9919 45.2247 60.7101 45.1136 60.3621 45.1136C60.0804 45.1136 59.8335 45.1932 59.6214 45.3523C59.4092 45.508 59.2435 45.7401 59.1242 46.0483C59.0082 46.3532 58.9502 46.7311 58.9502 47.1818C58.9502 47.6326 59.0082 48.0137 59.1242 48.3253C59.2435 48.6335 59.4092 48.8672 59.6214 49.0263C59.8335 49.1821 60.0804 49.2599 60.3621 49.2599C60.5875 49.2599 60.7864 49.2119 60.9587 49.1158C61.1344 49.0196 61.2786 48.8788 61.3912 48.6932C61.5039 48.5043 61.5752 48.2756 61.605 48.0071H63.877C63.8538 48.6368 63.6964 49.187 63.4047 49.6577C63.1164 50.1283 62.7104 50.4946 62.1867 50.7564C61.6663 51.0149 61.0482 51.1442 60.3323 51.1442Z" fill="white"/>
</svg>
