<svg width="73" height="73" viewBox="0 0 73 73" fill="none" xmlns="http://www.w3.org/2000/svg">
<rect width="73" height="73" rx="5" fill="#DD1B1B"/>
<path d="M0 4.99999C0 2.23857 2.23858 0 5 0H68C70.7614 0 73 2.23858 73 5V21.15H0V4.99999Z" fill="black"/>
<path d="M10.6213 53V50.4716L15.9267 45.8267C16.3244 45.4669 16.6629 45.1378 16.9423 44.8395C17.2217 44.5365 17.4347 44.2334 17.5815 43.9304C17.7283 43.6226 17.8017 43.2888 17.8017 42.929C17.8017 42.5265 17.7141 42.1832 17.5389 41.8991C17.3637 41.6103 17.1222 41.3878 16.8145 41.2315C16.5067 41.0753 16.1539 40.9972 15.7562 40.9972C15.3538 40.9972 15.001 41.08 14.698 41.2457C14.3949 41.4067 14.1582 41.6411 13.9877 41.9489C13.822 42.2566 13.7392 42.6307 13.7392 43.071H10.4082C10.4082 42.0814 10.6307 41.2268 11.0758 40.5071C11.5209 39.7874 12.1459 39.2334 12.9508 38.8452C13.7605 38.4522 14.7003 38.2557 15.7704 38.2557C16.8736 38.2557 17.8324 38.4403 18.6468 38.8097C19.4612 39.179 20.091 39.6951 20.536 40.358C20.9859 41.0161 21.2108 41.7808 21.2108 42.652C21.2108 43.206 21.0995 43.7552 20.877 44.2997C20.6544 44.8442 20.2543 45.4455 19.6767 46.1037C19.1038 46.7618 18.2894 47.5502 17.2335 48.4688L15.4934 50.0739V50.1662H21.3883V53H10.6213ZM29.3908 53.3551C28.1219 53.3551 27.0281 53.0545 26.1096 52.4531C25.191 51.8471 24.4831 50.9782 23.986 49.8466C23.4888 48.7102 23.2426 47.3442 23.2473 45.7486C23.2521 44.1529 23.5007 42.7988 23.9931 41.6861C24.4902 40.5687 25.1957 39.7187 26.1096 39.1364C27.0281 38.5492 28.1219 38.2557 29.3908 38.2557C30.6597 38.2557 31.7535 38.5492 32.6721 39.1364C33.5953 39.7187 34.3056 40.5687 34.8027 41.6861C35.2999 42.8035 35.5461 44.1577 35.5414 45.7486C35.5414 47.349 35.2928 48.7173 34.7956 49.8537C34.2985 50.9901 33.5906 51.8589 32.6721 52.4602C31.7582 53.0568 30.6645 53.3551 29.3908 53.3551ZM29.3908 50.4787C30.1484 50.4787 30.7615 50.0928 31.2303 49.321C31.699 48.5445 31.931 47.3537 31.9263 45.7486C31.9263 44.6974 31.8198 43.831 31.6067 43.1491C31.3936 42.4626 31.0977 41.9512 30.7189 41.6151C30.3401 41.2789 29.8974 41.1108 29.3908 41.1108C28.638 41.1108 28.0295 41.492 27.5655 42.2543C27.1015 43.0118 26.8671 44.1766 26.8624 45.7486C26.8577 46.8139 26.9595 47.697 27.1678 48.3977C27.3809 49.0985 27.6792 49.6217 28.0627 49.9673C28.4462 50.3082 28.8889 50.4787 29.3908 50.4787ZM37.3773 50.5852V47.8438L43.3361 38.4545H45.7722V42.1761H44.3588L40.8716 47.7017V47.8153H49.5009V50.5852H37.3773ZM44.4015 53V49.7472L44.4725 48.5469V38.4545H47.7608V53H44.4015ZM57.3596 53.3551C56.0906 53.3551 54.9969 53.0545 54.0783 52.4531C53.1597 51.8471 52.4519 50.9782 51.9547 49.8466C51.4576 48.7102 51.2114 47.3442 51.2161 45.7486C51.2208 44.1529 51.4694 42.7988 51.9618 41.6861C52.459 40.5687 53.1645 39.7187 54.0783 39.1364C54.9969 38.5492 56.0906 38.2557 57.3596 38.2557C58.6285 38.2557 59.7222 38.5492 60.6408 39.1364C61.5641 39.7187 62.2743 40.5687 62.7715 41.6861C63.2686 42.8035 63.5149 44.1577 63.5101 45.7486C63.5101 47.349 63.2615 48.7173 62.7644 49.8537C62.2672 50.9901 61.5594 51.8589 60.6408 52.4602C59.727 53.0568 58.6332 53.3551 57.3596 53.3551ZM57.3596 50.4787C58.1171 50.4787 58.7303 50.0928 59.199 49.321C59.6678 48.5445 59.8998 47.3537 59.8951 45.7486C59.8951 44.6974 59.7885 43.831 59.5755 43.1491C59.3624 42.4626 59.0665 41.9512 58.6877 41.6151C58.3089 41.2789 57.8662 41.1108 57.3596 41.1108C56.6067 41.1108 55.9983 41.492 55.5343 42.2543C55.0703 43.0118 54.8359 44.1766 54.8311 45.7486C54.8264 46.8139 54.9282 47.697 55.1365 48.3977C55.3496 49.0985 55.6479 49.6217 56.0314 49.9673C56.415 50.3082 56.8577 50.4787 57.3596 50.4787Z" fill="white"/>
<path d="M20.4214 17V3.90909H25.8291C26.8092 3.90909 27.6551 4.08594 28.3667 4.43963C29.0827 4.78906 29.6345 5.2919 30.0223 5.94815C30.4101 6.60014 30.604 7.37358 30.604 8.26847C30.604 9.17614 30.4058 9.94744 30.0095 10.5824C29.6132 11.2131 29.0507 11.6946 28.322 12.027C27.5933 12.3551 26.7304 12.5192 25.7332 12.5192H22.3135V10.0263H25.1452C25.6224 10.0263 26.0209 9.96449 26.3405 9.84091C26.6643 9.71307 26.9094 9.52131 27.0756 9.26562C27.2417 9.00568 27.3248 8.6733 27.3248 8.26847C27.3248 7.86364 27.2417 7.52912 27.0756 7.26491C26.9094 6.99645 26.6643 6.79616 26.3405 6.66406C26.0166 6.5277 25.6182 6.45952 25.1452 6.45952H23.5855V17H20.4214ZM27.7915 11.017L31.0514 17H27.5997L24.4037 11.017H27.7915ZM32.3394 17V3.90909H37.7471C38.7272 3.90909 39.5731 4.10085 40.2847 4.48438C41.0006 4.86364 41.5525 5.39418 41.9403 6.07599C42.328 6.75355 42.5219 7.5419 42.5219 8.44105C42.5219 9.34446 42.3238 10.1349 41.9275 10.8125C41.5354 11.4858 40.9751 12.0078 40.2464 12.3786C39.5177 12.7493 38.6526 12.9347 37.6512 12.9347H34.3145V10.4418H37.0631C37.5404 10.4418 37.9388 10.3587 38.2584 10.1925C38.5823 10.0263 38.8273 9.79403 38.9935 9.49574C39.1597 9.19318 39.2428 8.84162 39.2428 8.44105C39.2428 8.03622 39.1597 7.68679 38.9935 7.39276C38.8273 7.09446 38.5823 6.86435 38.2584 6.70241C37.9346 6.54048 37.5361 6.45952 37.0631 6.45952H35.5035V17H32.3394ZM44.056 17V14.7244L48.8309 10.544C49.1888 10.2202 49.4935 9.92401 49.7449 9.65554C49.9964 9.38281 50.1881 9.11009 50.3202 8.83736C50.4523 8.56037 50.5184 8.25994 50.5184 7.93608C50.5184 7.57386 50.4395 7.26491 50.2819 7.00923C50.1242 6.74929 49.9069 6.54901 49.6299 6.40838C49.3529 6.26776 49.0354 6.19744 48.6775 6.19744C48.3153 6.19744 47.9978 6.27202 47.7251 6.42116C47.4523 6.56605 47.2393 6.77699 47.0858 7.05398C46.9367 7.33097 46.8621 7.66761 46.8621 8.06392H43.8643C43.8643 7.1733 44.0645 6.40412 44.4651 5.75639C44.8657 5.10866 45.4282 4.61008 46.1526 4.26065C46.8813 3.90696 47.7272 3.73011 48.6903 3.73011C49.6832 3.73011 50.5461 3.89631 51.279 4.22869C52.012 4.56108 52.5787 5.02557 52.9793 5.62216C53.3841 6.21449 53.5866 6.9027 53.5866 7.68679C53.5866 8.18537 53.4864 8.67969 53.2861 9.16974C53.0858 9.6598 52.7258 10.201 52.2059 10.7933C51.6903 11.3857 50.9573 12.0952 50.007 12.9219L48.441 14.3665V14.4496H53.7464V17H44.056Z" fill="white"/>
</svg>
