<svg width="73" height="73" viewBox="0 0 73 73" fill="none" xmlns="http://www.w3.org/2000/svg">
<rect width="73" height="73" rx="5" fill="#DD1B1B"/>
<path d="M0 4.99999C0 2.23857 2.23858 0 5 0H68C70.7614 0 73 2.23858 73 5V21.15H0V4.99999Z" fill="black"/>
<path d="M11.3635 53V50.4716L16.6689 45.8267C17.0666 45.4669 17.4051 45.1378 17.6845 44.8395C17.9638 44.5365 18.1769 44.2334 18.3237 43.9304C18.4705 43.6226 18.5439 43.2888 18.5439 42.929C18.5439 42.5265 18.4563 42.1832 18.2811 41.8991C18.1059 41.6103 17.8644 41.3878 17.5566 41.2315C17.2489 41.0753 16.8961 40.9972 16.4984 40.9972C16.0959 40.9972 15.7432 41.08 15.4402 41.2457C15.1371 41.4067 14.9004 41.6411 14.7299 41.9489C14.5642 42.2566 14.4814 42.6307 14.4814 43.071H11.1504C11.1504 42.0814 11.3729 41.2268 11.818 40.5071C12.2631 39.7874 12.8881 39.2334 13.693 38.8452C14.5027 38.4522 15.4425 38.2557 16.5126 38.2557C17.6158 38.2557 18.5746 38.4403 19.389 38.8097C20.2034 39.179 20.8332 39.6951 21.2782 40.358C21.728 41.0161 21.9529 41.7808 21.9529 42.652C21.9529 43.206 21.8417 43.7552 21.6191 44.2997C21.3966 44.8442 20.9965 45.4455 20.4189 46.1037C19.8459 46.7618 19.0315 47.5502 17.9757 48.4688L16.2356 50.0739V50.1662H22.1305V53H11.3635ZM29.65 53.1989C28.5421 53.1989 27.5596 53.0095 26.7026 52.6307C25.8503 52.2472 25.178 51.7192 24.6855 51.0469C24.1931 50.3745 23.9422 49.6004 23.9327 48.7244H27.4696C27.4838 49.0417 27.5856 49.3234 27.775 49.5696C27.9644 49.8111 28.2225 50.0005 28.5492 50.1378C28.8759 50.2751 29.2476 50.3438 29.6642 50.3438C30.0809 50.3438 30.4479 50.2704 30.7651 50.1236C31.0871 49.9721 31.338 49.7661 31.5179 49.5057C31.6979 49.2405 31.7855 48.9375 31.7807 48.5966C31.7855 48.2557 31.6884 47.9527 31.4895 47.6875C31.2907 47.4223 31.0089 47.2164 30.6444 47.0696C30.2845 46.9228 29.8584 46.8494 29.3659 46.8494H27.9526V44.3494H29.3659C29.7968 44.3494 30.1756 44.2784 30.5023 44.1364C30.8337 43.9943 31.0918 43.7955 31.2765 43.5398C31.4611 43.2794 31.5511 42.9811 31.5463 42.6449C31.5511 42.3182 31.473 42.0317 31.312 41.7855C31.1557 41.5346 30.9355 41.3404 30.6515 41.2031C30.3721 41.0658 30.0478 40.9972 29.6784 40.9972C29.2902 40.9972 28.9374 41.0658 28.6202 41.2031C28.3077 41.3404 28.0591 41.5346 27.8745 41.7855C27.6898 42.0365 27.5927 42.3277 27.5833 42.6591H24.2239C24.2334 41.7926 24.4748 41.0303 24.9483 40.3722C25.4218 39.7093 26.0658 39.1908 26.8801 38.8168C27.6993 38.4427 28.632 38.2557 29.6784 38.2557C30.7201 38.2557 31.6363 38.438 32.427 38.8026C33.2177 39.1671 33.8333 39.6643 34.2736 40.294C34.714 40.919 34.9341 41.6269 34.9341 42.4176C34.9389 43.2367 34.6713 43.9115 34.1316 44.4418C33.5965 44.9721 32.9076 45.2988 32.0648 45.4219V45.5355C33.1917 45.6681 34.0416 46.0327 34.6145 46.6293C35.1922 47.2259 35.4786 47.9716 35.4739 48.8665C35.4739 49.7093 35.2253 50.4574 34.7282 51.1108C34.2357 51.7595 33.5492 52.2708 32.6685 52.6449C31.7926 53.0142 30.7864 53.1989 29.65 53.1989ZM43.0254 53.1989C41.9648 53.1989 41.0225 53.0071 40.1987 52.6236C39.3748 52.2401 38.7238 51.7121 38.2456 51.0398C37.7721 50.3674 37.5259 49.5956 37.5069 48.7244H40.916C40.9444 49.2595 41.1622 49.6903 41.5694 50.017C41.9766 50.339 42.4619 50.5 43.0254 50.5C43.4657 50.5 43.8564 50.4029 44.1973 50.2088C44.5382 50.0147 44.8057 49.7424 44.9998 49.392C45.194 49.0369 45.2886 48.6297 45.2839 48.1705C45.2886 47.7017 45.1916 47.2921 44.9927 46.9418C44.7986 46.5914 44.5287 46.3191 44.1831 46.125C43.8422 45.9261 43.4492 45.8267 43.0041 45.8267C42.5827 45.822 42.1826 45.9143 41.8038 46.1037C41.4297 46.2931 41.1457 46.5511 40.9515 46.8778L37.8478 46.2955L38.4799 38.4545H47.8123V41.2884H41.3706L41.0368 44.7188H41.122C41.3635 44.3163 41.7517 43.9848 42.2868 43.7244C42.8265 43.4593 43.4397 43.3267 44.1262 43.3267C44.9975 43.3267 45.774 43.5303 46.4558 43.9375C47.1423 44.34 47.6821 44.8987 48.0751 45.6136C48.4728 46.3286 48.6717 47.1477 48.6717 48.071C48.6717 49.0701 48.435 49.9555 47.9615 50.7273C47.4927 51.4991 46.8346 52.1051 45.987 52.5455C45.1442 52.9811 44.157 53.1989 43.0254 53.1989ZM56.6174 53.3551C55.3484 53.3551 54.2547 53.0545 53.3361 52.4531C52.4176 51.8471 51.7097 50.9782 51.2125 49.8466C50.7154 48.7102 50.4692 47.3442 50.4739 45.7486C50.4786 44.1529 50.7272 42.7988 51.2196 41.6861C51.7168 40.5687 52.4223 39.7187 53.3361 39.1364C54.2547 38.5492 55.3484 38.2557 56.6174 38.2557C57.8863 38.2557 58.9801 38.5492 59.8986 39.1364C60.8219 39.7187 61.5321 40.5687 62.0293 41.6861C62.5265 42.8035 62.7727 44.1577 62.7679 45.7486C62.7679 47.349 62.5194 48.7173 62.0222 49.8537C61.525 50.9901 60.8172 51.8589 59.8986 52.4602C58.9848 53.0568 57.891 53.3551 56.6174 53.3551ZM56.6174 50.4787C57.3749 50.4787 57.9881 50.0928 58.4569 49.321C58.9256 48.5445 59.1576 47.3537 59.1529 45.7486C59.1529 44.6974 59.0463 43.831 58.8333 43.1491C58.6202 42.4626 58.3243 41.9512 57.9455 41.6151C57.5667 41.2789 57.124 41.1108 56.6174 41.1108C55.8645 41.1108 55.2561 41.492 54.7921 42.2543C54.3281 43.0118 54.0937 44.1766 54.089 45.7486C54.0842 46.8139 54.186 47.697 54.3944 48.3977C54.6074 49.0985 54.9057 49.6217 55.2892 49.9673C55.6728 50.3082 56.1155 50.4787 56.6174 50.4787Z" fill="white"/>
<path d="M20.4214 17V3.90909H25.8291C26.8092 3.90909 27.6551 4.08594 28.3667 4.43963C29.0827 4.78906 29.6345 5.2919 30.0223 5.94815C30.4101 6.60014 30.604 7.37358 30.604 8.26847C30.604 9.17614 30.4058 9.94744 30.0095 10.5824C29.6132 11.2131 29.0507 11.6946 28.322 12.027C27.5933 12.3551 26.7304 12.5192 25.7332 12.5192H22.3135V10.0263H25.1452C25.6224 10.0263 26.0209 9.96449 26.3405 9.84091C26.6643 9.71307 26.9094 9.52131 27.0756 9.26562C27.2417 9.00568 27.3248 8.6733 27.3248 8.26847C27.3248 7.86364 27.2417 7.52912 27.0756 7.26491C26.9094 6.99645 26.6643 6.79616 26.3405 6.66406C26.0166 6.5277 25.6182 6.45952 25.1452 6.45952H23.5855V17H20.4214ZM27.7915 11.017L31.0514 17H27.5997L24.4037 11.017H27.7915ZM32.3394 17V3.90909H37.7471C38.7272 3.90909 39.5731 4.10085 40.2847 4.48438C41.0006 4.86364 41.5525 5.39418 41.9403 6.07599C42.328 6.75355 42.5219 7.5419 42.5219 8.44105C42.5219 9.34446 42.3238 10.1349 41.9275 10.8125C41.5354 11.4858 40.9751 12.0078 40.2464 12.3786C39.5177 12.7493 38.6526 12.9347 37.6512 12.9347H34.3145V10.4418H37.0631C37.5404 10.4418 37.9388 10.3587 38.2584 10.1925C38.5823 10.0263 38.8273 9.79403 38.9935 9.49574C39.1597 9.19318 39.2428 8.84162 39.2428 8.44105C39.2428 8.03622 39.1597 7.68679 38.9935 7.39276C38.8273 7.09446 38.5823 6.86435 38.2584 6.70241C37.9346 6.54048 37.5361 6.45952 37.0631 6.45952H35.5035V17H32.3394ZM44.056 17V14.7244L48.8309 10.544C49.1888 10.2202 49.4935 9.92401 49.7449 9.65554C49.9964 9.38281 50.1881 9.11009 50.3202 8.83736C50.4523 8.56037 50.5184 8.25994 50.5184 7.93608C50.5184 7.57386 50.4395 7.26491 50.2819 7.00923C50.1242 6.74929 49.9069 6.54901 49.6299 6.40838C49.3529 6.26776 49.0354 6.19744 48.6775 6.19744C48.3153 6.19744 47.9978 6.27202 47.7251 6.42116C47.4523 6.56605 47.2393 6.77699 47.0858 7.05398C46.9367 7.33097 46.8621 7.66761 46.8621 8.06392H43.8643C43.8643 7.1733 44.0645 6.40412 44.4651 5.75639C44.8657 5.10866 45.4282 4.61008 46.1526 4.26065C46.8813 3.90696 47.7272 3.73011 48.6903 3.73011C49.6832 3.73011 50.5461 3.89631 51.279 4.22869C52.012 4.56108 52.5787 5.02557 52.9793 5.62216C53.3841 6.21449 53.5866 6.9027 53.5866 7.68679C53.5866 8.18537 53.4864 8.67969 53.2861 9.16974C53.0858 9.6598 52.7258 10.201 52.2059 10.7933C51.6903 11.3857 50.9573 12.0952 50.007 12.9219L48.441 14.3665V14.4496H53.7464V17H44.056Z" fill="white"/>
</svg>
