<svg width="73" height="73" viewBox="0 0 73 73" fill="none" xmlns="http://www.w3.org/2000/svg">
<rect width="73" height="73" rx="5" fill="#AF47FF"/>
<path d="M0 4.99999C0 2.23857 2.23858 0 5 0H68C70.7614 0 73 2.23858 73 5V21.15H0V4.99999Z" fill="black"/>
<path d="M11.8651 51V39.3636H19.8082V41.6477H14.6776V44.0341H19.3026V46.3239H14.6776V51H11.8651ZM23.544 51.1477C22.9872 51.1477 22.4929 51.0549 22.0611 50.8693C21.633 50.6799 21.294 50.3958 21.044 50.017C20.7978 49.6345 20.6747 49.1553 20.6747 48.5795C20.6747 48.0947 20.7599 47.6856 20.9304 47.3523C21.1009 47.0189 21.3357 46.7481 21.6349 46.5398C21.9342 46.3314 22.2789 46.1742 22.669 46.0682C23.0592 45.9583 23.4759 45.8845 23.919 45.8466C24.4152 45.8011 24.8149 45.7538 25.1179 45.7045C25.4209 45.6515 25.6406 45.5777 25.777 45.483C25.9171 45.3845 25.9872 45.2462 25.9872 45.0682V45.0398C25.9872 44.7481 25.8868 44.5227 25.6861 44.3636C25.4853 44.2045 25.2145 44.125 24.8736 44.125C24.5062 44.125 24.2107 44.2045 23.9872 44.3636C23.7637 44.5227 23.6217 44.7424 23.5611 45.0227L20.9986 44.9318C21.0743 44.4015 21.2694 43.928 21.5838 43.5114C21.902 43.0909 22.3376 42.7614 22.8906 42.5227C23.4474 42.2803 24.116 42.1591 24.8963 42.1591C25.4531 42.1591 25.9664 42.2254 26.4361 42.358C26.9058 42.4867 27.3149 42.6761 27.6634 42.9261C28.0118 43.1723 28.2808 43.4754 28.4702 43.8352C28.6634 44.1951 28.7599 44.6061 28.7599 45.0682V51H26.1463V49.7841H26.0781C25.9228 50.0795 25.724 50.3295 25.4815 50.5341C25.2429 50.7386 24.9607 50.892 24.6349 50.9943C24.313 51.0966 23.9493 51.1477 23.544 51.1477ZM24.402 49.3295C24.7012 49.3295 24.9702 49.2689 25.2088 49.1477C25.4512 49.0265 25.6444 48.8598 25.7884 48.6477C25.9323 48.4318 26.0043 48.1818 26.0043 47.8977V47.0682C25.9247 47.1098 25.8281 47.1477 25.7145 47.1818C25.6046 47.2159 25.4834 47.2481 25.3509 47.2784C25.2183 47.3087 25.0819 47.3352 24.9418 47.358C24.8016 47.3807 24.6671 47.4015 24.5384 47.4205C24.277 47.4621 24.0535 47.5265 23.8679 47.6136C23.6861 47.7008 23.5459 47.8144 23.4474 47.9545C23.3527 48.0909 23.3054 48.2538 23.3054 48.4432C23.3054 48.7311 23.4077 48.9508 23.6122 49.1023C23.8205 49.2538 24.0838 49.3295 24.402 49.3295ZM30.4588 51V42.2727H33.1009V43.875H33.1974C33.3793 43.3447 33.6861 42.9261 34.1179 42.6193C34.5497 42.3125 35.0649 42.1591 35.6634 42.1591C36.2694 42.1591 36.7884 42.3144 37.2202 42.625C37.652 42.9356 37.9266 43.3523 38.044 43.875H38.1349C38.2978 43.3561 38.616 42.9413 39.0895 42.6307C39.563 42.3163 40.1217 42.1591 40.7656 42.1591C41.5914 42.1591 42.2618 42.4242 42.777 42.9545C43.2921 43.4811 43.5497 44.2045 43.5497 45.125V51H40.7713V45.7614C40.7713 45.3258 40.6596 44.9943 40.4361 44.767C40.2126 44.536 39.9228 44.4205 39.5668 44.4205C39.1842 44.4205 38.883 44.5455 38.6634 44.7955C38.4474 45.0417 38.3395 45.3731 38.3395 45.7898V51H35.669V45.733C35.669 45.3277 35.5592 45.0076 35.3395 44.7727C35.1198 44.5379 34.83 44.4205 34.4702 44.4205C34.2277 44.4205 34.0137 44.4792 33.8281 44.5966C33.6425 44.7102 33.4967 44.8731 33.3906 45.0852C33.2884 45.2973 33.2372 45.5473 33.2372 45.8352V51H30.4588ZM45.2713 51V42.2727H48.0497V51H45.2713ZM46.6634 41.2557C46.2732 41.2557 45.938 41.1269 45.6577 40.8693C45.3774 40.608 45.2372 40.2936 45.2372 39.9261C45.2372 39.5625 45.3774 39.2519 45.6577 38.9943C45.938 38.733 46.2732 38.6023 46.6634 38.6023C47.0573 38.6023 47.3925 38.733 47.669 38.9943C47.9493 39.2519 48.0895 39.5625 48.0895 39.9261C48.0895 40.2936 47.9493 40.608 47.669 40.8693C47.3925 41.1269 47.0573 41.2557 46.6634 41.2557ZM52.5966 39.3636V51H49.8182V39.3636H52.5966ZM56.0639 54.2727C55.7306 54.2727 55.4162 54.2462 55.1207 54.1932C54.8253 54.1439 54.5715 54.0777 54.3594 53.9943L54.973 51.9773C55.2457 52.0682 55.492 52.1212 55.7116 52.1364C55.9351 52.1515 56.1264 52.1155 56.2855 52.0284C56.4484 51.9451 56.5734 51.7955 56.6605 51.5795L56.7685 51.3182L53.6662 42.2727H56.5753L58.1832 48.5H58.2741L59.9048 42.2727H62.831L59.5412 51.8352C59.3821 52.3125 59.1567 52.733 58.8651 53.0966C58.5772 53.464 58.2041 53.7519 57.7457 53.9602C57.2912 54.1686 56.7306 54.2727 56.0639 54.2727Z" fill="white"/>
<path d="M7.4055 15V5.54545H11.311C12.0189 5.54545 12.6298 5.67318 13.1438 5.92862C13.6608 6.18099 14.0594 6.54415 14.3394 7.01811C14.6195 7.48899 14.7595 8.04758 14.7595 8.69389C14.7595 9.34943 14.6164 9.90649 14.3302 10.3651C14.044 10.8205 13.6377 11.1683 13.1115 11.4084C12.5852 11.6454 11.962 11.7638 11.2418 11.7638H8.77197V9.96342H10.8171C11.1618 9.96342 11.4495 9.9188 11.6804 9.82955C11.9143 9.73722 12.0912 9.59872 12.2112 9.41406C12.3313 9.22633 12.3913 8.98627 12.3913 8.69389C12.3913 8.40151 12.3313 8.15992 12.2112 7.96911C12.0912 7.77521 11.9143 7.63056 11.6804 7.53516C11.4465 7.43667 11.1587 7.38743 10.8171 7.38743H9.69065V15H7.4055ZM12.7283 10.679L15.0827 15H12.5898L10.2816 10.679H12.7283ZM15.7036 7.40128V5.54545H23.6947V7.40128H20.8279V15H18.5751V7.40128H15.7036ZM24.8108 15V5.54545H27.0959V13.1442H31.0292V15H24.8108ZM35.8869 15.1293C35.1513 15.1293 34.4942 15.0123 33.9156 14.7784C33.3401 14.5414 32.8877 14.2214 32.5584 13.8182C32.2321 13.4119 32.069 12.9534 32.069 12.4425C32.069 12.0516 32.1629 11.6931 32.3506 11.3668C32.5384 11.0406 32.7923 10.7698 33.1123 10.5543C33.4355 10.3358 33.7956 10.1958 34.1926 10.1342V10.0604C33.6725 9.96496 33.2462 9.72337 32.9138 9.33558C32.5845 8.9478 32.4199 8.49384 32.4199 7.97372C32.4199 7.4813 32.5691 7.04273 32.8677 6.65803C33.1693 6.27332 33.5802 5.97017 34.1003 5.74858C34.6235 5.52699 35.219 5.41619 35.8869 5.41619C36.5547 5.41619 37.1487 5.52699 37.6688 5.74858C38.192 5.97017 38.6029 6.27332 38.9014 6.65803C39.203 7.04273 39.3538 7.4813 39.3538 7.97372C39.3538 8.49692 39.1861 8.95241 38.8506 9.3402C38.5182 9.72491 38.0951 9.96496 37.5811 10.0604V10.1342C37.975 10.1958 38.332 10.3358 38.6521 10.5543C38.9753 10.7698 39.2307 11.0406 39.4185 11.3668C39.6093 11.6931 39.7047 12.0516 39.7047 12.4425C39.7047 12.9534 39.54 13.4119 39.2107 13.8182C38.8814 14.2214 38.429 14.5414 37.8535 14.7784C37.281 15.0123 36.6255 15.1293 35.8869 15.1293ZM35.8869 13.5089C36.1669 13.5089 36.4131 13.4566 36.6255 13.3519C36.8378 13.2442 37.004 13.0949 37.1241 12.9041C37.2472 12.7133 37.3087 12.4979 37.3087 12.2578C37.3087 12.0116 37.2472 11.7931 37.1241 11.6023C37.001 11.4115 36.8317 11.2622 36.6163 11.1545C36.4039 11.0437 36.1608 10.9883 35.8869 10.9883C35.616 10.9883 35.3729 11.0437 35.1574 11.1545C34.942 11.2622 34.7727 11.4115 34.6496 11.6023C34.5265 11.7931 34.465 12.0116 34.465 12.2578C34.465 12.4979 34.525 12.7133 34.645 12.9041C34.7681 13.0919 34.9359 13.2396 35.1482 13.3473C35.3637 13.455 35.6099 13.5089 35.8869 13.5089ZM35.8869 9.37713C36.1269 9.37713 36.3393 9.32789 36.5239 9.2294C36.7117 9.13092 36.8579 8.99396 36.9625 8.81854C37.0702 8.64311 37.1241 8.4446 37.1241 8.22301C37.1241 8.00142 37.0702 7.80599 36.9625 7.63672C36.8579 7.46745 36.7132 7.33511 36.5285 7.2397C36.3439 7.14122 36.13 7.09197 35.8869 7.09197C35.6468 7.09197 35.4329 7.14122 35.2452 7.2397C35.0574 7.33511 34.9112 7.46745 34.8066 7.63672C34.702 7.80599 34.6496 8.00142 34.6496 8.22301C34.6496 8.4446 34.702 8.64311 34.8066 8.81854C34.9143 8.99089 35.062 9.12784 35.2498 9.2294C35.4375 9.32789 35.6499 9.37713 35.8869 9.37713ZM41.3805 15L45.1937 7.44744V7.38743H40.7342V5.54545H47.5573V7.40128L43.7302 15H41.3805ZM51.1432 5.54545L52.8697 8.53232H52.9436L54.6886 5.54545H57.2461L54.3932 10.2727L57.3385 15H54.7163L52.9436 11.9808H52.8697L51.097 15H48.4933L51.4248 10.2727L48.5672 5.54545H51.1432ZM60.7408 5.54545L62.4674 8.53232H62.5412L64.2863 5.54545H66.8438L63.9908 10.2727L66.9361 15H64.314L62.5412 11.9808H62.4674L60.6946 15H58.091L61.0224 10.2727L58.1648 5.54545H60.7408Z" fill="white"/>
</svg>
