<svg width="73" height="73" viewBox="0 0 73 73" fill="none" xmlns="http://www.w3.org/2000/svg">
<rect width="73" height="73" rx="5" fill="#AF47FF"/>
<path d="M0 4.99999C0 2.23857 2.23858 0 5 0H68C70.7614 0 73 2.23858 73 5V21.15H0V4.99999Z" fill="black"/>
<path d="M18.8022 38.4545V53H15.2937V41.7358H15.2085L11.9556 43.7244V40.6847L15.5423 38.4545H18.8022ZM28.0334 53.3551C26.7644 53.3551 25.6707 53.0545 24.7521 52.4531C23.8336 51.8471 23.1257 50.9782 22.6286 49.8466C22.1314 48.7102 21.8852 47.3442 21.8899 45.7486C21.8946 44.1529 22.1432 42.7988 22.6357 41.6861C23.1328 40.5687 23.8383 39.7187 24.7521 39.1364C25.6707 38.5492 26.7644 38.2557 28.0334 38.2557C29.3023 38.2557 30.3961 38.5492 31.3146 39.1364C32.2379 39.7187 32.9482 40.5687 33.4453 41.6861C33.9425 42.8035 34.1887 44.1577 34.1839 45.7486C34.1839 47.349 33.9354 48.7173 33.4382 49.8537C32.9411 50.9901 32.2332 51.8589 31.3146 52.4602C30.4008 53.0568 29.3071 53.3551 28.0334 53.3551ZM28.0334 50.4787C28.791 50.4787 29.4041 50.0928 29.8729 49.321C30.3416 48.5445 30.5736 47.3537 30.5689 45.7486C30.5689 44.6974 30.4624 43.831 30.2493 43.1491C30.0362 42.4626 29.7403 41.9512 29.3615 41.6151C28.9827 41.2789 28.54 41.1108 28.0334 41.1108C27.2805 41.1108 26.6721 41.492 26.2081 42.2543C25.7441 43.0118 25.5097 44.1766 25.505 45.7486C25.5002 46.8139 25.602 47.697 25.8104 48.3977C26.0234 49.0985 26.3217 49.6217 26.7053 49.9673C27.0888 50.3082 27.5315 50.4787 28.0334 50.4787ZM36.2259 53V38.4545H42.2912C43.3802 38.4545 44.2917 38.6084 45.0256 38.9162C45.7642 39.224 46.3182 39.6548 46.6875 40.2088C47.0616 40.7628 47.2486 41.4044 47.2486 42.1335C47.2486 42.6875 47.1326 43.1823 46.9006 43.6179C46.6686 44.0488 46.349 44.4062 45.9418 44.6903C45.5346 44.9744 45.0634 45.1733 44.5284 45.2869V45.429C45.1155 45.4574 45.6577 45.616 46.1548 45.9048C46.6567 46.1937 47.0592 46.5961 47.3622 47.1122C47.6652 47.6236 47.8168 48.2296 47.8168 48.9304C47.8168 49.7116 47.6179 50.41 47.2202 51.0256C46.8224 51.6364 46.2472 52.1193 45.4943 52.4744C44.7415 52.8248 43.8277 53 42.7528 53H36.2259ZM39.7415 50.1662H41.9148C42.6771 50.1662 43.2382 50.0218 43.598 49.733C43.9626 49.4441 44.1449 49.0417 44.1449 48.5256C44.1449 48.1515 44.0573 47.8295 43.8821 47.5597C43.7069 47.285 43.4583 47.0743 43.1364 46.9276C42.8144 46.776 42.4285 46.7003 41.9787 46.7003H39.7415V50.1662ZM39.7415 44.4347H41.6875C42.071 44.4347 42.4119 44.3707 42.7102 44.2429C43.0085 44.1151 43.2405 43.9304 43.4062 43.6889C43.5767 43.4474 43.6619 43.1562 43.6619 42.8153C43.6619 42.3277 43.4891 41.9441 43.1435 41.6648C42.7978 41.3854 42.3314 41.2457 41.7443 41.2457H39.7415V44.4347ZM61.8864 38.4545V53H58.9034L53.1151 44.6051H53.0227V53H49.5071V38.4545H52.5327L58.2571 46.8352H58.3778V38.4545H61.8864Z" fill="white"/>
<path d="M9.31206 17V3.90909H14.7197C15.6998 3.90909 16.5457 4.08594 17.2574 4.43963C17.9733 4.78906 18.5251 5.2919 18.9129 5.94815C19.3007 6.60014 19.4946 7.37358 19.4946 8.26847C19.4946 9.17614 19.2964 9.94744 18.9001 10.5824C18.5038 11.2131 17.9413 11.6946 17.2126 12.027C16.4839 12.3551 15.621 12.5192 14.6238 12.5192H11.2041V10.0263H14.0358C14.5131 10.0263 14.9115 9.96449 15.2311 9.84091C15.555 9.71307 15.8 9.52131 15.9662 9.26562C16.1324 9.00568 16.2155 8.6733 16.2155 8.26847C16.2155 7.86364 16.1324 7.52912 15.9662 7.26491C15.8 6.99645 15.555 6.79616 15.2311 6.66406C14.9072 6.5277 14.5088 6.45952 14.0358 6.45952H12.4761V17H9.31206ZM16.6821 11.017L19.942 17H16.4903L13.2943 11.017H16.6821ZM20.8018 6.47869V3.90909H31.8664V6.47869H27.8969V17H24.7776V6.47869H20.8018ZM33.4117 17V3.90909H36.5757V14.4304H42.0218V17H33.4117ZM48.7478 17.179C47.7293 17.179 46.8195 17.017 46.0184 16.6932C45.2215 16.3651 44.5951 15.9219 44.1391 15.3636C43.6874 14.8011 43.4616 14.1662 43.4616 13.4588C43.4616 12.9176 43.5915 12.4212 43.8515 11.9695C44.1114 11.5178 44.463 11.1428 44.9062 10.8445C45.3536 10.5419 45.8522 10.348 46.4019 10.2628V10.1605C45.6817 10.0284 45.0915 9.69389 44.6313 9.15696C44.1753 8.62003 43.9474 7.99148 43.9474 7.27131C43.9474 6.58949 44.154 5.98224 44.5674 5.44957C44.985 4.9169 45.5539 4.49716 46.2741 4.19034C46.9985 3.88352 47.8231 3.73011 48.7478 3.73011C49.6725 3.73011 50.4949 3.88352 51.2151 4.19034C51.9395 4.49716 52.5084 4.9169 52.9218 5.44957C53.3394 5.98224 53.5482 6.58949 53.5482 7.27131C53.5482 7.99574 53.316 8.62642 52.8515 9.16335C52.3912 9.69602 51.8053 10.0284 51.0937 10.1605V10.2628C51.6391 10.348 52.1334 10.5419 52.5766 10.8445C53.0241 11.1428 53.3778 11.5178 53.6377 11.9695C53.9019 12.4212 54.034 12.9176 54.034 13.4588C54.034 14.1662 53.806 14.8011 53.3501 15.3636C52.8941 15.9219 52.2677 16.3651 51.4708 16.6932C50.6782 17.017 49.7705 17.179 48.7478 17.179ZM48.7478 14.9354C49.1356 14.9354 49.4765 14.8629 49.7705 14.718C50.0645 14.5689 50.2947 14.3622 50.4608 14.098C50.6313 13.8338 50.7165 13.5355 50.7165 13.2031C50.7165 12.8622 50.6313 12.5597 50.4608 12.2955C50.2904 12.0312 50.056 11.8246 49.7577 11.6754C49.4637 11.522 49.127 11.4453 48.7478 11.4453C48.3728 11.4453 48.0361 11.522 47.7378 11.6754C47.4395 11.8246 47.2052 12.0312 47.0347 12.2955C46.8643 12.5597 46.779 12.8622 46.779 13.2031C46.779 13.5355 46.8621 13.8338 47.0283 14.098C47.1988 14.358 47.431 14.5625 47.7251 14.7116C48.0233 14.8608 48.3643 14.9354 48.7478 14.9354ZM48.7478 9.21449C49.0802 9.21449 49.3742 9.14631 49.6299 9.00994C49.8898 8.87358 50.0922 8.68395 50.2371 8.44105C50.3863 8.19815 50.4608 7.9233 50.4608 7.61648C50.4608 7.30966 50.3863 7.03906 50.2371 6.80469C50.0922 6.57031 49.892 6.38707 49.6363 6.25497C49.3806 6.11861 49.0844 6.05043 48.7478 6.05043C48.4154 6.05043 48.1192 6.11861 47.8593 6.25497C47.5993 6.38707 47.3969 6.57031 47.252 6.80469C47.1072 7.03906 47.0347 7.30966 47.0347 7.61648C47.0347 7.9233 47.1072 8.19815 47.252 8.44105C47.4012 8.67969 47.6057 8.86932 47.8657 9.00994C48.1256 9.14631 48.4197 9.21449 48.7478 9.21449ZM56.3543 17L61.6341 6.54261V6.45952H55.4594V3.90909H64.9069V6.47869L59.6079 17H56.3543Z" fill="white"/>
</svg>
